<svg id="af983e26-7858-497c-aa94-34e00e8a2472" data-name="圖層 1" xmlns="http://www.w3.org/2000/svg" viewBox="0 0 550 83"><defs><style>.b28462c5-4e54-45dc-9a3b-30caecd2b06b{fill:#242424;}.af61afea-e901-4d5e-8cab-7d4699e06b5c{fill:#fffad1;}.af61afea-e901-4d5e-8cab-7d4699e06b5c,.b9691cb5-a0bd-4274-aecb-8238fad10f4e,.fdbfb581-5df5-4f02-ab09-28d24d8a8996{fill-rule:evenodd;}.b9691cb5-a0bd-4274-aecb-8238fad10f4e{fill:#008086;}.fdbfb581-5df5-4f02-ab09-28d24d8a8996{fill:#f05c4e;}</style></defs><path class="b28462c5-4e54-45dc-9a3b-30caecd2b06b" d="M215,44.48h0l-.27-.26h0l-.27-.26h0l-.27-.26h0l-.27-.26v0l-.27-.26h0l-.27-.26h0l-.26-.26h0l-.27-.26h0l-.27-.26v0l-.27-.25v0l-.27-.26h0l-.27-.26h0l-.27-.26h0l-.27-.26h0l-.27-.26v0l-.27-.26h0l-.27-.26h0l-.27-.26h0l-.27-.26h0l-.27-.26v0c-3.32-3.16-6.65-6.31-10-9.41,1.66.36,3.75,0,5.45,0a37.7,37.7,0,0,0,5.1-.21c.9-.14,1.37-1,1.9-1.62C213,26.5,213.82,25,215.15,24c0-2.25.08-4.49.13-6.79-.1-.06-.18-.13-.28-.18a.31.31,0,0,0,0-.1c-.1-.05-.18-.12-.28-.17v-.1l-.27-.17v-.1l-.27-.18v-.09l-.27-.18v-.09l-.28-.18a.28.28,0,0,0,0-.09c-.1-.06-.18-.13-.28-.18a.38.38,0,0,1,0-.1c-.1-.05-.19-.12-.28-.17v-.1c-.09-.05-.18-.12-.27-.18v-.09c-.09,0-.18-.12-.27-.18v-.09l-.27-.18v-.09c-.1-.06-.18-.13-.27-.18V14c-.1-.05-.18-.12-.28-.17a.34.34,0,0,1,0-.1c-.1,0-.19-.12-.28-.17v-.1l-.27-.17v-.1l-.27-.18v-.09l-.27-.18v-.09l-.28-.18a.31.31,0,0,0,0-.1c-.1-.05-.18-.12-.28-.17v-.1l-.27-.18v-.09c-.09,0-.18-.12-.27-.18v-.09a17.4,17.4,0,0,1-3.13-2.39,5.17,5.17,0,0,1-.74-1.19h-.13c0-.09-.1-.17-.14-.26l-.13,0a2,2,0,0,1-.14-.25l-.14,0c0-.08-.09-.16-.13-.25l-.14,0c0-.09-.1-.16-.13-.25l-.14,0c0-.09-.1-.16-.13-.25l-.14,0c0-.09-.1-.17-.14-.26h-.13c-.05-.09-.1-.17-.14-.26l-.13,0a2,2,0,0,1-.14-.25l-.13,0a2,2,0,0,1-.14-.25l-.14,0c0-.09-.1-.16-.13-.25l-.14,0c0-.09-.1-.17-.14-.26h-.13c0-.09-.1-.17-.14-.26l-.13,0a2,2,0,0,1-.14-.25l-.13,0a2,2,0,0,1-.14-.25l-.14,0c0-.09-.09-.16-.13-.25l-.14,0c0-.09-.1-.16-.13-.25l-.14,0c0-.09-.1-.17-.14-.26H201c0-.09-.1-.17-.14-.26l-.13,0a2,2,0,0,1-.14-.25l-.13,0a2,2,0,0,1-.14-.25l-.14,0c0-.09-.09-.16-.13-.25a36,36,0,0,0-6.4,0,42.61,42.61,0,0,1-6.86-.56c-4.49,4.79-8.75,9.81-13.3,14.56a5,5,0,0,0-1.06,1.32c-.31.66,0,1.36,0,2.06-.09,1.5-.19,3-.26,4.5-.13,3.26-.44,6.56-.3,9.81l.27.27h0c.09.09.19.18.27.27h0l.28.28h0l.27.27h0l.27.27h0l.27.27h0l.27.27h0l.27.28h0l.28.27h0l.27.27h0l.27.27h0l.27.27h0l.27.27h0l.28.26h0c.08.09.18.18.27.27h0c3.94,4,7.79,8.08,11.89,11.94a30.91,30.91,0,0,1-5.27,0c-1.85,0-3.71,0-5.56,0-1.72,1.68-3.82,3-5.12,5.16,0,2.2-.12,4.41-.21,6.62-.08,2-.49,3.82.91,5.47a38,38,0,0,0,3.29,3.3,23.79,23.79,0,0,0,3.43,3.3A61.48,61.48,0,0,1,184,78.31a10.84,10.84,0,0,0,1.37,1.34,16.24,16.24,0,0,0,3.26,3.26c.66.9,2.38.3,3.29.2,1.61-.17,3.23-.3,4.86-.34a7.15,7.15,0,0,0,3.22-.39,10.36,10.36,0,0,0,2.6-2.68c.8-.91,1.81-1.51,2.65-2.34,1.13-1.16,2.26-2.32,3.4-3.46s2.32-2.3,3.48-3.45c.91-.89,2.59-2,3-3.29a100.87,100.87,0,0,1,.11-11.27c.07-1.82,0-3.64.06-5.45a47.11,47.11,0,0,0,0-5.7l-.27-.26ZM197.94,28.3c-1.1-.09-2.22-.07-3.32-.08,0-.86-.39-2.45,0-3.24,1,1.13,2.2,2.29,3.32,3.32C197.68,28.28,197.89,28.25,197.94,28.3Zm-8.28,22.76L193,51c0,1.18,0,2.36,0,3.54-.65-.32-1-1.34-1.64-1.63a8.52,8.52,0,0,0-1.77-1.83C190.77,51,189.72,51.11,189.66,51.06Z"/><path class="af61afea-e901-4d5e-8cab-7d4699e06b5c" d="M178.64,61.1l9.74,9.58a.32.32,0,0,0,.14.08l.17.07c1.72,0,3.46,0,5.2-.08s3.48-.16,5.17-.23c3.08-3.13,6.32-6,9.14-9.07,0-2.07-.07-4,0-5.89,0-1.46.19-2.91.22-4.37.07-3.48.08-7,.15-10.45a2,2,0,0,0-.71-1.62c-1.56-1.46-3.07-3-4.62-4.43s-3-2.82-4.58-4.23c-.28-.26-.59-.5-.84-.72l-.93,0-7.74-.19a5.7,5.7,0,0,1-.84-.08.8.8,0,0,1-.55-.59,1.38,1.38,0,0,1,0-.5,59.74,59.74,0,0,0,0-9.92c-.12-1.51-.11-3-.14-4.55a.78.78,0,0,1,.8-.89c.67-.07,1.34-.13,2-.14,2,0,3.93,0,5.9-.07.61,0,1.23-.06,1.84-.12a1,1,0,0,1,1.25,1.16c0,.73-.06,1.46-.07,2.19a1.53,1.53,0,0,0,.21,1.12c1.71.35,2.38.35,7.53,0a1.86,1.86,0,0,0,1.34-.37c0-.21.06-.49.06-.76,0-1.18,0-2.35,0-3.58a86.86,86.86,0,0,1-9.29-8.88c-.87,0-1.66,0-2.44,0a59.78,59.78,0,0,1-8.25-.18l-1.13-.07-.72.87C185.36,5.64,184,7,182.69,8.37s-2.48,2.75-3.73,4.12a2.49,2.49,0,0,0-.64,1.84c.07,2.36.08,4.72.08,7.08a54.75,54.75,0,0,1-.19,7.11c.41.45.79.94,1.24,1.35,1.21,1.1,2.45,2.16,3.67,3.23.58.52,1.2,1,1.73,1.6,1.33,1.43,2.62,2.91,4,4.42.17,0,.39,0,.61,0l6.74-.2c.67,0,1.35,0,2,0A1.07,1.07,0,0,1,199.25,40c0,.17,0,.34,0,.51q.06,6.15.1,12.3c0,2.25,0,4.49,0,6.74,0,1-.24,1.26-1.3,1.25a61.6,61.6,0,0,0-7.92.16,2.66,2.66,0,0,1-1.16-.07c-1.09-.37-1.4-.33-1.37-1.73v-1c0-1.91,0-3.81,0-5.72,0-.33.07-.69-.32-1a2.15,2.15,0,0,0-.43-.09c-2.64,0-5.28,0-7.92,0-.15,0-.3.11-.47.17C178.51,54.68,178.57,57.82,178.64,61.1Z"/><path class="b9691cb5-a0bd-4274-aecb-8238fad10f4e" d="M173.72,33.89l1.2,1.25c1.57,1.6,3.23,3.11,4.68,4.83A24.83,24.83,0,0,0,183,43.2a4.08,4.08,0,0,0,.61.37L186.11,41c.35-.36.68-.74,1-1.13a1.63,1.63,0,0,0,.15-.44A5.25,5.25,0,0,0,186.11,38c-.57-.62-1.17-1.21-1.71-1.85a14.84,14.84,0,0,0-2.05-2A45.45,45.45,0,0,1,177.73,30a1.84,1.84,0,0,0-.39-.28A15.48,15.48,0,0,0,173.72,33.89Z"/><path class="b9691cb5-a0bd-4274-aecb-8238fad10f4e" d="M173.75,66.41l1.11,1c1,.91,2,1.77,3,2.74,1.7,1.8,3.49,3.5,5.34,5.13a4.83,4.83,0,0,0,.56.4c1.16-1.29,2.29-2.53,3.4-3.78.07-.07.06-.21.11-.38a3.71,3.71,0,0,0-.37-.49c-2.87-2.84-5.76-5.67-8.64-8.49a1.05,1.05,0,0,0-.31-.12A29.71,29.71,0,0,0,173.75,66.41Z"/><path class="fdbfb581-5df5-4f02-ab09-28d24d8a8996" d="M197.94,59.33c.18-1.44.14-15-.05-17.62,0-.07-.14-.13-.21-.2a1.12,1.12,0,0,0-.29.14c-.77.89-1.55,1.78-2.31,2.68a2,2,0,0,0-.48,1.23c0,.23,0,.45,0,.68q0,6.32.09,12.64a2,2,0,0,0,.19.52c.44,0,.87.08,1.31.08A4.71,4.71,0,0,0,197.94,59.33Z"/><path class="fdbfb581-5df5-4f02-ab09-28d24d8a8996" d="M173.45,31.39a19.36,19.36,0,0,0,3.16-3.18,2.07,2.07,0,0,0,.47-1.4c0-.28,0-.56,0-.84,0-2.75,0-5.5,0-8.25,0-.73,0-1.46-.06-2.19a2.53,2.53,0,0,0-.22-.5c-.27.24-.49.4-.68.6-.5.52-1,1.11-1.5,1.59a2.45,2.45,0,0,0-.83,1.93c-.12,3.59-.27,7.18-.4,10.76C173.41,30.4,173.44,30.9,173.45,31.39Z"/><path class="fdbfb581-5df5-4f02-ab09-28d24d8a8996" d="M176.91,52.29a1.81,1.81,0,0,0-.48.21c-.75.68-1.47,1.38-2.21,2.06a2.55,2.55,0,0,0-.82,1.79c-.22,2.63-.3,5.26-.31,7.9,0,.14.11.27.21.49a41.69,41.69,0,0,0,3.63-3.33,1.54,1.54,0,0,0,.37-1.09,51.58,51.58,0,0,0-.22-7.56A2.26,2.26,0,0,0,176.91,52.29Z"/><path class="b9691cb5-a0bd-4274-aecb-8238fad10f4e" d="M196,22.69a8.44,8.44,0,0,0,.93.06c2.17,0,4.35-.11,6.54-.15a1.83,1.83,0,0,0,1.58-.75c.66-.91,1.37-1.78,2-2.66a1.08,1.08,0,0,0,.2-.45c0-.08-.08-.26-.14-.26a11.56,11.56,0,0,0-1.32-.05c-1.12.06-2.23.18-3.35.21-.95,0-1.9,0-2.85,0a1.33,1.33,0,0,0-1.15.55c-.78,1-1.6,2-2.39,3A2.19,2.19,0,0,0,196,22.69Z"/><path class="b9691cb5-a0bd-4274-aecb-8238fad10f4e" d="M185.39,76.22a4.57,4.57,0,0,0,1.65,0,42.32,42.32,0,0,1,5-.31c.39,0,.78-.06,1.17,0a1.44,1.44,0,0,0,1.16-.56c.85-1,1.73-1.92,2.58-2.88.05-.06,0-.2,0-.47-2.76.14-5.53,0-8.26.32C186.34,74.5,185.75,75.2,185.39,76.22Z"/><path class="b9691cb5-a0bd-4274-aecb-8238fad10f4e" d="M185.35,44.19c1.75,0,3.43-.07,5.11-.13.89,0,1.78-.14,2.68-.2a1.49,1.49,0,0,0,1.15-.59c.68-.82,1.37-1.63,2-2.46.09-.1.06-.3.09-.52-2.74,0-5.42.16-8.07.25-1,1.08-2,2.09-2.94,3.11a.38.38,0,0,0-.06.16S185.35,43.91,185.35,44.19Z"/><path class="b9691cb5-a0bd-4274-aecb-8238fad10f4e" d="M193.38,17.54c1-1,1.85-2,2.71-2.94.09-.1.07-.29.1-.42a1.3,1.3,0,0,0-.36-.14l-6.06.13a1,1,0,0,0-.85.34,11.24,11.24,0,0,0,0,2.4c0,.73.22.92.91.88C191,17.73,192.15,17.63,193.38,17.54Z"/><path class="fdbfb581-5df5-4f02-ab09-28d24d8a8996" d="M197.87,15.09c-.19,0-.27,0-.29,0-.87.87-1.74,1.73-2.58,2.63a1.3,1.3,0,0,0-.36.73c-.07.94-.08,1.89-.1,2.83,0,.07.13.14.22.2a.17.17,0,0,0,.14,0c.53-.58,1.09-1.13,1.56-1.75C198.14,17.52,198,18.34,197.87,15.09Z"/><path class="b28462c5-4e54-45dc-9a3b-30caecd2b06b" d="M406.75,76a.31.31,0,0,0,0,.1l.26.18s0,.06,0,.09l.26.18s0,.06,0,.09l.26.18a.34.34,0,0,1,0,.1l.26.17s0,.07,0,.1l.25.17a.36.36,0,0,1,0,.1l.26.18s0,.06,0,.09l.26.18s0,.06,0,.09l.26.18s0,.07,0,.09l.26.18s0,.07,0,.1l.25.17s0,.07,0,.1l.25.17a.44.44,0,0,1,0,.1l.26.18s0,.06,0,.09l.26.18s0,.06,0,.09l.26.18s0,.07,0,.1l.26.17s0,.07,0,.1l.25.17s0,.07,0,.1l.25.18a.29.29,0,0,1,0,.09l.26.18s0,.06,0,.09l.26.18s0,.06,0,.09l.26.18s0,.07,0,.1c1.58,1.09,3.22.68,5.08.63a26.06,26.06,0,0,1,6.78.27l2.66-3,1-1.17c.37-.41.94-.61,1.25-1.06a7.19,7.19,0,0,0,1.61,1.6,7,7,0,0,0,1.63,1.63,6.82,6.82,0,0,0,1.63,1.63c.56.9,1.56.75,2.48.76l6.59,0a4,4,0,0,0,2.63-.42A19.38,19.38,0,0,0,448,79.89c1.18-1.26,3.09-2.21,3.25-4.08a54,54,0,0,0,0-6c-.07-3.28,0-6.57,0-9.85.19-8.82.17-17.63.24-26.46,0-4.78.16-9.56.09-14.33q0-3.46-.27-6.92c-.12-1.77.06-4.31-1.83-5.26a6.32,6.32,0,0,0-1.63-1.63,7.3,7.3,0,0,0-1.9-1.9c-.91-1.91-3.93-1.16-5.58-1.12-2,.06-5-.41-6.77.8a34.87,34.87,0,0,0-2.83,2.48,10.1,10.1,0,0,0-2.06,2.07C427.77,6.9,427,5.79,426,5a11.42,11.42,0,0,0-1.63-1.63c-.72-.91-1.23-.89-2.34-.89l-7,0a5.08,5.08,0,0,0-2.57.34,13.28,13.28,0,0,0-2.11,2c-1.41,1.36-3.19,2.22-3.29,4.35s-.23,4.48-.26,6.73c-.06,4.6-.08,9.21-.09,13.81q0,13.05,0,26.09c0,3,0,5.94-.12,8.91a63,63,0,0,0-.1,11.07l.26.17S406.66,75.91,406.75,76Z"/><path class="af61afea-e901-4d5e-8cab-7d4699e06b5c" d="M413.72,4.15c-.09.74-.19,1.41-.24,2.08-.21,2.74-.37,5.49-.42,8.24-.16,8.71-.32,17.42-.28,26.13,0,6.18,0,16.39,0,22.57,0,1.91,0,3.82,0,5.73a8.86,8.86,0,0,0,.12,1.09c.14.06.18.11.23.11l8.92,0a.32.32,0,0,0,.16,0,1.67,1.67,0,0,0,.15-.14,1.64,1.64,0,0,0,.16-.94c.09-2.92.16-9.87.26-12.79.06-1.68.17-3.36.25-5,0-.61.07-1.23,0-1.85-.09-2.75-.17-5.5-.51-8.24-.18-1.35.28-1.3,1.25-1.49a3,3,0,0,1,.84,0c.89.06,1.79.16,2.68.18,2.25,0,4.5,0,6.74,0a2.15,2.15,0,0,1,.51,0c.49.11.82.61.48,1a1.85,1.85,0,0,0-.43,1.4c0,.28,0,.56,0,.84,0,2.81,0,5.62,0,8.43,0,2.64-.08,9.31,0,11.95,0,2.08.2,4.15.32,6.23a5,5,0,0,0,.17.74,1.78,1.78,0,0,0,.4.13l7.92.22.33,0a.65.65,0,0,0,.67-.62,21.28,21.28,0,0,0,.11-4.37c-.2-2.81-.1-9.65,0-12.46.12-3.14.2-6.29.21-9.43,0-5.23,0-10.45,0-15.68,0-4.21.08-8.42.08-12.64,0-3.59-.09-7.19-.44-10.77,0-.33,0-.69-.36-.92a3.35,3.35,0,0,0-.47-.06c-2,0-3.94,0-5.9.09-.62,0-1.23.11-1.85.19a.65.65,0,0,0-.58.7c0,.33,0,.67,0,1,0,1.46.12,2.92.12,4.38,0,3.37,0,6.74,0,10.11a85.14,85.14,0,0,1-.6,8.74c-.16,1.53-.22,1.56-1.71,1.66a9.3,9.3,0,0,1-1.18,0l-8.08-.27-.34,0a.85.85,0,0,1-.71-.63,3,3,0,0,1-.12-1c0-.79.07-1.57.08-2.36l.21-20.9c0-.28,0-.56,0-.84a.58.58,0,0,0-.61-.64c-2.64,0-5.28,0-7.92,0A2.84,2.84,0,0,0,413.72,4.15Z"/><path class="fdbfb581-5df5-4f02-ab09-28d24d8a8996" d="M408.14,74.38a16.86,16.86,0,0,0,2.89-3,2.24,2.24,0,0,0,.45-1.41c0-3.71.08-11.44.09-15.15,0-4.1,0-8.2-.05-12.3,0-8.88.06-17.75.2-26.63,0-2.69.14-5.39.33-8.08.05-.67.12-1.34.16-2,0-.08-.12-.17-.19-.24s-.13,0-.15,0Q410.46,6.8,409.08,8a1.43,1.43,0,0,0-.44,1.06c-.08,1.79-.24,3.59-.26,5.38q-.11,7.59-.13,15.17,0,13.81,0,27.64c0,.78,0,5.6-.07,6.38-.31,3.42-.2,6.85-.17,10.28A2,2,0,0,0,408.14,74.38Z"/><path class="fdbfb581-5df5-4f02-ab09-28d24d8a8996" d="M433.67,70.89c-.06-1.5-.09-3-.19-4.53-.28-4-.25-12.11,0-16.15,0-.62,0-1.24,0-1.85,0-1.18-.06-2.36-.09-3.54,0-.62,0-1.24-.05-1.85,0-.13-.14-.26-.21-.39a19.08,19.08,0,0,0-2.89,2.85,4.05,4.05,0,0,0-.75,2.34c.08,4.27.06,12.57.1,16.84,0,2.86.08,5.73.13,8.59,0,.44-.08.91.24,1.28.11,0,.25,0,.31,0A42.81,42.81,0,0,0,433.67,70.89Z"/><path class="fdbfb581-5df5-4f02-ab09-28d24d8a8996" d="M433.82,5.12c-1.3,1-2.22,2-3.23,2.83a1.88,1.88,0,0,0-.66,1.47c0,1.35-.08,2.69-.1,4,0,3.81-.05,7.62-.08,11.44,0,1.17,0,2.35,0,3.53a3.61,3.61,0,0,0,.21.85,15.84,15.84,0,0,0,3.32-.09c.09-.17.19-.26.2-.36.16-1.5.4-3,.45-4.51A169.63,169.63,0,0,0,434,6,8.45,8.45,0,0,0,433.82,5.12Z"/><path class="b9691cb5-a0bd-4274-aecb-8238fad10f4e" d="M430.92,75.74a5.37,5.37,0,0,0,.74.16l6.56.13a1.85,1.85,0,0,0,1.51-.59c.92-1,1.84-2,2.75-3,.07-.07.06-.21.09-.34a1.49,1.49,0,0,0-.44-.17c-2.47-.11-4.93-.13-7.43-.17C433.43,73,432.29,74.32,430.92,75.74Z"/><path class="b9691cb5-a0bd-4274-aecb-8238fad10f4e" d="M421.29,71.44c-1.75,0-3.32-.08-4.88-.07-1,0-2,.07-3,.15a1.58,1.58,0,0,0-.93.32c-.89.93-1.72,1.92-2.56,2.9-.06.07,0,.2-.06.3s.17.16.25.16l8.14-.07A14.45,14.45,0,0,0,421.29,71.44Z"/><path class="b9691cb5-a0bd-4274-aecb-8238fad10f4e" d="M428.63,45.16l2.92-3.07c.15-.16.3-.33.44-.5a.31.31,0,0,0,.08-.15.68.68,0,0,0,0-.21,1.48,1.48,0,0,0-.41-.12c-2.41,0-4.83,0-7.24-.26-.13,0-.29.12-.47.2.11,1.24.22,2.47.34,3.7,0,.09.11.18.19.3a2.26,2.26,0,0,0,.45.1Z"/><path class="b28462c5-4e54-45dc-9a3b-30caecd2b06b" d="M457.38,51.53c.26,4.89.38,9.8.31,14.69,0,2.38-.22,4.73-.33,7.1-.05,1-.47,2.73.62,3.31a9.51,9.51,0,0,0,2.45,2.45,8.29,8.29,0,0,0,2.17,2.17c.69,1.22,2,.93,3.22.93l9.88.06c3.3,0,6.61,0,9.91.07a89.69,89.69,0,0,0,10.24-.13c.91-.87,1.8-1.78,2.72-2.64a7.51,7.51,0,0,0,2.1-2.29,8.35,8.35,0,0,0,.22-3.23c0-1.51,0-3,0-4.52,0-1.22.34-2.5.27-3.71,0-.45-1.32-1.63-1.7-1.85a7.62,7.62,0,0,0-1.9-1.9,8.52,8.52,0,0,0-2.18-2.18c-.34-.63-2.16,0-2.83,0-1.32,0-2.64,0-4,0-2.85,0-5.71,0-8.56-.09V55.2A11.69,11.69,0,0,1,480.2,52c1.69-.34,3.46-.16,5.16-.41,1-1.2,2-2.39,3.05-3.59.49-.58,1-1.37,1.68-1.68s.94-.44.68-1.33c-.44-1.56,0-3.62,0-5.23,0-1,.63-3.87-.36-4.46a5.67,5.67,0,0,0-1.36-1.36,5.49,5.49,0,0,0-1.36-1.36,5.62,5.62,0,0,0-1.35-1.36A5.45,5.45,0,0,0,485,29.83c-.6-1-3.68-.44-4.62-.43,0-1.72.06-3.31.15-4a32.85,32.85,0,0,1,6.12-.4c2.35-.12,4.71,0,7.06-.09s3.07-1.36,4.45-2.9a28.09,28.09,0,0,1,1.9-2.17c.87-.8.85-1.37.85-2.52,0-2.13,0-4.27,0-6.4,0-.58.56-2.24,0-2.53A7.5,7.5,0,0,0,499,6.53a6.16,6.16,0,0,0-1.63-1.63,6.16,6.16,0,0,0-1.63-1.63c-.43-.89-1.59-.56-2.38-.54l-4.06.06c-4.84.09-9.67.18-14.51.23-2.27,0-4.54.09-6.81,0a31.61,31.61,0,0,1-3.37-.23c-1-.13-1.79-.27-2.53.52-1.33,1.44-3.21,2.75-4.28,4.39s-.72,4.57-.77,6.44c-.15,4.85-.24,9.69-.22,14.53,0,7.63.21,15.21.62,22.82C457.68,57.09,457.29,50,457.38,51.53Z"/><path class="af61afea-e901-4d5e-8cab-7d4699e06b5c" d="M464.16,4.28a15.1,15.1,0,0,0-.09,2.47c0,3.26.08,6.52.11,9.78s0,6.51.05,9.77c0,1.91,0,3.82,0,5.73.05,4.94.17,9.88.15,14.83,0,5.61-.16,15.26-.25,20.88,0,.44,0,.89,0,1.34,0,.9.13,1,1.09,1.08s1.69.06,2.53.07q7.83.08,15.67.12c3.21,0,6.41,0,9.61,0a1,1,0,0,0,1-.36c0-.45,0-1,0-1.56,0-1.8,0-3.61.12-5.39s0-1.76-1.64-1.77h-1.18c-3.82,0-7.63,0-11.45-.08-1.12,0-2.24-.14-3.37-.21-.67,0-1.34-.09-2-.09-.32,0-.64.26-1,0s-.33-.68-.35-1.07v-.68c0-4.21,0-12.45-.09-16.66a3.87,3.87,0,0,1,.73-2.51,2.38,2.38,0,0,1,.31-.28c.2,0,.48-.08.75-.1l6.91-.27c.39,0,.78,0,1.18,0a.84.84,0,0,0,.79-.4,6,6,0,0,0,.07-.73c0-1,0-2,.07-3l.06-3.2c0-.92-.06-1.13-1-1.11l-7.75.09a1.52,1.52,0,0,1-1.59-1.36c-.05-.51-.07-1-.07-1.52,0-3.93,0-7.86,0-11.79a10.88,10.88,0,0,0-.09-2.85.62.62,0,0,1,.45-.63,9.36,9.36,0,0,1,1.17-.09l13.65.14c1.41,0,2.81,0,4.22,0a6.31,6.31,0,0,0,1-.14,5.1,5.1,0,0,0,.13-.87q0-3.36,0-6.74a2.73,2.73,0,0,0-.05-.5.45.45,0,0,0-.44-.42h-1c-6.51.11-13,.24-19.54.32a63.28,63.28,0,0,1-7.91-.21A8,8,0,0,0,464.16,4.28Z"/><path class="fdbfb581-5df5-4f02-ab09-28d24d8a8996" d="M462.61,5.34a23.13,23.13,0,0,0-3.3,3,4.59,4.59,0,0,0-.54,1.22,5.67,5.67,0,0,0-.13,1.17c-.09,2.07-.25,4.15-.26,6.22q0,11.46,0,22.91a90.84,90.84,0,0,0,.3,9.76c.23,2,.32,8.06.38,10.08,0,1.46.11,2.91.15,4.37q0,1.09,0,2.19c-.07,2.08-.18,4.15-.26,6.23a11.43,11.43,0,0,0,0,1.17c0,.12.15.24.23.35a1.37,1.37,0,0,0,.34-.2c.58-.53,1.15-1.07,1.71-1.63,1.8-1.82,1.57-1.12,1.64-3.77.07-2.81.09-5.62.13-8.42,0-3.09.1-10.21.1-13.3,0-3.87-.07-7.75-.09-11.62,0-6.79,0-13.59-.07-20.38,0-3-.12-6-.19-8.93A2.43,2.43,0,0,0,462.61,5.34Z"/><path class="b9691cb5-a0bd-4274-aecb-8238fad10f4e" d="M489.88,75.28c1.1-1.07,2.15-2.08,3.18-3.11.09-.09.06-.29.1-.51h-1.4c-6.13,0-12.25,0-18.38,0-2.64,0-5.28-.08-7.92-.2a3.06,3.06,0,0,0-2.44.87c-.84.82-1.69,1.64-2.52,2.48-.09.09-.07.29-.12.53h.9c3.77,0,7.53,0,11.29.06s7.76.06,11.64.16A47.66,47.66,0,0,0,489.88,75.28Z"/><path class="b9691cb5-a0bd-4274-aecb-8238fad10f4e" d="M492.65,14.4a1.68,1.68,0,0,0-1.28-.29L480.76,14c-1.63,0-3.26,0-4.89,0a.94.94,0,0,0-.85.3,3,3,0,0,0-.09.55c0,1,0,1.91,0,2.86a2.43,2.43,0,0,0,.19.64c.78,0,1.51,0,2.24,0,2.07-.08,4.15-.19,6.22-.26,1.35,0,2.7,0,4,0,.4,0,.79,0,1.18,0a1.71,1.71,0,0,0,1.2-.53A22.33,22.33,0,0,0,492.65,14.4Z"/><path class="b9691cb5-a0bd-4274-aecb-8238fad10f4e" d="M474.7,41a11.65,11.65,0,0,0-.12,3.48.48.48,0,0,0,.46.42c1.24,0,2.47,0,3.7-.06a1.19,1.19,0,0,0,.85-.5l2.5-3a.55.55,0,0,0,.15-.68A46.85,46.85,0,0,0,474.7,41Z"/><path class="b28462c5-4e54-45dc-9a3b-30caecd2b06b" d="M358.35,65.08a1.25,1.25,0,0,0,.52,1.28,61.46,61.46,0,0,0,4.77,4.78c1.63,1.75,3.29,3.47,4.92,5.21,1.93,2.1,4.23,4.79,6.62,6.28a20.2,20.2,0,0,1,5.1-.26l6.14,0c2.13-2.82,5.22-4.7,7.73-7.14,2.88-2.82,5.48-5.91,8.16-8.91a68.34,68.34,0,0,0,0-9.81,4.68,4.68,0,0,0-2.16-2.94,11.47,11.47,0,0,0-2.71-2.72c-.77-1.28-1.8-1.48-3.16-1.46-1.82,0-3.64.06-5.47,0-1.17,0-3.32-.56-4.23.39q-1.75,1.82-3.56,3.59c.4-7.33.2-14.68.17-22a29.88,29.88,0,0,0,4.25,4.24c.59.87,2.32.4,3.18.35l4.35-.26c.71,0,1.42-.1,2.13-.11.56,0,1.2.47,1.73.22,1.14-.53,2.25-2,3.15-2.91,1.71-1.66,2.76-2.65,2.68-5.08,0-1.47-.11-2.94-.17-4.41s-.32-3,.19-4.31A33.33,33.33,0,0,0,398,14c-1.31-1.31-2.61-2.63-3.95-3.92L389,5.27c-1.73-1.65-2.8-2.59-5.25-2.77a56.73,56.73,0,0,0-6.52,0,14.29,14.29,0,0,0-3.21.15c-.91.27-1.77,1.62-2.4,2.29-3.21,3.36-6.44,6.69-9.76,9.94-1.31,1.28-3.23,2.43-3.44,4.35-.25,2.22.07,4.6,0,6.84-.12,6.9-.58,13.8-.6,20.71,0,3-.08,5.93.08,8.88s1,6.41.42,9.39C358.24,65.6,358.62,63.68,358.35,65.08Z"/><path class="af61afea-e901-4d5e-8cab-7d4699e06b5c" d="M386.09,51a3.5,3.5,0,0,0-.17.6c-.05.85-.08,1.69-.1,2.53-.05,1.8-.08,3.6-.13,5.39a11.91,11.91,0,0,1-.12,1.34c-.05.36-.41.66-.71.57a8.07,8.07,0,0,0-2.68-.15c-2.13,0-4.27.07-6.4.1-.34,0-.68,0-1,0a.83.83,0,0,1-.8-.73,6.57,6.57,0,0,1-.07-1.17c0-1.18.06-2.36.09-3.54.05-2,.05-3.94.16-5.9.31-5.78.48-15.59.29-21.38-.15-4.49-.1-9,.09-13.48,0-1,.43-1.38,1.46-1.47l.33,0c2.19-.15,4.37-.31,6.56-.44.73-.05,1.46-.06,2.19,0a1,1,0,0,1,.94,1c0,.39,0,.79,0,1.18,0,2.47,0,5,.08,7.42a1,1,0,0,0,.37,1c.29,0,.67,0,1.06,0,2.52-.14,5.05-.29,7.57-.45a4.44,4.44,0,0,0,.7-.15,8.94,8.94,0,0,0,.08-1c-.05-1.85-.11-3.7-.19-5.56a9.35,9.35,0,0,1,.15-2.84,11.13,11.13,0,0,0-1.82-2c-2.3-2.23-4.62-4.43-6.93-6.65-.24-.23-.5-.46-.75-.68a1.53,1.53,0,0,0-.91-.39c-1.4-.1-2.8-.3-4.2-.3a47.14,47.14,0,0,0-5,.27,4,4,0,0,0-2.53,1.14l-7.9,8.06c-.23.24-.44.5-.6.68,0,.62,0,1.13,0,1.63.09,2.92.12,5.84,0,8.76s-.38,5.94-.49,8.92c-.27,7.3-.25,18.63,0,25.93a3.17,3.17,0,0,0,.08.51c1.59,1.81,3.17,3.64,4.77,5.44s3.24,3.58,5,5.23c1.07,0,2.08.07,3.09.08,2.47,0,4.95,0,7.42.09a2,2,0,0,0,1.51-.58c.76-.75,1.57-1.45,2.3-2.23,2-2.15,3.92-4.33,5.91-6.47a3.77,3.77,0,0,0,1-2.24,18.93,18.93,0,0,0,.17-3.36c-.07-1.35-.17-2.69-.27-4a3.71,3.71,0,0,0-.13-.57,1.56,1.56,0,0,0-.39-.14q-4.21,0-8.43-.06a1.14,1.14,0,0,0-.51.18Z"/><path class="fdbfb581-5df5-4f02-ab09-28d24d8a8996" d="M360.08,62.94c.26-.07.33-.06.37-.1.78-.73,1.53-1.48,2.33-2.18a1.49,1.49,0,0,0,.54-1.34,4.07,4.07,0,0,1,0-.5c-.3-9-.21-22.1.3-31.12,0-.28,0-.56,0-.84.1-2.41.22-4.82.29-7.23,0-1.12,0-2.25-.06-3.37a1.76,1.76,0,0,0,0-.33.59.59,0,0,0-.15-.27c-.17-.13-.33,0-.45.1-.84.82-1.66,1.66-2.52,2.47a2.55,2.55,0,0,0-.8,2.1c.14,5.89-.09,11.78-.36,17.67a200.14,200.14,0,0,0,.37,23.87C360,62.19,360,62.51,360.08,62.94Z"/><path class="b9691cb5-a0bd-4274-aecb-8238fad10f4e" d="M364.28,61.18a21.44,21.44,0,0,0-3.41,3.21c-.29.32-.67.6-.71,1.09l3.14,3.27c1,1,2,2.15,3,3.18a36.35,36.35,0,0,0,3.08,3.24,1.33,1.33,0,0,0,.37-.16c1.12-1.17,2.25-2.35,3.36-3.53.07-.07.07-.2.13-.41-.95-1-2-2-3-3.11s-2-2.24-3-3.37S365.34,62.39,364.28,61.18Z"/><path class="b9691cb5-a0bd-4274-aecb-8238fad10f4e" d="M395,24.85a1.83,1.83,0,0,0-.42-.16c-2.46.12-4.92.23-7.37.38a13.86,13.86,0,0,0-1.63.26c-1.86,1.79-2.57,2.64-3,3.62a5.08,5.08,0,0,0,.64.08l7.37-.34a1.19,1.19,0,0,0,.33,0,2.2,2.2,0,0,0,.61-.26A32.84,32.84,0,0,0,395,24.85Z"/><path class="b9691cb5-a0bd-4274-aecb-8238fad10f4e" d="M380.15,75.37c1.17-1.05,2.3-2.05,3.41-3.07.08-.08.06-.27.1-.45-1.74,0-3.41,0-5.09-.09-1,0-2-.06-3-.09a1.47,1.47,0,0,0-1.2.46c-.86.88-1.73,1.75-2.58,2.64-.15.15-.32.33-.2.58A76.16,76.16,0,0,0,380.15,75.37Z"/><path class="fdbfb581-5df5-4f02-ab09-28d24d8a8996" d="M381.07,19.51c0,.24-.06.46-.07.68-.05,2.18-.11,4.36-.16,6.54a4.57,4.57,0,0,0,.05.83,1.51,1.51,0,0,0,.3.45c1.3-1.27,2.47-2.62,3.51-3.84V16.45a.66.66,0,0,0-.05-.32c0-.08-.2-.16-.27-.13a1.2,1.2,0,0,0-.39.29C383,17.32,382.11,18.36,381.07,19.51Z"/><path class="b9691cb5-a0bd-4274-aecb-8238fad10f4e" d="M383.42,14.56a7.13,7.13,0,0,0-1,0,39.89,39.89,0,0,1-5,.33c-1.53,0-1.63.07-1.61,1.59a4.12,4.12,0,0,0,.11,1.67c.14.06.28.19.43.2,1,0,2,.06,3,.07a2.11,2.11,0,0,0,1.64-.71c.78-.88,1.56-1.75,2.32-2.64C383.37,15,383.36,14.78,383.42,14.56Z"/><path class="fdbfb581-5df5-4f02-ab09-28d24d8a8996" d="M384.33,52.64a1.08,1.08,0,0,0-.27.09c-.38.33-.77.65-1.13,1-1.93,1.83-1.59,1-1.61,3.7a8.93,8.93,0,0,0,0,2.31,4.24,4.24,0,0,0,2.91-.06c.11-.86.29-5.59.24-6.68C384.51,52.9,384.42,52.81,384.33,52.64Z"/><path class="b28462c5-4e54-45dc-9a3b-30caecd2b06b" d="M144.08,77.12a5.29,5.29,0,0,0,1.36,1.35,5.33,5.33,0,0,0,1.36,1.36,5.45,5.45,0,0,0,1.35,1.36,5.37,5.37,0,0,0,1.37,1.36c.35.69,1.65.22,2.24.18.9,0,1.8,0,2.69,0,1.73,0,3.48,0,5.2-.07,1.5,0,2.21-.87,3.19-1.86,1.13-1.13,2.23-2.29,3.33-3.46s.57-3.47.61-4.83.1-2.65.11-4c0-5.48.27-10.91.07-16.39-.14-3.77,0-7.56,0-11.33,0-1.93-.06-3.85-.12-5.77,0-1,.43-4.32-.56-4.91a10,10,0,0,0-2.44-2.45,19.72,19.72,0,0,0-2.53-2.56h.14l5.41-5.15c.12-2.25.15-4.5.19-6.75,0-1.79.8-4.92-1.15-5.95a6.47,6.47,0,0,0-1.63-1.63,7.46,7.46,0,0,0-1.9-1.9c-1.13-1.88-3.2-1.56-5.1-1.56-2.35,0-4.71.08-7.06.07-1,0-1.48.7-2.08,1.37L145.5,6.41A5.3,5.3,0,0,0,144,8.61a11.6,11.6,0,0,0,.21,3.26c.11,1.13.18,2.27.2,3.41s-.38,2.6-.12,3.59a3.45,3.45,0,0,0,1.16,1.24A6.16,6.16,0,0,0,147,21.74a5.17,5.17,0,0,0,1.36,1.36,7,7,0,0,0,1.51,1.56c-1.73,1.53-3.79,2.67-5.47,4.22,0,8.64-.21,17.27-.19,25.9,0,3.39,0,6.77,0,10.15,0,2,0,4.1-.11,6.15,0,1.09-.14,2.17-.24,3.25-.06.64-.55,2.36.16,2.79C144.14,77.23,143.9,77,144.08,77.12Z"/><path class="af61afea-e901-4d5e-8cab-7d4699e06b5c" d="M151.26,70.71a4.31,4.31,0,0,0,.59.11l6.74-.08a5.69,5.69,0,0,0,.83,0,.49.49,0,0,0,.44-.44,3,3,0,0,0,.08-.67c0-2.07.3-4.14.16-6.22,0-.33,0-4.7.05-5a81.66,81.66,0,0,0,.18-8.57c-.17-4.1-.32-8.2-.19-12.29.12-3.66-.12-7.29-.21-10.94a3.57,3.57,0,0,0-.18-.75,60.26,60.26,0,0,0-7.8-.09,3.39,3.39,0,0,0-.61.21C151.27,39.43,151.11,57,151.26,70.71Z"/><path class="fdbfb581-5df5-4f02-ab09-28d24d8a8996" d="M149.92,27.06c-.19,0-.33,0-.4,0-1.06.74-2.11,1.49-3.16,2.24A.88.88,0,0,0,146,30c0,.39,0,.78-.05,1.17,0,5.45-.12,10.89-.14,16.33,0,5.05,0,14.13,0,19.18a46.58,46.58,0,0,1-.24,5.54c-.08.67-.09,1.35-.11,2a1.38,1.38,0,0,0,.16.42,24.93,24.93,0,0,0,4.11-3.8,23.08,23.08,0,0,0,.17-4c-.06-9.48,0-23,.09-32.47,0-2.08,0-4.15.05-6.23A10.49,10.49,0,0,0,149.92,27.06Z"/><path class="b9691cb5-a0bd-4274-aecb-8238fad10f4e" d="M155,75.73c1-1,2-1.89,2.89-2.79a1.66,1.66,0,0,0,.31-.39.32.32,0,0,0,0-.3.33.33,0,0,0-.25-.16l-6.39.1a6,6,0,0,0-.83.13,1.72,1.72,0,0,0-1,.51c-.84.83-1.68,1.65-2.51,2.49-.08.08,0,.28-.07.51Z"/><path class="af61afea-e901-4d5e-8cab-7d4699e06b5c" d="M150.93,12.86c.26.13.36.21.46.21,2.57.07,5.15.14,7.73.17.92,0,1.09-.2,1.1-1.08,0-2.36,0-4.71.05-7.06,0-.34,0-.68,0-1a.47.47,0,0,0-.43-.44,3.6,3.6,0,0,0-.66-.06h-7.07a5.79,5.79,0,0,0-.83.06.48.48,0,0,0-.44.44,9.08,9.08,0,0,0,0,1.17q0,3.11.11,6.22C150.89,11.93,150.91,12.38,150.93,12.86Z"/><path class="fdbfb581-5df5-4f02-ab09-28d24d8a8996" d="M149.54,13.55c.06-2.77,0-5.58-.08-8.39,0-.08-.1-.17-.19-.3-.13.06-.31.08-.41.18L146,8.13a1.82,1.82,0,0,0-.5,1.53c.26,2.24.38,4.48.43,6.73,0,.09.09.25.15.25a.68.68,0,0,0,.45-.08A23.84,23.84,0,0,0,149.54,13.55Z"/><path class="b9691cb5-a0bd-4274-aecb-8238fad10f4e" d="M146.92,18.05a6.5,6.5,0,0,0,.88.13l6.06.07a5.52,5.52,0,0,0,1,0,1.42,1.42,0,0,0,.76-.3c1-.93,2.07-1.89,3.08-2.85.09-.09.06-.3.08-.45-1.61-.13-7.38-.17-8.25-.06Z"/><path class="b28462c5-4e54-45dc-9a3b-30caecd2b06b" d="M-.11,75.54c0,.64.11.9.4,1.06A5.45,5.45,0,0,0,1.64,78,5.33,5.33,0,0,0,3,79.31a5,5,0,0,0,1.35,1.36,7.08,7.08,0,0,0,1.55,1.59c1.22.88,3.9.31,5.3.29a37.78,37.78,0,0,1,6.11,0c1.75-2,3.86-3.51,5.3-5.49C24.4,78.5,25.71,80.6,27.55,82c.78,1,3,.64,4.09.61,1.89,0,3.78-.16,5.68-.17,1.65,0,2.57-1.2,3.76-2.23.64-.55,1.29-1.1,1.91-1.67.46-.43,1.25-.46,1.42-1.15a20.67,20.67,0,0,0,.08-4.85l-.06-5.64c0-2.67,0-5.33,0-8-.06-6.07-.3-12.14-.27-18.21,0-3.53.16-7,.3-10.56.14-3.76-.67-7.52-.38-11.25l-.27-.24v0l-.27-.24v0l-.28-.24s0,0,0,0l-.28-.24v0l-.27-.25v0c-.09-.07-.18-.16-.27-.24v0L42.13,17v0l-.27-.24v0l-.28-.24v0l-.28-.24v0c-.09-.07-.18-.16-.27-.24v0l-.27-.24v0l-.27-.24v0l-.27-.24v0c-.1-.08-.18-.17-.28-.24v0l-.27-.25v0l-.27-.24v0L39.14,14v0l-.27-.24v0l-.27-.24v0c-.1-.08-.18-.17-.28-.24v0c-1.73-1.46-3.14-3.4-4.74-5h0l-.27-.27h0L33,7.58h0l-.27-.28h0L32.49,7h0l-.26-.27h0L32,6.5h0l-.27-.27h0L31.4,6h0l-.27-.28h0l-.27-.27h0l-.26-.27h0c-.09-.09-.17-.18-.27-.27h0L30,4.59h0l-.27-.28h0l-.27-.28h0l-.26-.27h0L29,3.51h0l-.27-.27h0L28.41,3h0l-.27-.28h0l-.27-.27c-1.59.74-3.82.08-5.5,0a45.24,45.24,0,0,0-6.05,0C13.84,5,11.16,7.38,8.69,10q-1,1-1.86,2c-.39.46-1,.36-1.35.87a21.85,21.85,0,0,1-2.73,3.38c-1,1-2.35,1.88-2.67,3.38A25.89,25.89,0,0,0,0,24.71c0,4-.06,8.09-.1,12.14q-.19,19.35,0,38.69C-.11,76.18-.14,73.3-.11,75.54Z"/><path class="fdbfb581-5df5-4f02-ab09-28d24d8a8996" d="M5.52,15.82a9.21,9.21,0,0,0-.71.59c-.73.71-1.42,1.45-2.17,2.13a3.4,3.4,0,0,0-1.13,2.68c-.05,8-.19,16-.23,23.93-.05,7.47,0,19,0,26.44,0,.9.09,1.8.16,2.69a.6.6,0,0,0,.24.37c.05,0,.23,0,.3-.07l4.21-3.64a1.85,1.85,0,0,0,.3-.45c0-.36,0-.75,0-1.15-.06-2.19-.13-4.38-.18-6.57C6.18,57.38,6.05,48,6,42.57c-.08-4.5-.08-9-.15-13.48C5.76,25,5.66,21,5.58,17,5.58,16.68,5.55,16.4,5.52,15.82Z"/><path class="fdbfb581-5df5-4f02-ab09-28d24d8a8996" d="M23.28,74.43a1.2,1.2,0,0,0,.38-.18c.88-.87,1.74-1.75,2.63-2.61a1.92,1.92,0,0,0,.57-1.51c-.1-4.09.29-12.2.37-16.29,0-1.91-.19-3.8-.26-5.7,0-.12-.16-.26-.29-.34s-.22,0-.3.1a28.6,28.6,0,0,0-3.23,3.38c0,.26,0,.48,0,.7.06,3,.12,10.08.18,13.1,0,.62,0,1.23,0,1.85-.06,2.29-.13,4.59-.19,6.88C23,74,23,74.26,23.28,74.43Z"/><path class="b9691cb5-a0bd-4274-aecb-8238fad10f4e" d="M15.07,71.76c-.2-.09-.25-.13-.3-.13-2.23,0-4.47,0-6.7,0a1.85,1.85,0,0,0-1.22.46Q5.07,73.66,3.29,75.2c-.08.07,0,.27-.08.49l7.44-.11a1.65,1.65,0,0,0,1.2-.51c1-.94,1.92-1.87,2.88-2.8A4,4,0,0,0,15.07,71.76Z"/><path class="b9691cb5-a0bd-4274-aecb-8238fad10f4e" d="M36.13,72.2c-.21-.09-.25-.13-.3-.13A73.72,73.72,0,0,0,28.25,72a1.42,1.42,0,0,0-1,.51L24.75,75a.55.55,0,0,0-.17.29.35.35,0,0,0,.13.27.66.66,0,0,0,.32.06l6.91-.08A1.65,1.65,0,0,0,33,75.13l2.81-2.42A2.9,2.9,0,0,0,36.13,72.2Z"/><path class="b9691cb5-a0bd-4274-aecb-8238fad10f4e" d="M22,50.51c1.06-1.12,2.11-2.21,3.14-3.31.08-.08,0-.28.05-.48-.51,0-1,0-1.4,0-1.18,0-2.36.08-3.54.09-2.67,0-2.41-.26-2.44,2.47,0,.23,0,.45,0,.67a.61.61,0,0,0,.63.65C19.61,50.59,20.78,50.54,22,50.51Z"/><path class="af61afea-e901-4d5e-8cab-7d4699e06b5c" d="M27.86,4.15c-.57,0-1.07,0-1.57,0-1.4-.09-2.8-.23-4.2-.31s-2.7-.1-4-.15a1.66,1.66,0,0,0-1.35.56c-.82.84-1.66,1.67-2.52,2.48-2,1.94-4,3.92-5.9,6C6.76,14.44,6.87,14,6.9,16.47c0,4,.15,8.09.21,12.13.08,5.62.13,11.23.21,16.85,0,3.37.14,10.77.23,14.14q.11,4.8.24,9.6a1.43,1.43,0,0,0,.23,1,1.22,1.22,0,0,0,.42.13c2.3,0,4.6,0,6.9-.08a.58.58,0,0,0,.64-.62c.08-1.68.17-3.36.22-5.05.13-4.26.23-12.56.35-16.83,0-.56,0-1.12.08-1.68a.66.66,0,0,1,.83-.63,13,13,0,0,0,3.35.11c1.8,0,3.59-.11,5.39-.16.33,0,.67,0,1,0,.64,0,.93.31,1,.92.07.84.08,1.68.15,2.52a126.48,126.48,0,0,1,0,13.63c-.17,2.41-.2,4.82-.22,7.24a1,1,0,0,0,.28.88c.17,0,.44.06.71.06,2.64,0,5.28-.06,7.91.14.52,0,.75-.18.75-.67s0-1,0-1.52a39.93,39.93,0,0,1,0-5.89,5,5,0,0,0,0-.67c0-1.63-.08-7.28-.11-8.91s0-3.15,0-4.72c-.14-4.38-.38-8.75-.29-13.14,0-.67,0-1.34,0-2,0-1.46.06-2.92.11-4.38.07-2.07.17-4.15.24-6.23.09-2.82-.38-5.6-.53-8.4a1.49,1.49,0,0,0-.56-1C35.41,12.11,34.23,11,33.11,9.8,31.37,8,29.67,6.1,27.86,4.15Zm0,16.32c0,3.24-.08,5.82.13,8.41.14,1.61,0,3.25,0,4.88,0,.45,0,.89,0,1.34a.75.75,0,0,1-.63.69c-.33,0-.67.05-1,.06-1.79,0-3.59,0-5.39.11-.78,0-1.56.16-2.34.21a2.3,2.3,0,0,0-1.48.68.54.54,0,0,1-.8-.33,2.74,2.74,0,0,1-.07-.5q0-.59,0-1.17c0-1.8.05-3.6.08-5.4,0-.62,0-1.24.11-1.85a44.68,44.68,0,0,0,0-9.25c-.11-1.17-.13-2.36-.17-3.54A.7.7,0,0,1,16.9,14a25,25,0,0,1,8.7-.46c.61.08,1.23.08,1.85.14a.67.67,0,0,1,.55.56c0,.5.05,1,0,1.51C28,17.53,27.91,19.33,27.87,20.47Z"/><path class="fdbfb581-5df5-4f02-ab09-28d24d8a8996" d="M26.47,34.5a4.5,4.5,0,0,0,.24-1c0-1.91.05-3.82-.07-5.72-.14-2.07-.13-4.14-.07-6.21.05-1.74.1-3.48.13-5.21,0-.13-.12-.26-.2-.43a3.61,3.61,0,0,0-.46.31c-.8.78-1.58,1.59-2.39,2.36A2.15,2.15,0,0,0,23,19.93c-.06.44-.08.89-.1,1.34s0,1.12,0,1.68c0,3.53-.05,7.06-.05,10.59a5,5,0,0,0,.18,1c.46,0,.85.05,1.24.05Z"/><path class="b9691cb5-a0bd-4274-aecb-8238fad10f4e" d="M21.78,18.67,24.47,16c.23-.24.46-.49.67-.75a.35.35,0,0,0,0-.3.37.37,0,0,0-.25-.17,19.92,19.92,0,0,0-5,0c-2.54.41-2.38,0-2.22,2.77,0,.12,0,.23,0,.34.06.64.22.82.8.82Z"/><path class="b28462c5-4e54-45dc-9a3b-30caecd2b06b" d="M267.38,76.25a2,2,0,0,0,.94,2A6,6,0,0,0,270,79.87a6,6,0,0,0,1.63,1.63,6.35,6.35,0,0,0,1.63,1.64c.27.53.8.31,1.23.15a9,9,0,0,1,2.38-.39c1.94-.15,3.87-.33,5.81-.48a4.43,4.43,0,0,0,1.84-.3c.5-.28.51-.87,1-1.2,1.43-1,2.71-2.32,4-3.46A19.63,19.63,0,0,0,292.05,80a8.85,8.85,0,0,0,2.63,2.55c1.6.35,3.56,0,5.18-.06a53.78,53.78,0,0,1,5.95-.14,47.73,47.73,0,0,1,5.35-5c.27-4.59,0-9.26-.05-13.86q-.08-7.2-.1-14.4c0-9.65,0-19.31-.07-29a3.47,3.47,0,0,0-1.2-2.72q-2.39-2.71-4.82-5.38c-1.84-2-3.72-4-5.69-5.95-1.12-1.17-2.33-2.26-3.44-3.45-1.31-1.4-3.52-.89-5.28-.89h-7.63c-3.17,0-6.35,0-9.52-.14A10.8,10.8,0,0,0,270.73,4c-1,1.06-2.3,2-3,3.21s-.49,2.67-.57,4c-.12,1.72-.15,3.44-.16,5.16,0,6.7.17,13.41.18,20.11s-.32,13.17,0,19.73.19,13.41.2,20.1Z"/><path class="af61afea-e901-4d5e-8cab-7d4699e06b5c" d="M274.51,3.27c0,.48-.08.81-.09,1.13-.11,4-.23,8.09-.32,12.14-.11,5.1-.19,10.22-.31,15.32-.07,3.09-.24,6.18-.29,9.27-.07,4.94-.1,9.89-.13,14.83,0,4.55,0,9.1,0,13.65,0,.44-.1.91.18,1.22a2.31,2.31,0,0,0,1.5.43c2.47-.09,4.94-.17,7.41-.27a.69.69,0,0,0,.74-.74c.18-3.25.4-6.5.49-9.76.12-4,.11-8,.16-12,0-1.24.06-2.47,0-3.71,0-2.47-.1-4.94-.1-7.42,0-7.63,0-15.27-.42-22.91,0-.27,0-.56,0-.84a1.51,1.51,0,0,1,1.54-1.44c.4,0,.79.07,1.18.07,2.8,0,5.61.37,8.4-.23a.72.72,0,0,1,.76.53c0,.11.06.22.07.33.07,1.79.23,3.59.19,5.38-.05,2.48-.28,4.94-.37,7.41s-.18,4.71-.16,7.07c.06,6.63.22,13.26.26,19.88,0,2.81-.18,5.62-.25,8.42s-.27,5.84-.54,8.75a1.61,1.61,0,0,0,0,.66.9.9,0,0,0,.43.45,1.6,1.6,0,0,0,.66.08l7.92,0a1,1,0,0,0,.84-.33,5.5,5.5,0,0,0,.09-1.74q0-9.35-.11-18.7-.06-15.34-.13-30.68c0-1.63-.05-3.26,0-4.88a2.23,2.23,0,0,0-.71-1.81,1.83,1.83,0,0,1-.21-.26c-2.45-2.71-4.89-5.42-7.35-8.12a5.56,5.56,0,0,0-1.49-1.32H275.5C275.22,3.16,275,3.22,274.51,3.27Z"/><path class="fdbfb581-5df5-4f02-ab09-28d24d8a8996" d="M272.05,72.2V70.48c0-4.27,0-8.54,0-12.8,0-7.3.09-14.6.32-21.89q.18-5.64.31-11.28c.09-3.76.16-7.52.23-11.28.06-2.86.12-5.73.17-8.59,0-.19.07-.47-.25-.52a.76.76,0,0,0-.28.16,21,21,0,0,1-3.07,3.11,1.81,1.81,0,0,0-.64,1.15,11,11,0,0,0-.13,1.51c-.07,1.46-.13,2.91-.17,4.37s-.1,2.81-.08,4.21c0,2.19.1,4.38.13,6.57.05,4.1.1,8.19.09,12.29,0,4.38-.1,8.76-.09,13.13,0,2.64.14,5.28.21,7.92,0,1.45.1,2.91.09,4.37,0,2.47-.1,4.94-.1,7.41,0,1.45.07,2.9.18,4.36C269.84,74.48,270.56,73.9,272.05,72.2Z"/><path class="fdbfb581-5df5-4f02-ab09-28d24d8a8996" d="M293,71.83c.34-3.93.63-7.74.7-11.55l0-.85c.06-1.45.19-2.91.19-4.37q0-8.67-.07-17.35c0-1-.1-2-.11-3,0-1.8-.07-3.59,0-5.38,0-2.08.16-4.16.25-6.23.05-.9.12-1.8.18-2.69a31.37,31.37,0,0,0,0-5.22.37.37,0,0,0-.19-.25.33.33,0,0,0-.29,0c-1,1-2,1.92-3.06,2.89a1.87,1.87,0,0,0-.59,1.67,36.41,36.41,0,0,1,0,5.72c-.21,5.94-.39,11.9-.39,17.85,0,5,0,10,.17,15,.16,3.87.07,7.74.1,11.62,0,1.46,0,2.92.08,4.38,0,.12.15.24.3.44C291.19,73.59,292.11,72.78,293,71.83Z"/><path class="b9691cb5-a0bd-4274-aecb-8238fad10f4e" d="M291.36,75.63a64.55,64.55,0,0,0,8.52-.39c.44-.38.88-.73,1.28-1.12s.79-.8,1.16-1.22c.09-.1.08-.29.12-.45-1.13-.1-7.2-.1-8.17,0l-2.72,2.67C291.48,75.19,291.47,75.32,291.36,75.63Z"/><path class="b9691cb5-a0bd-4274-aecb-8238fad10f4e" d="M285,18c1.34,0,2.65-.28,3.89-.31l2.58-2.54c.32-.31.67-.59,1-.92.08-.09.06-.28.09-.44l-7.6-.16c-.09,0-.19.11-.36.23.08,1.17.15,2.39.23,3.61A2.3,2.3,0,0,0,285,18Z"/><path class="b9691cb5-a0bd-4274-aecb-8238fad10f4e" d="M281,72.61c-.22-.13-.27-.18-.31-.18l-1.85,0-4.55.07a1.66,1.66,0,0,0-1.19.53c-.88.86-1.81,1.68-2.7,2.53-.08.08-.07.27-.12.49,2.39-.06,4.67-.37,7-.54a1.12,1.12,0,0,0,.62-.23A19.58,19.58,0,0,0,281,72.61Z"/><path class="b28462c5-4e54-45dc-9a3b-30caecd2b06b" d="M505.93,76.25a2,2,0,0,0,.93,2,6.32,6.32,0,0,0,1.63,1.63,6.32,6.32,0,0,0,1.63,1.63,6.35,6.35,0,0,0,1.63,1.64c.27.53.81.31,1.23.15a9.11,9.11,0,0,1,2.38-.39c1.94-.15,3.87-.33,5.81-.48a4.43,4.43,0,0,0,1.84-.3c.51-.28.51-.87,1-1.2,1.43-1,2.71-2.32,4-3.46A20.27,20.27,0,0,0,530.59,80a8.85,8.85,0,0,0,2.63,2.55c1.6.35,3.56,0,5.18-.06a53.91,53.91,0,0,1,6-.14,46.06,46.06,0,0,1,5.35-5c.26-4.59,0-9.26-.05-13.86q-.07-7.2-.11-14.4c0-9.65,0-19.31-.07-29a3.44,3.44,0,0,0-1.2-2.72q-2.38-2.71-4.82-5.38c-1.84-2-3.71-4-5.69-5.95-1.12-1.17-2.33-2.26-3.44-3.45-1.31-1.4-3.52-.89-5.28-.89h-7.63c-3.17,0-6.34,0-9.51-.14A10.67,10.67,0,0,0,509.27,4c-.95,1.06-2.3,2-3,3.21s-.49,2.67-.57,4c-.12,1.72-.15,3.44-.16,5.16,0,6.7.17,13.41.18,20.11s-.32,13.17,0,19.73.2,13.41.21,20.1C505.93,76.53,505.92,71.65,505.93,76.25Z"/><path class="af61afea-e901-4d5e-8cab-7d4699e06b5c" d="M513.05,3.27c0,.48-.08.81-.08,1.13-.11,4-.23,8.09-.33,12.14-.11,5.1-.19,10.22-.31,15.32-.07,3.09-.24,6.18-.28,9.27-.08,4.94-.11,9.89-.13,14.83,0,4.55,0,9.1,0,13.65,0,.44-.1.91.17,1.22a2.32,2.32,0,0,0,1.51.43L521,71a.68.68,0,0,0,.74-.74c.18-3.25.4-6.5.49-9.76.12-4,.11-8,.16-12,0-1.24.06-2.47.05-3.71,0-2.47-.1-4.94-.1-7.42,0-7.63,0-15.27-.42-22.91a7.82,7.82,0,0,1,0-.84,1.51,1.51,0,0,1,1.54-1.44c.39,0,.78.07,1.18.07,2.8,0,5.61.37,8.39-.23a.72.72,0,0,1,.76.53,1.3,1.3,0,0,1,.07.33c.08,1.79.23,3.59.2,5.38,0,2.48-.28,4.94-.38,7.41s-.18,4.71-.16,7.07c.06,6.63.22,13.26.26,19.88,0,2.81-.18,5.62-.25,8.42s-.27,5.84-.53,8.75a1.46,1.46,0,0,0,0,.66.9.9,0,0,0,.43.45,1.6,1.6,0,0,0,.66.08L542,71a1,1,0,0,0,.84-.33,5.5,5.5,0,0,0,.09-1.74q0-9.35-.1-18.7-.08-15.34-.14-30.68c0-1.63-.05-3.26,0-4.88a2.2,2.2,0,0,0-.71-1.81,1.83,1.83,0,0,1-.21-.26c-2.45-2.71-4.89-5.42-7.35-8.12A5.41,5.41,0,0,0,533,3.15H514C513.77,3.16,513.49,3.22,513.05,3.27Z"/><path class="fdbfb581-5df5-4f02-ab09-28d24d8a8996" d="M510.59,72.2V70.48c0-4.27,0-8.54,0-12.8,0-7.3.09-14.6.32-21.89q.18-5.64.31-11.28c.09-3.76.16-7.52.24-11.28.06-2.86.11-5.73.16-8.59,0-.19.07-.47-.25-.52a.76.76,0,0,0-.28.16A20.52,20.52,0,0,1,508,7.39a1.81,1.81,0,0,0-.64,1.15,11,11,0,0,0-.13,1.51c-.07,1.46-.13,2.91-.17,4.37s-.09,2.81-.08,4.21c0,2.19.11,4.38.13,6.57.05,4.1.1,8.19.1,12.29,0,4.38-.11,8.76-.09,13.13,0,2.64.13,5.28.21,7.92,0,1.45.09,2.91.08,4.37,0,2.47-.1,4.94-.1,7.41,0,1.45.08,2.9.19,4.36C508.38,74.48,509.1,73.9,510.59,72.2Z"/><path class="fdbfb581-5df5-4f02-ab09-28d24d8a8996" d="M531.53,71.83c.34-3.93.63-7.74.7-11.55,0-.29,0-.57,0-.85.06-1.45.18-2.91.18-4.37,0-5.78,0-11.57-.07-17.35,0-1-.1-2-.11-3,0-1.8-.07-3.59,0-5.38,0-2.08.16-4.16.25-6.23,0-.9.12-1.8.18-2.69a31.37,31.37,0,0,0,0-5.22.37.37,0,0,0-.19-.25.33.33,0,0,0-.29,0c-1,1-2,1.92-3,2.89a1.85,1.85,0,0,0-.6,1.67,35.24,35.24,0,0,1,0,5.72c-.2,5.94-.39,11.9-.39,17.85,0,5,0,10,.18,15,.15,3.87.07,7.74.09,11.62,0,1.46,0,2.92.08,4.38,0,.12.16.24.3.44C529.73,73.59,530.65,72.78,531.53,71.83Z"/><path class="b9691cb5-a0bd-4274-aecb-8238fad10f4e" d="M529.9,75.63a64.47,64.47,0,0,0,8.52-.39c.44-.38.88-.73,1.28-1.12s.79-.8,1.16-1.22c.09-.1.08-.29.12-.45-1.12-.1-7.2-.1-8.17,0l-2.72,2.67C530,75.19,530,75.32,529.9,75.63Z"/><path class="b9691cb5-a0bd-4274-aecb-8238fad10f4e" d="M523.58,18c1.34,0,2.65-.28,3.89-.31l2.58-2.54c.32-.31.67-.59,1-.92.09-.09.06-.28.09-.44l-7.6-.16c-.09,0-.18.11-.35.23.07,1.17.14,2.39.22,3.61A2.89,2.89,0,0,0,523.58,18Z"/><path class="b9691cb5-a0bd-4274-aecb-8238fad10f4e" d="M519.56,72.61c-.22-.13-.26-.18-.31-.18l-1.85,0-4.55.07a1.66,1.66,0,0,0-1.19.53c-.88.86-1.8,1.68-2.7,2.53-.08.08-.07.27-.12.49,2.39-.06,4.67-.37,7-.54a1.18,1.18,0,0,0,.63-.23A20,20,0,0,0,519.56,72.61Z"/><path class="b28462c5-4e54-45dc-9a3b-30caecd2b06b" d="M84.87,83.14c.57-.08,1.3.33,1.79.09a8.49,8.49,0,0,0,1.77-1.57,44.24,44.24,0,0,1,4-3.74c-.1-2.9-.22-5.84-.61-8.72-.17-1.27.21-2.48-1.16-3.21a9.17,9.17,0,0,0-2.44-2.45A8.18,8.18,0,0,0,86,61.37c-.43-.88-3.43-.43-4.23-.44L71.35,60.8c.13-3.41-.15-6.83-.09-10.25,0-3.88.2-7.76.2-11.64,0-7.7-.14-15.39-.24-23.09,0-1.62-.08-3.25-.15-4.87,0-1.36,0-2.26-1-3.22C69.19,6.8,68.25,5.87,67.32,5a33.53,33.53,0,0,0-2.93-2.91c-1-.84-3-.32-4.22-.29-1.93.05-3.86.12-5.77.33-3.35,3.23-3.5,3-5.78,6.18-.46,5.59-.77,11.1-.79,16.71,0,6-.09,11.93-.13,17.9S47.62,55,47.69,61q0,4.31.06,8.63v4.52c0,.65-.37,2.7.42,3.06a5.17,5.17,0,0,0,1.36,1.36A5.17,5.17,0,0,0,50.89,80a5,5,0,0,0,1.36,1.36,5.14,5.14,0,0,0,1.35,1.36c.35.68,1.88.4,2.45.4,1.35,0,2.71,0,4.06.06,2.71.06,5.42.16,8.14.21s5.44,0,8.16,0a61.23,61.23,0,0,0,8.46-.25Z"/><path class="af61afea-e901-4d5e-8cab-7d4699e06b5c" d="M64,3.15l-3.42.12-4,.12a2.47,2.47,0,0,0-.82.13A1.14,1.14,0,0,0,55.3,4a1.15,1.15,0,0,0-.08.49c-.1,2.25-.31,4.49-.29,6.74,0,4.54-.13,9.09.15,13.64.26,4.37.38,8.75.53,13.13.12,3.65.23,7.3.26,11,0,1.68-.13,3.36-.22,5-.16,2.52-.4,5-.47,7.57-.06,2.86,0,5.72,0,8.59a1.07,1.07,0,0,0,.26.87,2.74,2.74,0,0,0,1.06.08c1.63,0,3.26,0,4.88.11,2.41.18,4.82.29,7.24.29,1.46,0,2.92,0,4.38.06,3.87.19,7.75.1,11.62-.07a.87.87,0,0,0,.83-.38A16.7,16.7,0,0,0,85.43,68c-.11-1.23-.2-2.46-.29-3.69,0-.34,0-.67-.07-1a1.16,1.16,0,0,0-.52-.93c-.35,0-.8,0-1.24,0-1.46,0-2.92,0-4.38,0-4.83,0-9.65-.27-14.48,0-.35,0-.68-.35-.56-.66a12.08,12.08,0,0,0,.43-3.33c0-.11,0-.22,0-.33a48.49,48.49,0,0,0,.21-7.23c0-1.91,0-3.82,0-5.73,0-4.5.16-9,.16-13.48q0-8.67-.13-17.36c0-3.53-.22-7.07-.35-10.6A1.64,1.64,0,0,0,64,3.15Z"/><path class="fdbfb581-5df5-4f02-ab09-28d24d8a8996" d="M50.12,8.91c-.14,1.86-.23,3.71-.44,5.55a61.54,61.54,0,0,0-.32,6.22c0,3.76,0,7.52-.08,11.28,0,6.23-.09,12.46-.1,18.69,0,5.9,0,11.79,0,17.69,0,2,0,4,0,6.06,0,.26-.09.57.25.78a1.27,1.27,0,0,0,.4-.17l3.47-3.2a1.65,1.65,0,0,0,.57-1.34c0-1.68,0-3.37-.06-5A78.81,78.81,0,0,1,54.27,55a66,66,0,0,0,.29-7.57q-.2-7.16-.42-14.3c0-1.35-.14-2.69-.18-4-.11-3.92-.49-7.84-.28-11.78,0-.73,0-1.46,0-2.19a47.66,47.66,0,0,1,0-5.21c.09-1.4.1-2.81.14-4.21,0-.23,0-.45-.39-.48A16.54,16.54,0,0,0,50.12,8.91Z"/><path class="b9691cb5-a0bd-4274-aecb-8238fad10f4e" d="M51,76.12l1.08.06,4.88.14c6.62.19,13.25.26,19.88.12A21.16,21.16,0,0,0,81.18,76c.83-.83,1.75-1.74,2.64-2.67.09-.08.05-.29.07-.49h-1.4c-2,0-3.93.1-5.89.09-3,0-6.07-.08-9.1-.14-1.29,0-2.59,0-3.87-.13a66.29,66.29,0,0,0-6.9-.24c-.73,0-1.45,0-2.14.08l-3.48,3.28S51.08,75.86,51,76.12Z"/><path class="b28462c5-4e54-45dc-9a3b-30caecd2b06b" d="M132.72,83.14c.56-.08,1.3.33,1.78.09a8,8,0,0,0,1.77-1.57,44.24,44.24,0,0,1,4-3.74c-.1-2.9-.21-5.84-.6-8.72-.17-1.27.21-2.48-1.16-3.21a9.36,9.36,0,0,0-2.45-2.45,8.14,8.14,0,0,0-2.17-2.17c-.43-.88-3.44-.43-4.24-.44l-10.46-.13c.14-3.41-.14-6.83-.09-10.25.06-3.88.2-7.76.2-11.64,0-7.7-.13-15.39-.23-23.09,0-1.62-.09-3.25-.15-4.87-.06-1.36,0-2.26-1-3.22C117,6.8,116.09,5.87,115.16,5a34.86,34.86,0,0,0-2.92-2.91c-1-.84-3-.32-4.23-.29-1.92.05-3.85.12-5.77.33-3.34,3.23-3.5,3-5.78,6.18C96,13.92,95.7,19.43,95.68,25c0,6-.09,11.93-.14,17.9S95.46,55,95.53,61c0,2.87.06,5.75.06,8.63v4.52c0,.65-.36,2.7.42,3.06a5.17,5.17,0,0,0,1.36,1.36A5.33,5.33,0,0,0,98.73,80a5,5,0,0,0,1.36,1.36,5.33,5.33,0,0,0,1.36,1.36c.34.68,1.87.4,2.44.4,1.36,0,2.71,0,4.06.06,2.72.06,5.43.16,8.14.21s5.44,0,8.16,0a61.38,61.38,0,0,0,8.47-.25Z"/><path class="af61afea-e901-4d5e-8cab-7d4699e06b5c" d="M111.88,3.15l-3.42.12c-1.35,0-2.7.07-4,.12a2.53,2.53,0,0,0-.83.13,1.14,1.14,0,0,0-.45.45,1,1,0,0,0-.07.49c-.11,2.25-.31,4.49-.29,6.74,0,4.54-.13,9.09.14,13.64.27,4.37.38,8.75.53,13.13.12,3.65.23,7.3.27,11,0,1.68-.13,3.36-.23,5-.15,2.52-.4,5-.46,7.57-.07,2.86,0,5.72,0,8.59a1.11,1.11,0,0,0,.26.87,2.76,2.76,0,0,0,1.06.08c1.63,0,3.26,0,4.88.11,2.42.18,4.83.29,7.24.29,1.46,0,2.92,0,4.38.06,3.88.19,7.75.1,11.62-.07a.88.88,0,0,0,.84-.38,16.74,16.74,0,0,0-.08-3.06c-.1-1.23-.19-2.46-.29-3.69,0-.34,0-.67-.07-1a1.15,1.15,0,0,0-.51-.93c-.35,0-.8,0-1.25,0-1.46,0-2.92,0-4.38,0-4.82,0-9.65-.27-14.48,0-.34,0-.68-.35-.56-.66a12.08,12.08,0,0,0,.43-3.33c0-.11,0-.22,0-.33a47.18,47.18,0,0,0,.2-7.23c0-1.91,0-3.82,0-5.73,0-4.5.15-9,.16-13.48q0-8.67-.13-17.36c-.06-3.53-.23-7.07-.35-10.6A2.86,2.86,0,0,0,111.88,3.15Z"/><path class="fdbfb581-5df5-4f02-ab09-28d24d8a8996" d="M98,8.91c-.15,1.86-.23,3.71-.45,5.55a61.53,61.53,0,0,0-.31,6.22q0,5.64-.08,11.28c0,6.23-.09,12.46-.11,18.69,0,5.9,0,11.79,0,17.69,0,2,0,4,0,6.06,0,.26-.08.57.25.78a1.32,1.32,0,0,0,.41-.17c1.16-1.06,2.3-2.13,3.46-3.2a1.65,1.65,0,0,0,.57-1.34c0-1.68,0-3.37,0-5A78.8,78.8,0,0,1,102.11,55a63.79,63.79,0,0,0,.29-7.57c-.12-4.77-.27-9.54-.41-14.3,0-1.35-.15-2.69-.18-4-.11-3.92-.5-7.84-.28-11.78,0-.73,0-1.46,0-2.19a47.66,47.66,0,0,1,0-5.21c.09-1.4.1-2.81.14-4.21,0-.23,0-.45-.39-.48A16.51,16.51,0,0,0,98,8.91Z"/><path class="b9691cb5-a0bd-4274-aecb-8238fad10f4e" d="M98.87,76.12l1.08.06,4.88.14c6.63.19,13.26.26,19.88.12A21.25,21.25,0,0,0,129,76c.83-.83,1.74-1.74,2.64-2.67.08-.08,0-.29.06-.49h-1.39c-2,0-3.93.1-5.9.09-3,0-6.06-.08-9.09-.14-1.29,0-2.59,0-3.87-.13a66.39,66.39,0,0,0-6.91-.24c-.72,0-1.44,0-2.14.08L99,75.76S98.93,75.86,98.87,76.12Z"/><path class="b28462c5-4e54-45dc-9a3b-30caecd2b06b" d="M249.11,81.28c2.85-2.57,5.4-5.6,8-8.39,1.4-1.48,2.78-3,4.15-4.51s1.4-2.76,1.45-4.9c.17-8.48.24-17,.32-25.44,0-4,0-8,0-12,0-2.08.08-4.17.07-6.25a4.46,4.46,0,0,0-1.32-3.08c-1.94-2.47-4.3-4.55-6.47-6.81-2.52-2.63-5.19-5.1-7.91-7.53H235.56c-3.14,3-6.2,6.06-9.5,8.85-1.42,1.2-2.66,2.71-4,4-.93.91-2.64,2-2.54,3.48.6,9,.38,18.09.46,27.14.05,4.76.07,9.52-.16,14.28q-.09,1.71-.21,3.42a9,9,0,0,0-.15,2.73c.13.55,1.08,1.35,1.53,1.69a10.68,10.68,0,0,0,1.9,1.9,12.67,12.67,0,0,0,3.3,3.07c1.52.88,2.82,2.61,4,3.86s2.45,2.49,3.7,3.71a12.27,12.27,0,0,0,2.29,1.83c.95.53,2.19.32,3.24.32,2.21,0,4.43,0,6.64,0a3.7,3.7,0,0,0,3-1.34Z"/><path class="fdbfb581-5df5-4f02-ab09-28d24d8a8996" d="M221.23,63.86c.12,0,.27,0,.33,0,1-.86,1.91-1.73,2.84-2.62a1.46,1.46,0,0,0,.41-1.08c0-.67,0-1.34,0-2,0-9,0-18.08.06-27.12,0-4.16.12-8.31.18-12.46,0-1.13,0-2.25,0-3.37,0-.13-.13-.26-.23-.46-.31.26-.57.46-.81.69-.65.62-1.25,1.29-1.93,1.87a2.7,2.7,0,0,0-1.06,2.64,38.91,38.91,0,0,1,.31,4.7c.06,3.88.05,7.75.06,11.63s0,7.74.07,11.62c0,4.72,0,9.44-.31,14.14A5.74,5.74,0,0,0,221.23,63.86Z"/><path class="b9691cb5-a0bd-4274-aecb-8238fad10f4e" d="M221.29,66c1.15,1.09,2.19,2,3.18,3s1.92,2,2.9,3,1.77,1.72,2.67,2.57a11.34,11.34,0,0,0,.9.69,17.92,17.92,0,0,0,3.7-4c-.16-.2-.32-.42-.5-.63-1.87-2-3.73-4-5.62-6-.73-.77-1.53-1.48-2.31-2.2a.86.86,0,0,0-.9-.23C224.13,63.47,222.65,64.58,221.29,66Z"/><path class="b9691cb5-a0bd-4274-aecb-8238fad10f4e" d="M232.87,75.55a1.62,1.62,0,0,0,.44.17c2.52,0,5,0,7.55,0a1.86,1.86,0,0,0,1.38-.5A20,20,0,0,0,245,72.28c0-.06,0-.2-.05-.31a84.33,84.33,0,0,0-8.74-.1c-1,1-2,2.09-2.94,3.16A4.38,4.38,0,0,0,232.87,75.55Z"/><path class="af61afea-e901-4d5e-8cab-7d4699e06b5c" d="M226.59,12.74c-.09,1.6-.22,3.11-.24,4.63q-.1,7.83-.13,15.66-.06,13.39-.08,26.78c0,.33,0,.66.06,1A34,34,0,0,1,230.62,65q2.24,2.4,4.46,4.82a1.78,1.78,0,0,0,1.32.62c3.2.12,6.4.21,9.6.07a1.79,1.79,0,0,0,1.34-.57c1.82-1.91,3.66-3.8,5.48-5.71.85-.9,1.65-1.84,2.48-2.75a2.23,2.23,0,0,0,.61-1.52c.05-2.07.17-4.15.21-6.23.05-3.65.08-7.29.1-10.94,0-5.62,0-11.23.07-16.85,0-2.8.1-5.61.14-8.42,0-1.06,0-2.13.05-3.2a2.51,2.51,0,0,0-.57-1.71c-.72-.86-1.42-1.74-2.16-2.58A69.09,69.09,0,0,0,247.3,3.9a1.67,1.67,0,0,0-.35-.07l-10.11-.08a1.57,1.57,0,0,0-1.33.58c-.21.26-.46.5-.69.74a88.51,88.51,0,0,1-7.59,7.16Zm8.22,25.13c0-4.66,0-9.32,0-14,0-3.09.08-6.18.13-9.26a6.77,6.77,0,0,1,.06-1,1.46,1.46,0,0,1,1.62-1.35c2.92,0,5.83-.13,8.75,0,.5,0,1,0,1.51,0a.62.62,0,0,1,.55.54,8.42,8.42,0,0,1-.07,1A59,59,0,0,0,247,25.28c.1,1.39.1,2.8.11,4.2,0,4.78,0,9.55.1,14.32.08,3,.12,6.06,0,9.09-.07,2,0,4,0,6.06,0,.56,0,1.12,0,1.68a3.63,3.63,0,0,1-.2,1,.8.8,0,0,1-.74.59,4.26,4.26,0,0,1-.5,0c-3.26-.11-6.51.14-9.76.31a1.29,1.29,0,0,1-.34,0,.52.52,0,0,1-.47-.41,5.65,5.65,0,0,1-.1-1Q235,50,234.86,38.88v-1Z"/><path class="fdbfb581-5df5-4f02-ab09-28d24d8a8996" d="M245.84,60.79a5.77,5.77,0,0,0,.14-.85c0-.95,0-1.9,0-2.86a50.82,50.82,0,0,1,0-5.38,54,54,0,0,0,0-6.23c-.09-1.9-.17-3.81-.19-5.72,0-4.55,0-9.09-.08-13.64a89.38,89.38,0,0,1,0-9.26c0-.55.07-1.11.08-1.68,0-.13-.09-.27-.17-.49a2.66,2.66,0,0,0-.71.52c-.65.61-1.27,1.28-2,1.83a2.91,2.91,0,0,0-1.2,2.46c0,.51-.05,1-.06,1.52-.05,2-.06,3.92-.14,5.89-.19,4.38-.14,8.75-.07,13.13,0,1.91.18,3.81.2,5.72,0,4.6.06,9.21.1,13.81a7.87,7.87,0,0,0,0,.84,1.68,1.68,0,0,0,.18.38A14.71,14.71,0,0,0,245.84,60.79Z"/><path class="b9691cb5-a0bd-4274-aecb-8238fad10f4e" d="M244.44,13.62a68.67,68.67,0,0,0-7.59,0,1.52,1.52,0,0,0-.51.2,27.63,27.63,0,0,0-.19,3.16c0,.39.25.58.66.56l2.18-.14a5.83,5.83,0,0,0,1.94-.21c1-.93,2-1.92,3.1-2.93A4.49,4.49,0,0,0,244.44,13.62Z"/></svg>