<svg id="ba5e0e6d-37f8-4bce-814b-ef9d9c0150e0" data-name="圖層 1" xmlns="http://www.w3.org/2000/svg" xmlns:xlink="http://www.w3.org/1999/xlink" viewBox="0 0 468.58 66.51"><defs><style>.acb0da15-dda8-4c09-b07d-a116710ff102{fill:#c63c43;}.eca4c2f3-78f9-468f-aabc-b0fc2a0ee6b9{isolation:isolate;}.a21ec4bd-9e9b-4a53-a1fa-a36cac280f14{fill:#851e20;}.e9af34fc-2dc9-448d-ab4c-461aed333ca8{fill:#791c1c;}.a7c3bb57-832d-43f9-ae23-1969e542c194{fill:url(#fe73c780-7b9f-4db0-8cd6-6cbcc6302edb);}.b0cf6e02-7ebb-4b69-9d5c-70baba3b048b{fill:#932223;}.b0e5a60c-c648-4fdb-874e-a02d1493e0c0{fill:url(#adbbfd52-7d4c-424e-9f96-791c42785149);}.b726835c-c18b-423c-ba1f-fe4fe866b8af{fill:url(#e835d0da-c7db-4384-90f3-6836e3b318ba);}.b49441eb-42c0-4b73-a0fa-9802c01b3597{fill:url(#a0c03fcf-97e4-4616-a8f7-d184783fec10);}.a576b800-59b2-41b3-aa2a-3dd8c0227d77{fill:url(#ed5c20ca-4d50-4f7d-b730-69156168895a);}.af4deb9e-699f-4673-a843-4f5352e3bec8{fill:url(#b96dd213-9f03-4ad6-aeeb-b537e239b210);}.fcf4e9a8-d944-40dc-9baf-9969f3ae575c{fill:url(#a6653c2f-50ed-40c4-ae88-a748bb37561c);}.ad534c8c-035c-40f5-8e1f-8b3c1600014f{fill:#f3edde;}.bfbb4ff0-0aca-4a41-900e-16f2513bfdcd{fill:none;}.bedbc1bc-cc5b-4dea-ab06-38c4384486f2{fill:#22ada2;}.a71dcd24-0473-4448-a3c7-796762d09f50{fill:#13959d;}.e6da05b2-1184-481a-ba68-e80ead6e6abc{fill:#1e9f9d;}.a7f2ff35-f36c-4c30-a93a-4894b3098e91{fill:#36b6a6;}.b75b477a-a5b6-45bf-8f74-e7147f58fdf2{fill:#005980;}.a2526fea-9dd1-4a2e-8a82-4b4d18887935{fill:#12768b;}.fb9a6690-346e-4a02-81ff-24a2d18513dd{fill:#066786;}.b355a42a-5d33-447a-830b-a7122b3c05d5{fill:#138492;}.aca33783-b79f-4fa3-9c46-21eaa90809dd{fill:url(#b5c3edab-6fad-46d8-b5c7-a9099ebf42a7);}.a0530788-3ff3-464a-af03-0ceeae5b57a6{fill:url(#b0dbca7a-50ed-4215-81ea-e0cf842b6b43);}.b3dbcb97-a3b3-4f31-8791-e880d62a1afa{fill:url(#f651c6a7-971b-4016-8ee8-0bff8ea4b5f3);}.a2f3f830-7b0c-4748-86cb-d5825dbd8171{fill:url(#a2d0c60e-5f32-4597-b3ba-66312699619b);}.b499c98f-ed80-45f5-ba0b-407232ea5d76{fill:url(#bbfb5448-723d-44cb-a18b-a66ca25b34ad);}.a4d25f77-3150-48a3-8a48-38bd90a8c7cb{fill:url(#a6e0a3ed-d1d1-47e2-ba2f-dea351c641ac);}.e0134884-b0d3-44b0-9cb2-2c52390ff844{fill:url(#a80b50b1-5ef2-428b-b49b-86d5c7ee61df);}.fc5e6560-0bfc-4129-83d2-7636992f390e{fill:url(#ea61462f-cc55-4c19-b5aa-87aea12a38a0);}.a0f075ef-63bb-4dd4-b0c6-62e3160c0d6a{fill:url(#fd47f6d5-7235-4f9f-ac59-4ed3032b9287);}.be017e2a-8f9a-433a-855e-24440518fadf{fill:url(#b8a78e6c-e39d-4356-8a80-ff9eda632f77);}.b6302f18-a0f5-49d8-95d4-260510aed302{fill:url(#b1ae6646-66e4-47c6-81ac-04371060b2b0);}.fd4cc8a8-911e-4a91-b95e-4cd8765a9993{fill:url(#a1eb25ac-18a1-4f14-a954-5ee8d7b77222);}.af360a49-2a4b-4bb1-8a72-845f02945bdb{fill:url(#ee243a89-2112-4c81-99b2-70e95230d9f1);}.a1d38f20-e0d8-445f-8d83-4dab8499df4f{fill:url(#e0fb3c89-ea3b-4d69-b416-bcc7908d5186);}.b691a06f-bc81-4017-b95a-b4e85f24f560{fill:url(#bcc2953a-c4bc-46e9-8afa-75836a855cb4);}.e185e930-39b7-4cc9-b695-02e2e9f839cb{fill:url(#aa80782c-8b54-4377-9d89-f2e50ebc4764);}.e5c00461-5603-4c9c-8051-cf0b4eefcab2{fill:url(#a42b6a49-08b3-4be3-8856-6b696a05b2b4);}.ea91e06b-4522-4ab1-b2ef-4a12d3543123{fill:url(#f4e76df2-821f-46f4-9ac8-7d718ffbd7d1);}.b776163b-6693-4fe0-beba-ed734db097f2{fill:url(#be0e8be2-d191-4eef-9572-190a44c22a1c);}.e91ef7e7-3ff1-4e9f-9a6d-a32e301bbf11{fill:url(#a2c75c1b-a749-47b5-8c08-da62c5fccd65);}.ede2e273-5b22-46cd-b997-89b6ce83ec37{fill:url(#b1646435-b24a-42fe-8cdb-01bf2d7e0091);}.a755d6a4-54f0-4d99-9063-96f63015b91b{fill:url(#bad6723c-f341-4d44-b4b9-95453c20ac15);}.a3155f8d-21bf-4c7e-a5bf-45873f74227e{fill:url(#e318163f-c067-47f8-ad7c-773217928609);}.fefd6105-d4ec-42d1-84f6-d99ac8bc8257{fill:url(#ae465411-8633-4726-a0de-1548c2f72a8c);}.be3fe16d-fb54-49d1-85df-d8b796cd6c87{fill:url(#bb20579f-03d5-49bc-bfa6-53fb5e61650b);}.b3dcc797-cd41-4a13-9ff0-d0aa7fb18159{fill:url(#a9183dbb-ae49-41d5-866a-a57bc2d265e3);}.af5bcc7f-42c4-4205-ab72-aee4a3fcd7bb{fill:url(#f2fd89aa-7f9f-4e99-a817-690aa5e3b566);}.ae430597-8319-4bcc-800d-1036c0160db1{fill:url(#a97a07e0-4928-4030-977e-aa63b9dc5e8f);}.fd8cb200-775a-4e97-9342-639923a60e8f{fill:url(#adebc7da-2db9-443e-bb18-6c02ede32dd1);}.a7a41aae-ffc6-4b16-a482-622f868e5c25{fill:url(#f520faa7-68bb-48e1-bbfb-3bc54d54dcc8);}.a115f278-49b8-47cf-849f-346af0f859c3{fill:url(#b8dd0f73-4dea-4c24-bc68-e89511640764);}.fe97b345-550f-4e02-9593-33a2a012549e{fill:url(#e75d1516-3c33-47bf-995d-3d1d08f971d7);}.af19a8cb-b133-4d37-bb8d-6103c6e32524{fill:url(#fce48dd2-aef3-49fa-b27f-16e0f31df6d3);}.b4a48fa6-b59d-475e-8e3a-bfd9ecf6739f{fill:url(#b8552986-0e4f-47ff-bb5b-a07008ada15b);}.f14bb881-de39-47ca-b2be-1882a9a6d5f0{fill:url(#ac3fe346-b242-4458-aa17-860cb558787d);}.b383eeb7-ef22-4cd5-98d2-ade066c90c41{fill:url(#a7ecf50e-4e71-443a-9d0f-322abbb7d78d);}.eb76870b-0554-498e-95ae-a66bd4f969ca{fill:url(#b70ea52c-e089-400b-ad5e-b4cccb2e1b48);}.a9c01253-87ba-4f33-865b-a8a22a909302{fill:url(#a09ebcec-5e76-4a78-9cf6-bdc558587a36);}.ab451b39-82bc-4f0a-852b-b1921a17cf3d{fill:url(#ec9e2a2c-8178-465b-a4ba-323baed20930);}.e5cff280-2bb9-403b-9aa1-04f821827fb1{fill:url(#a64f90fa-d59f-4c8a-8880-5e15df462066);}.a25b8523-1fe4-42e9-8bd2-387f5339fdba{fill:url(#a44157a6-eb44-4074-a3ed-5680ea4f8d08);}.eec8ba18-3689-4b98-9bc5-46ab193fd88a{fill:url(#bff90196-f5ae-4eb1-b3f2-92de05964017);}.a400fecc-1954-437f-9039-7c79acbfeb21{fill:url(#f2e77e71-6113-4c78-8622-2636bdd9c8d7);}.a5be6929-cea2-4890-b03b-4e30699d7433{fill:url(#b9e86412-c43e-4be1-8864-527c0d55e0ff);}.bfac4e58-1ad4-4257-b0de-afc05f1c32e5{fill:url(#ad6096ec-ff20-4545-8322-14204de4df77);}.a7527a9b-961c-4000-972c-b960f9175547{fill:url(#ecb456ed-002f-4604-91df-c3d0e14c32bd);}.a91932ff-6f25-4d4b-a59e-63d22c7de9e7{fill:url(#a014d657-fdc5-4919-8515-ccde16bad442);}.b8f376bd-86c5-4dd3-ad97-5665dbbc7116{fill:url(#e5908854-5307-4b2d-8af4-db2f8a0d1648);}.ae0b4a42-5af6-48ab-bec3-dc76374cd7a5{fill:url(#ae657f62-6b9e-406a-b4b4-e12083afd7df);}.b5da4864-58b3-4a6b-837d-1d52e4e430d7{fill:url(#fbc21016-9370-4bd7-90e4-494c521d981c);}.a24c69e5-0909-4f71-8154-c2ee3d4e612d{fill:url(#bdc11f59-3dc8-4415-ae36-9984c8859e58);}.b89d13cd-d1cd-4993-a44a-85b32cafbfb7{fill:url(#b466059a-b69c-4aeb-ba09-d2133079bea4);}.e43cb1dc-f41a-4301-abe6-d13004f557a1{fill:url(#b8c68008-504d-4eef-83ca-4c324226e040);}.add899e7-c768-498b-883a-c543b09b47c7{fill:url(#bcb23bbd-a3ee-48c0-a795-3c953a777140);}.f340d429-eced-4363-9489-8b00795798b0{fill:url(#b4d1afbd-b9bd-449a-9774-30d321530cbc);}.accafc62-7ac4-428e-a64e-e9766db7f38c{fill:url(#a7b42ef3-d6e6-4f65-bb70-7a0c01f1e400);}.a2d501ae-fca3-4e7c-b920-3294c56b1546{fill:url(#a298205d-c06d-4e5d-9be8-be6771c7e56c);}.f16c5262-58de-4d88-aed8-f6d48e1947d4{fill:url(#be352d0b-ff0b-4a3e-999b-1d9025fec6b8);}.f49c2a2a-e05d-4b26-b83e-51075b64cb09{fill:url(#f29b8954-21a4-46e1-87ed-5f53a83b0c47);}.ad7a030e-8bc2-48f9-bcd8-bb3babdff8a2{fill:url(#b4dd8af8-4ef5-4572-8cef-58198768c4b5);}.a52847c3-0e96-4208-a783-bf283a75c3a1{fill:url(#aaffd0ae-ed9a-47e0-91eb-83b15d65565c);}.e0a82f69-9567-4d01-b5fb-5c6e1efd6529{fill:url(#e7b7ab99-8739-47f4-a486-195fb8e56cde);}.ed42c0f6-ffa2-406f-b8ac-4323a64488f1{fill:url(#bd1c04a8-2cd2-417c-bb82-5d8088de7ccd);}.bed9cc7d-f863-4cfa-9fbc-11e77bd1251b{fill:url(#b22f4242-c664-47df-8ef6-2d4c50770770);}.a7d1c293-da8f-4ae9-a2ee-3e6f320731a4{fill:url(#a5dda224-8a64-4e77-94b8-df13eff412bb);}.b5c64700-4008-4b78-9c56-0ce3c43da4dd{fill:url(#ebe02e3f-99e9-4e0d-ad38-b247e6d744b9);}.a5b6bee6-e281-4863-8e1d-66a8c1849c8b{fill:url(#a75e0242-290d-4853-9211-745b984218aa);}.e879870e-7e1c-45d8-afdb-6d53c8271419{fill:url(#b0295c54-0b0c-48e9-990f-bb20d8c06442);}.b7551031-99b0-4465-8657-258a8a6ae522{fill:url(#f5941068-55a0-4dd5-857b-f78653dde420);}.fcd86e70-8545-4bb5-995d-242930eb3cd1{fill:url(#a0dca9fb-d603-4bec-9918-565f4a27aebb);}.b1940dd1-c30e-4323-827a-6b40b2846830{fill:url(#fd0f51c4-e181-49e7-9494-b7cc5fef41e6);}.aa8b39a5-cd68-4c29-a876-fcbca05e691f{fill:url(#e5b1939c-19cf-45c8-8947-1100afb765c2);}.abaf50d9-bf08-4dfe-b0d4-19aef361f760{fill:url(#a1e333ee-e663-4f79-8b86-59fa58724c99);}.fd3c7c2d-39e4-43e9-8397-c7d466b276ae{fill:url(#a64c440f-0c4b-4ead-9957-7ab5449bcd0d);}.e5e64133-2214-4112-8d8c-df26058d648b{fill:url(#f8f0da3f-f019-4d3b-97de-cb00e778f1f1);}.fc5777e8-e3dd-4cd0-bfb7-6c0324b0aa31{fill:url(#f50832fe-8078-4df1-a34e-2cbbbdcf86da);}.e7733997-a2f9-4e86-b57d-ba0282496579{fill:url(#e52e9a06-80ef-4d09-9208-fb999bd90f14);}.f98bc251-d0b9-40e7-909e-a4709975fcfd{fill:url(#ba6b8f81-2bc6-4a6b-94e1-9a1fa526b56c);}.ba334b78-81d3-40b9-bde2-edb85c2b16d4{fill:url(#e7b7473b-c5d0-4474-a10a-52aeb7584d9f);}.fab45b7e-aa90-4795-9fe1-b2a0fe04be85{fill:url(#abe841df-ce80-436e-b31a-0184e0383c83);}.f513d96f-b16f-4e4d-85e5-adab4f08bab0{fill:url(#a737cf89-bc68-46cd-91ae-229f1642aa51);}</style><linearGradient id="fe73c780-7b9f-4db0-8cd6-6cbcc6302edb" x1="33.66" y1="10.64" x2="33.94" y2="10.35" gradientUnits="userSpaceOnUse"><stop offset="0" stop-color="#932223"/><stop offset="1" stop-color="#ae313b"/></linearGradient><linearGradient id="adbbfd52-7d4c-424e-9f96-791c42785149" x1="1.85" y1="62.42" x2="2.13" y2="62.13" gradientUnits="userSpaceOnUse"><stop offset="0" stop-color="#ae313b"/><stop offset="1" stop-color="#7b1d1d"/></linearGradient><linearGradient id="e835d0da-c7db-4384-90f3-6836e3b318ba" x1="15.11" y1="53.79" x2="15.4" y2="53.5" xlink:href="#fe73c780-7b9f-4db0-8cd6-6cbcc6302edb"/><linearGradient id="a0c03fcf-97e4-4616-a8f7-d184783fec10" x1="14.21" y1="62.62" x2="15.6" y2="61.23" gradientUnits="userSpaceOnUse"><stop offset="0" stop-color="#791c1c"/><stop offset="1" stop-color="#932223"/></linearGradient><linearGradient id="ed5c20ca-4d50-4f7d-b730-69156168895a" x1="22.7" y1="62.42" x2="22.99" y2="62.13" xlink:href="#adbbfd52-7d4c-424e-9f96-791c42785149"/><linearGradient id="b96dd213-9f03-4ad6-aeeb-b537e239b210" x1="35.97" y1="53.79" x2="36.26" y2="53.5" xlink:href="#fe73c780-7b9f-4db0-8cd6-6cbcc6302edb"/><linearGradient id="a6653c2f-50ed-40c4-ae88-a748bb37561c" x1="35.07" y1="62.62" x2="36.46" y2="61.23" xlink:href="#a0c03fcf-97e4-4616-a8f7-d184783fec10"/><linearGradient id="b5c3edab-6fad-46d8-b5c7-a9099ebf42a7" x1="333.56" y1="10.64" x2="333.85" y2="10.35" xlink:href="#fe73c780-7b9f-4db0-8cd6-6cbcc6302edb"/><linearGradient id="b0dbca7a-50ed-4215-81ea-e0cf842b6b43" x1="324.93" y1="21.86" x2="325.22" y2="21.58" xlink:href="#adbbfd52-7d4c-424e-9f96-791c42785149"/><linearGradient id="f651c6a7-971b-4016-8ee8-0bff8ea4b5f3" x1="332.66" y1="22.07" x2="334.05" y2="20.68" xlink:href="#a0c03fcf-97e4-4616-a8f7-d184783fec10"/><linearGradient id="a2d0c60e-5f32-4597-b3ba-66312699619b" x1="311.9" y1="62.42" x2="312.19" y2="62.13" xlink:href="#adbbfd52-7d4c-424e-9f96-791c42785149"/><linearGradient id="bbfb5448-723d-44cb-a18b-a66ca25b34ad" x1="333.56" y1="43.36" x2="333.85" y2="43.07" xlink:href="#fe73c780-7b9f-4db0-8cd6-6cbcc6302edb"/><linearGradient id="a6e0a3ed-d1d1-47e2-ba2f-dea351c641ac" x1="324.83" y1="62.62" x2="325.52" y2="61.93" gradientUnits="userSpaceOnUse"><stop offset="0" stop-color="#791c1c"/><stop offset="1" stop-color="#851e20"/></linearGradient><linearGradient id="a80b50b1-5ef2-428b-b49b-86d5c7ee61df" x1="333.35" y1="54.1" x2="334.05" y2="53.4" gradientUnits="userSpaceOnUse"><stop offset="0" stop-color="#851e20"/><stop offset="1" stop-color="#932223"/></linearGradient><linearGradient id="ea61462f-cc55-4c19-b5aa-87aea12a38a0" x1="388.02" y1="11.44" x2="388.3" y2="11.15" xlink:href="#adbbfd52-7d4c-424e-9f96-791c42785149"/><linearGradient id="fd47f6d5-7235-4f9f-ac59-4ed3032b9287" x1="419.82" y1="2.81" x2="420.11" y2="2.52" xlink:href="#fe73c780-7b9f-4db0-8cd6-6cbcc6302edb"/><linearGradient id="b8a78e6c-e39d-4356-8a80-ff9eda632f77" x1="411.19" y1="13.75" x2="411.48" y2="13.47" xlink:href="#adbbfd52-7d4c-424e-9f96-791c42785149"/><linearGradient id="b1ae6646-66e4-47c6-81ac-04371060b2b0" x1="418.92" y1="13.96" x2="420.31" y2="12.57" xlink:href="#a0c03fcf-97e4-4616-a8f7-d184783fec10"/><linearGradient id="a1eb25ac-18a1-4f14-a954-5ee8d7b77222" x1="412.86" y1="25.98" x2="413.15" y2="25.69" xlink:href="#fe73c780-7b9f-4db0-8cd6-6cbcc6302edb"/><linearGradient id="ee243a89-2112-4c81-99b2-70e95230d9f1" x1="404.23" y1="39.24" x2="404.52" y2="38.96" xlink:href="#adbbfd52-7d4c-424e-9f96-791c42785149"/><linearGradient id="e0fb3c89-ea3b-4d69-b416-bcc7908d5186" x1="388.01" y1="62.42" x2="388.3" y2="62.13" xlink:href="#adbbfd52-7d4c-424e-9f96-791c42785149"/><linearGradient id="bcc2953a-c4bc-46e9-8afa-75836a855cb4" x1="411.96" y1="39.45" x2="413.35" y2="38.06" xlink:href="#a0c03fcf-97e4-4616-a8f7-d184783fec10"/><linearGradient id="aa80782c-8b54-4377-9d89-f2e50ebc4764" x1="419.81" y1="51.47" x2="420.1" y2="51.18" xlink:href="#fe73c780-7b9f-4db0-8cd6-6cbcc6302edb"/><linearGradient id="a42b6a49-08b3-4be3-8856-6b696a05b2b4" x1="418.91" y1="62.62" x2="420.3" y2="61.23" xlink:href="#a0c03fcf-97e4-4616-a8f7-d184783fec10"/><linearGradient id="f4e76df2-821f-46f4-9ac8-7d718ffbd7d1" x1="344.31" y1="11.44" x2="344.6" y2="11.15" xlink:href="#adbbfd52-7d4c-424e-9f96-791c42785149"/><linearGradient id="be0e8be2-d191-4eef-9572-190a44c22a1c" x1="357.58" y1="2.81" x2="357.86" y2="2.52" xlink:href="#fe73c780-7b9f-4db0-8cd6-6cbcc6302edb"/><linearGradient id="a2c75c1b-a749-47b5-8c08-da62c5fccd65" x1="356.68" y1="11.64" x2="358.07" y2="10.25" xlink:href="#a0c03fcf-97e4-4616-a8f7-d184783fec10"/><linearGradient id="b1646435-b24a-42fe-8cdb-01bf2d7e0091" x1="365.17" y1="11.44" x2="365.45" y2="11.15" xlink:href="#adbbfd52-7d4c-424e-9f96-791c42785149"/><linearGradient id="bad6723c-f341-4d44-b4b9-95453c20ac15" x1="378.43" y1="2.81" x2="378.72" y2="2.52" xlink:href="#fe73c780-7b9f-4db0-8cd6-6cbcc6302edb"/><linearGradient id="e318163f-c067-47f8-ad7c-773217928609" x1="377.53" y1="11.64" x2="378.92" y2="10.25" xlink:href="#a0c03fcf-97e4-4616-a8f7-d184783fec10"/><linearGradient id="ae465411-8633-4726-a0de-1548c2f72a8c" x1="344.3" y1="62.42" x2="344.59" y2="62.13" xlink:href="#adbbfd52-7d4c-424e-9f96-791c42785149"/><linearGradient id="bb20579f-03d5-49bc-bfa6-53fb5e61650b" x1="357.57" y1="53.79" x2="357.86" y2="53.5" xlink:href="#fe73c780-7b9f-4db0-8cd6-6cbcc6302edb"/><linearGradient id="a9183dbb-ae49-41d5-866a-a57bc2d265e3" x1="356.67" y1="62.62" x2="358.06" y2="61.23" xlink:href="#a0c03fcf-97e4-4616-a8f7-d184783fec10"/><linearGradient id="f2fd89aa-7f9f-4e99-a817-690aa5e3b566" x1="365.16" y1="62.42" x2="365.44" y2="62.13" xlink:href="#adbbfd52-7d4c-424e-9f96-791c42785149"/><linearGradient id="a97a07e0-4928-4030-977e-aa63b9dc5e8f" x1="378.42" y1="53.79" x2="378.71" y2="53.5" xlink:href="#fe73c780-7b9f-4db0-8cd6-6cbcc6302edb"/><linearGradient id="adebc7da-2db9-443e-bb18-6c02ede32dd1" x1="377.52" y1="62.62" x2="378.91" y2="61.23" xlink:href="#a0c03fcf-97e4-4616-a8f7-d184783fec10"/><linearGradient id="f520faa7-68bb-48e1-bbfb-3bc54d54dcc8" x1="125.08" y1="11.44" x2="125.37" y2="11.15" xlink:href="#adbbfd52-7d4c-424e-9f96-791c42785149"/><linearGradient id="b8dd0f73-4dea-4c24-bc68-e89511640764" x1="138.35" y1="2.81" x2="138.64" y2="2.52" xlink:href="#fe73c780-7b9f-4db0-8cd6-6cbcc6302edb"/><linearGradient id="e75d1516-3c33-47bf-995d-3d1d08f971d7" x1="137.45" y1="11.64" x2="138.84" y2="10.25" xlink:href="#a0c03fcf-97e4-4616-a8f7-d184783fec10"/><linearGradient id="fce48dd2-aef3-49fa-b27f-16e0f31df6d3" x1="125.07" y1="62.42" x2="125.36" y2="62.13" xlink:href="#adbbfd52-7d4c-424e-9f96-791c42785149"/><linearGradient id="b8552986-0e4f-47ff-bb5b-a07008ada15b" x1="138.34" y1="53.79" x2="138.63" y2="53.5" xlink:href="#fe73c780-7b9f-4db0-8cd6-6cbcc6302edb"/><linearGradient id="ac3fe346-b242-4458-aa17-860cb558787d" x1="137.44" y1="62.62" x2="138.83" y2="61.23" xlink:href="#a0c03fcf-97e4-4616-a8f7-d184783fec10"/><linearGradient id="a7ecf50e-4e71-443a-9d0f-322abbb7d78d" x1="44.91" y1="11.44" x2="45.2" y2="11.15" xlink:href="#adbbfd52-7d4c-424e-9f96-791c42785149"/><linearGradient id="b70ea52c-e089-400b-ad5e-b4cccb2e1b48" x1="58.18" y1="2.81" x2="58.46" y2="2.52" xlink:href="#fe73c780-7b9f-4db0-8cd6-6cbcc6302edb"/><linearGradient id="a09ebcec-5e76-4a78-9cf6-bdc558587a36" x1="57.28" y1="11.64" x2="58.67" y2="10.25" xlink:href="#a0c03fcf-97e4-4616-a8f7-d184783fec10"/><linearGradient id="ec9e2a2c-8178-465b-a4ba-323baed20930" x1="44.9" y1="62.42" x2="45.19" y2="62.13" xlink:href="#adbbfd52-7d4c-424e-9f96-791c42785149"/><linearGradient id="a64f90fa-d59f-4c8a-8880-5e15df462066" x1="76.71" y1="51.47" x2="76.99" y2="51.18" xlink:href="#fe73c780-7b9f-4db0-8cd6-6cbcc6302edb"/><linearGradient id="a44157a6-eb44-4074-a3ed-5680ea4f8d08" x1="75.8" y1="62.62" x2="77.2" y2="61.23" xlink:href="#a0c03fcf-97e4-4616-a8f7-d184783fec10"/><linearGradient id="bff90196-f5ae-4eb1-b3f2-92de05964017" x1="84.7" y1="11.44" x2="84.99" y2="11.15" xlink:href="#adbbfd52-7d4c-424e-9f96-791c42785149"/><linearGradient id="f2e77e71-6113-4c78-8622-2636bdd9c8d7" x1="97.96" y1="2.81" x2="98.25" y2="2.52" xlink:href="#fe73c780-7b9f-4db0-8cd6-6cbcc6302edb"/><linearGradient id="b9e86412-c43e-4be1-8864-527c0d55e0ff" x1="97.06" y1="11.64" x2="98.45" y2="10.25" xlink:href="#a0c03fcf-97e4-4616-a8f7-d184783fec10"/><linearGradient id="ad6096ec-ff20-4545-8322-14204de4df77" x1="84.69" y1="62.42" x2="84.98" y2="62.13" xlink:href="#adbbfd52-7d4c-424e-9f96-791c42785149"/><linearGradient id="ecb456ed-002f-4604-91df-c3d0e14c32bd" x1="116.49" y1="51.47" x2="116.78" y2="51.18" xlink:href="#fe73c780-7b9f-4db0-8cd6-6cbcc6302edb"/><linearGradient id="a014d657-fdc5-4919-8515-ccde16bad442" x1="115.59" y1="62.62" x2="116.98" y2="61.23" xlink:href="#a0c03fcf-97e4-4616-a8f7-d184783fec10"/><linearGradient id="e5908854-5307-4b2d-8af4-db2f8a0d1648" x1="228.16" y1="11.44" x2="228.44" y2="11.15" xlink:href="#adbbfd52-7d4c-424e-9f96-791c42785149"/><linearGradient id="ae657f62-6b9e-406a-b4b4-e12083afd7df" x1="240.49" y1="2.49" x2="240.59" y2="2.39" xlink:href="#fe73c780-7b9f-4db0-8cd6-6cbcc6302edb"/><linearGradient id="fbc21016-9370-4bd7-90e4-494c521d981c" x1="249.01" y1="11.44" x2="249.3" y2="11.15" xlink:href="#adbbfd52-7d4c-424e-9f96-791c42785149"/><linearGradient id="bdc11f59-3dc8-4415-ae36-9984c8859e58" x1="262.28" y1="2.81" x2="262.57" y2="2.52" xlink:href="#fe73c780-7b9f-4db0-8cd6-6cbcc6302edb"/><linearGradient id="b466059a-b69c-4aeb-ba09-d2133079bea4" x1="261.38" y1="11.64" x2="262.77" y2="10.25" xlink:href="#a0c03fcf-97e4-4616-a8f7-d184783fec10"/><linearGradient id="b8c68008-504d-4eef-83ca-4c324226e040" x1="228.15" y1="62.42" x2="228.43" y2="62.13" xlink:href="#adbbfd52-7d4c-424e-9f96-791c42785149"/><linearGradient id="bcb23bbd-a3ee-48c0-a795-3c953a777140" x1="241.41" y1="53.79" x2="241.7" y2="53.5" xlink:href="#fe73c780-7b9f-4db0-8cd6-6cbcc6302edb"/><linearGradient id="b4d1afbd-b9bd-449a-9774-30d321530cbc" x1="240.51" y1="62.62" x2="241.9" y2="61.23" xlink:href="#a0c03fcf-97e4-4616-a8f7-d184783fec10"/><linearGradient id="a7b42ef3-d6e6-4f65-bb70-7a0c01f1e400" x1="251.15" y1="62.42" x2="251.44" y2="62.13" xlink:href="#adbbfd52-7d4c-424e-9f96-791c42785149"/><linearGradient id="a298205d-c06d-4e5d-9be8-be6771c7e56c" x1="262.27" y1="53.79" x2="262.56" y2="53.5" xlink:href="#fe73c780-7b9f-4db0-8cd6-6cbcc6302edb"/><linearGradient id="be352d0b-ff0b-4a3e-999b-1d9025fec6b8" x1="261.37" y1="62.62" x2="262.76" y2="61.23" xlink:href="#a0c03fcf-97e4-4616-a8f7-d184783fec10"/><linearGradient id="f29b8954-21a4-46e1-87ed-5f53a83b0c47" x1="429.41" y1="11.44" x2="429.69" y2="11.15" xlink:href="#adbbfd52-7d4c-424e-9f96-791c42785149"/><linearGradient id="b4dd8af8-4ef5-4572-8cef-58198768c4b5" x1="441.74" y1="2.49" x2="441.84" y2="2.39" xlink:href="#fe73c780-7b9f-4db0-8cd6-6cbcc6302edb"/><linearGradient id="aaffd0ae-ed9a-47e0-91eb-83b15d65565c" x1="450.26" y1="11.44" x2="450.55" y2="11.15" xlink:href="#adbbfd52-7d4c-424e-9f96-791c42785149"/><linearGradient id="e7b7ab99-8739-47f4-a486-195fb8e56cde" x1="463.53" y1="2.81" x2="463.82" y2="2.52" xlink:href="#fe73c780-7b9f-4db0-8cd6-6cbcc6302edb"/><linearGradient id="bd1c04a8-2cd2-417c-bb82-5d8088de7ccd" x1="462.63" y1="11.64" x2="464.02" y2="10.25" xlink:href="#a0c03fcf-97e4-4616-a8f7-d184783fec10"/><linearGradient id="b22f4242-c664-47df-8ef6-2d4c50770770" x1="429.4" y1="62.42" x2="429.69" y2="62.13" xlink:href="#adbbfd52-7d4c-424e-9f96-791c42785149"/><linearGradient id="a5dda224-8a64-4e77-94b8-df13eff412bb" x1="442.66" y1="53.79" x2="442.95" y2="53.5" xlink:href="#fe73c780-7b9f-4db0-8cd6-6cbcc6302edb"/><linearGradient id="ebe02e3f-99e9-4e0d-ad38-b247e6d744b9" x1="441.76" y1="62.62" x2="443.15" y2="61.23" xlink:href="#a0c03fcf-97e4-4616-a8f7-d184783fec10"/><linearGradient id="a75e0242-290d-4853-9211-745b984218aa" x1="452.4" y1="62.42" x2="452.69" y2="62.13" xlink:href="#adbbfd52-7d4c-424e-9f96-791c42785149"/><linearGradient id="b0295c54-0b0c-48e9-990f-bb20d8c06442" x1="463.52" y1="53.79" x2="463.81" y2="53.5" xlink:href="#fe73c780-7b9f-4db0-8cd6-6cbcc6302edb"/><linearGradient id="f5941068-55a0-4dd5-857b-f78653dde420" x1="462.62" y1="62.62" x2="464.01" y2="61.23" xlink:href="#a0c03fcf-97e4-4616-a8f7-d184783fec10"/><linearGradient id="a0dca9fb-d603-4bec-9918-565f4a27aebb" x1="217.92" y1="10.64" x2="218.2" y2="10.35" xlink:href="#fe73c780-7b9f-4db0-8cd6-6cbcc6302edb"/><linearGradient id="fd0f51c4-e181-49e7-9494-b7cc5fef41e6" x1="196.25" y1="62.42" x2="196.54" y2="62.13" xlink:href="#adbbfd52-7d4c-424e-9f96-791c42785149"/><linearGradient id="e5b1939c-19cf-45c8-8947-1100afb765c2" x1="209.18" y1="62.62" x2="209.87" y2="61.93" xlink:href="#a6e0a3ed-d1d1-47e2-ba2f-dea351c641ac"/><linearGradient id="a1e333ee-e663-4f79-8b86-59fa58724c99" x1="217.71" y1="54.1" x2="218.4" y2="53.4" xlink:href="#a80b50b1-5ef2-428b-b49b-86d5c7ee61df"/><linearGradient id="a64c440f-0c4b-4ead-9957-7ab5449bcd0d" x1="178.19" y1="10.64" x2="178.48" y2="10.35" xlink:href="#fe73c780-7b9f-4db0-8cd6-6cbcc6302edb"/><linearGradient id="f8f0da3f-f019-4d3b-97de-cb00e778f1f1" x1="169.56" y1="21.86" x2="169.85" y2="21.58" xlink:href="#adbbfd52-7d4c-424e-9f96-791c42785149"/><linearGradient id="f50832fe-8078-4df1-a34e-2cbbbdcf86da" x1="177.29" y1="22.07" x2="178.68" y2="20.68" xlink:href="#a0c03fcf-97e4-4616-a8f7-d184783fec10"/><linearGradient id="e52e9a06-80ef-4d09-9208-fb999bd90f14" x1="157.33" y1="43.36" x2="157.62" y2="43.07" xlink:href="#fe73c780-7b9f-4db0-8cd6-6cbcc6302edb"/><linearGradient id="ba6b8f81-2bc6-4a6b-94e1-9a1fa526b56c" x1="178.19" y1="39.48" x2="178.48" y2="39.19" xlink:href="#fe73c780-7b9f-4db0-8cd6-6cbcc6302edb"/><linearGradient id="e7b7473b-c5d0-4474-a10a-52aeb7584d9f" x1="156.53" y1="62.42" x2="156.82" y2="62.13" xlink:href="#adbbfd52-7d4c-424e-9f96-791c42785149"/><linearGradient id="abe841df-ce80-436e-b31a-0184e0383c83" x1="169.46" y1="62.62" x2="170.15" y2="61.93" xlink:href="#a6e0a3ed-d1d1-47e2-ba2f-dea351c641ac"/><linearGradient id="a737cf89-bc68-46cd-91ae-229f1642aa51" x1="177.98" y1="54.1" x2="178.68" y2="53.4" xlink:href="#a80b50b1-5ef2-428b-b49b-86d5c7ee61df"/></defs><path class="acb0da15-dda8-4c09-b07d-a116710ff102" d="M39.2,57a1.39,1.39,0,0,1,1.39,1.39v7a1.39,1.39,0,0,1-1.39,1.39H27.61a1.39,1.39,0,0,1-1.39-1.39v-7A1.4,1.4,0,0,1,27.62,57h.92v-10H17.42V57h.93a1.39,1.39,0,0,1,1.39,1.39v7a1.4,1.4,0,0,1-1.4,1.39H6.76a1.39,1.39,0,0,1-1.39-1.39v-7A1.39,1.39,0,0,1,6.76,57h.93V15.26a1.39,1.39,0,0,1,.41-1l7.83-7.83a1.41,1.41,0,0,1,1-.41H29.06a1.41,1.41,0,0,1,1,.41l7.83,7.83a1.38,1.38,0,0,1,.4,1V57ZM28.55,37.32V18.72l-2.94-2.95H20.37l-2.94,2.95v18.6H28.55" transform="translate(0.43 -0.25)"/><g class="eca4c2f3-78f9-468f-aabc-b0fc2a0ee6b9"><rect class="a21ec4bd-9e9b-4a53-a1fa-a36cac280f14" x="12.54" y="10.82" width="4.16" height="4.29" transform="translate(-4.46 13.89) rotate(-45)"/><polygon class="e9af34fc-2dc9-448d-ab4c-461aed333ca8" points="20.24 9.73 23.27 12.77 18.03 12.77 15 9.73 20.24 9.73"/><path class="a7c3bb57-832d-43f9-ae23-1969e542c194" d="M32.08,8.48l3,3a1.34,1.34,0,0,1,.41,1l-3-3A1.41,1.41,0,0,0,32.08,8.48Z" transform="translate(0.43 -0.25)"/><polygon class="b0cf6e02-7ebb-4b69-9d5c-70baba3b048b" points="12.06 12.68 15.09 15.71 15.09 34.32 12.05 31.28 12.06 12.68"/><path class="b0e5a60c-c648-4fdb-874e-a02d1493e0c0" d="M3,63.59l-3-3A1.39,1.39,0,0,0,1,61l3,3A1.41,1.41,0,0,1,3,63.59Z" transform="translate(0.43 -0.25)"/><polygon class="b0cf6e02-7ebb-4b69-9d5c-70baba3b048b" points="12.05 41.02 15.09 44.05 15.09 54.01 12.05 50.98 12.05 41.02"/><polygon class="e9af34fc-2dc9-448d-ab4c-461aed333ca8" points="23.18 41.02 26.21 44.05 15.09 44.05 12.05 41.02 23.18 41.02"/><path class="b726835c-c18b-423c-ba1f-fe4fe866b8af" d="M13.54,51.63l3,3a1.39,1.39,0,0,1,.41,1l-3-3A1.41,1.41,0,0,0,13.54,51.63Z" transform="translate(0.43 -0.25)"/><polygon class="e9af34fc-2dc9-448d-ab4c-461aed333ca8" points="12.98 60.71 16.01 63.75 4.42 63.75 1.39 60.71 12.98 60.71"/><polygon class="b0cf6e02-7ebb-4b69-9d5c-70baba3b048b" points="14.37 52.37 17.4 55.4 17.4 62.36 14.37 59.32 14.37 52.37"/><path class="b49441eb-42c0-4b73-a0fa-9802c01b3597" d="M13.94,59.57l3,3A1.4,1.4,0,0,1,15.58,64l-3-3A1.39,1.39,0,0,0,13.94,59.57Z" transform="translate(0.43 -0.25)"/><path class="a576b800-59b2-41b3-aa2a-3dd8c0227d77" d="M23.87,63.59l-3-3a1.39,1.39,0,0,0,1,.41l3,3A1.38,1.38,0,0,1,23.87,63.59Z" transform="translate(0.43 -0.25)"/><polygon class="b0cf6e02-7ebb-4b69-9d5c-70baba3b048b" points="32.91 9.22 35.95 12.25 35.94 54.01 32.91 50.98 32.91 9.22"/><path class="af4deb9e-699f-4673-a843-4f5352e3bec8" d="M34.39,51.63l3,3a1.35,1.35,0,0,1,.41,1l-3-3A1.42,1.42,0,0,0,34.39,51.63Z" transform="translate(0.43 -0.25)"/><polygon class="e9af34fc-2dc9-448d-ab4c-461aed333ca8" points="33.83 60.71 36.87 63.75 25.28 63.75 22.25 60.71 33.83 60.71"/><polygon class="b0cf6e02-7ebb-4b69-9d5c-70baba3b048b" points="35.22 52.37 38.26 55.4 38.26 62.36 35.22 59.32 35.22 52.37"/><path class="fcf4e9a8-d944-40dc-9baf-9969f3ae575c" d="M34.8,59.57l3,3A1.39,1.39,0,0,1,36.44,64l-3-3A1.39,1.39,0,0,0,34.8,59.57Z" transform="translate(0.43 -0.25)"/></g><path class="ad534c8c-035c-40f5-8e1f-8b3c1600014f" d="M33.41,51.23a1.39,1.39,0,0,1,1.39,1.39v7A1.39,1.39,0,0,1,33.41,61H21.82a1.39,1.39,0,0,1-1.39-1.39v-7a1.39,1.39,0,0,1,1.39-1.39h.93v-10H11.63v10h.92a1.39,1.39,0,0,1,1.39,1.39v7A1.39,1.39,0,0,1,12.55,61H1A1.39,1.39,0,0,1-.43,59.57v-7A1.39,1.39,0,0,1,1,51.23h.92V9.47a1.41,1.41,0,0,1,.41-1L10.14.65a1.38,1.38,0,0,1,1-.4H23.27a1.38,1.38,0,0,1,1,.4l7.83,7.83a1.41,1.41,0,0,1,.41,1V51.23ZM22.75,31.53V12.92l-3-2.94H14.57l-2.94,2.94V31.53H22.75" transform="translate(0.43 -0.25)"/><polygon class="bfbb4ff0-0aca-4a41-900e-16f2513bfdcd" points="14.42 8.34 10.66 12.1 10.66 32.67 24.57 32.67 24.57 12.1 20.81 8.34 14.42 8.34"/><polygon class="bedbc1bc-cc5b-4dea-ab06-38c4384486f2" points="22.25 4.87 23.69 1.39 11.54 1.39 12.98 4.87 22.25 4.87"/><polygon class="a71dcd24-0473-4448-a3c7-796762d09f50" points="31.52 55.85 33.84 59.33 33.84 52.37 33.61 52.37 31.52 55.85"/><polygon class="e6da05b2-1184-481a-ba68-e80ead6e6abc" points="22.25 52.72 22.25 59.33 24.34 55.85 22.25 52.72"/><polygon class="bedbc1bc-cc5b-4dea-ab06-38c4384486f2" points="7.19 55.85 3.71 52.37 1.4 52.37 1.4 52.72 3.48 55.85 7.19 55.85"/><polygon class="bedbc1bc-cc5b-4dea-ab06-38c4384486f2" points="10.66 32.67 7.19 36.15 28.05 36.15 24.57 32.67 10.66 32.67"/><polygon class="a7f2ff35-f36c-4c30-a93a-4894b3098e91" points="12.98 4.87 11.54 1.39 3.71 9.22 7.19 10.66 12.98 4.87"/><polygon class="a71dcd24-0473-4448-a3c7-796762d09f50" points="12.98 59.33 12.98 59.33 12.98 52.37 12.75 52.37 10.66 55.85 12.98 59.33"/><polygon class="e6da05b2-1184-481a-ba68-e80ead6e6abc" points="7.19 55.85 7.19 36.15 7.19 10.66 3.71 9.22 3.71 52.37 3.71 52.37 7.19 55.85 7.19 55.85"/><polygon class="bedbc1bc-cc5b-4dea-ab06-38c4384486f2" points="28.05 55.85 24.57 52.37 22.25 52.37 22.25 52.72 24.34 55.85 28.05 55.85"/><polygon class="e6da05b2-1184-481a-ba68-e80ead6e6abc" points="1.4 52.72 1.4 59.33 3.48 55.85 1.4 52.72"/><polygon class="b75b477a-a5b6-45bf-8f74-e7147f58fdf2" points="7.19 55.85 7.19 55.85 3.48 55.85 1.4 59.33 1.4 59.33 12.98 59.33 10.66 55.85 7.19 55.85"/><polygon class="e6da05b2-1184-481a-ba68-e80ead6e6abc" points="28.05 36.15 24.57 39.63 24.57 52.37 28.05 55.85 28.05 36.15"/><polygon class="a71dcd24-0473-4448-a3c7-796762d09f50" points="7.19 36.15 7.19 55.85 7.19 55.85 10.66 52.37 10.66 39.63 7.19 36.15"/><polygon class="bedbc1bc-cc5b-4dea-ab06-38c4384486f2" points="7.19 55.85 10.66 55.85 12.75 52.37 10.66 52.37 7.19 55.85"/><polygon class="b75b477a-a5b6-45bf-8f74-e7147f58fdf2" points="7.19 36.15 10.66 39.63 24.57 39.63 28.05 36.15 7.19 36.15"/><polygon class="b75b477a-a5b6-45bf-8f74-e7147f58fdf2" points="28.05 55.85 24.34 55.85 22.25 59.33 33.84 59.33 31.52 55.85 28.05 55.85"/><polygon class="b75b477a-a5b6-45bf-8f74-e7147f58fdf2" points="20.81 8.34 22.25 4.87 12.98 4.87 14.42 8.34 20.81 8.34"/><polygon class="bedbc1bc-cc5b-4dea-ab06-38c4384486f2" points="31.52 55.85 33.61 52.37 31.52 52.37 28.05 55.85 31.52 55.85"/><polygon class="a2526fea-9dd1-4a2e-8a82-4b4d18887935" points="24.57 12.1 28.05 10.66 22.25 4.87 20.81 8.34 24.57 12.1"/><polygon class="b75b477a-a5b6-45bf-8f74-e7147f58fdf2" points="7.19 55.85 7.19 55.85 7.19 55.85 7.19 55.85"/><polygon class="fb9a6690-346e-4a02-81ff-24a2d18513dd" points="14.42 8.34 12.98 4.87 7.19 10.66 10.66 12.1 14.42 8.34"/><polygon class="a71dcd24-0473-4448-a3c7-796762d09f50" points="28.05 36.15 28.05 55.85 31.52 52.37 31.52 9.22 28.05 10.66 28.05 36.15"/><polygon class="b355a42a-5d33-447a-830b-a7122b3c05d5" points="28.05 10.66 31.52 9.22 23.69 1.39 22.25 4.87 28.05 10.66"/><polygon class="a71dcd24-0473-4448-a3c7-796762d09f50" points="10.66 12.1 7.19 10.66 7.19 36.15 10.66 32.67 10.66 12.1"/><polygon class="e6da05b2-1184-481a-ba68-e80ead6e6abc" points="24.57 12.1 24.57 32.67 28.05 36.15 28.05 10.66 24.57 12.1"/><path class="a71dcd24-0473-4448-a3c7-796762d09f50" d="M28.08,36.86V10.71L22,4.65H12.36L6.3,10.71V35.93h0v.93h0V55.63H2.59v.93H10.7v-.93H7.23V36.86H27.16V55.63H23.45v.93h8.11v-.93H28.08ZM7.23,35.93V11.1l5.52-5.52h8.88l5.53,5.52V35.93Z" transform="translate(0.43 -0.25)"/><path class="acb0da15-dda8-4c09-b07d-a116710ff102" d="M329,6a1.39,1.39,0,0,1,1,.41l7.83,7.83a1.39,1.39,0,0,1,.41,1v9.55a1.39,1.39,0,0,1-1.39,1.39h-6.95a1.4,1.4,0,0,1-1.4-1.39V18.72l-2.95-2.95h-5.23l-2.95,2.95V54.08L320.27,57h5.24l2.94-2.94V48a1.39,1.39,0,0,1,1.39-1.39h7A1.39,1.39,0,0,1,338.18,48v9.55a1.41,1.41,0,0,1-.41,1l-7.83,7.83a1.38,1.38,0,0,1-1,.4H316.81a1.38,1.38,0,0,1-1-.4L308,58.52a1.41,1.41,0,0,1-.41-1V15.26a1.39,1.39,0,0,1,.41-1l7.83-7.83a1.39,1.39,0,0,1,1-.41Z" transform="translate(0.43 -0.25)"/><g class="eca4c2f3-78f9-468f-aabc-b0fc2a0ee6b9"><rect class="a21ec4bd-9e9b-4a53-a1fa-a36cac280f14" x="312.45" y="10.82" width="4.16" height="4.29" transform="translate(83.37 225.94) rotate(-45)"/><polygon class="e9af34fc-2dc9-448d-ab4c-461aed333ca8" points="320.15 9.73 323.18 12.77 317.94 12.77 314.91 9.73 320.15 9.73"/><path class="aca33783-b79f-4fa3-9c46-21eaa90809dd" d="M332,8.48l3,3a1.39,1.39,0,0,1,.41,1l-3-3A1.41,1.41,0,0,0,332,8.48Z" transform="translate(0.43 -0.25)"/><path class="a0530788-3ff3-464a-af03-0ceeae5b57a6" d="M326.1,23l-3-3a1.39,1.39,0,0,0,1,.41l3,3A1.39,1.39,0,0,1,326.1,23Z" transform="translate(0.43 -0.25)"/><polygon class="e9af34fc-2dc9-448d-ab4c-461aed333ca8" points="331.43 20.16 334.46 23.19 327.51 23.19 324.48 20.16 331.43 20.16"/><polygon class="b0cf6e02-7ebb-4b69-9d5c-70baba3b048b" points="332.82 9.22 335.85 12.25 335.85 21.8 332.82 18.77 332.82 9.22"/><path class="b3dbcb97-a3b3-4f31-8791-e880d62a1afa" d="M332.39,19l3,3A1.39,1.39,0,0,1,334,23.44l-3-3A1.39,1.39,0,0,0,332.39,19Z" transform="translate(0.43 -0.25)"/><polygon class="b0cf6e02-7ebb-4b69-9d5c-70baba3b048b" points="311.96 12.68 315 15.71 314.99 51.07 311.96 48.04 311.96 12.68"/><path class="a2f3f830-7b0c-4748-86cb-d5825dbd8171" d="M311,61l3,3a1.38,1.38,0,0,1-1-.4l-3-3A1.43,1.43,0,0,0,311,61Z" transform="translate(0.43 -0.25)"/><path class="b499c98f-ed80-45f5-ba0b-407232ea5d76" d="M332,41.21l3,3a1.38,1.38,0,0,1,.4,1l-3-3A1.39,1.39,0,0,0,332,41.21Z" transform="translate(0.43 -0.25)"/><polygon class="e9af34fc-2dc9-448d-ab4c-461aed333ca8" points="323.59 60.71 326.63 63.75 314.48 63.75 311.44 60.71 323.59 60.71"/><polygon class="b0cf6e02-7ebb-4b69-9d5c-70baba3b048b" points="332.81 41.94 335.85 44.98 335.85 54.53 332.81 51.49 332.81 41.94"/><path class="a4d25f77-3150-48a3-8a48-38bd90a8c7cb" d="M324.15,60.55l3,3a1.38,1.38,0,0,1-1,.4l-3-3A1.39,1.39,0,0,0,324.15,60.55Z" transform="translate(0.43 -0.25)"/><rect class="a21ec4bd-9e9b-4a53-a1fa-a36cac280f14" x="324.05" y="56.01" width="11.07" height="4.29" transform="translate(55.83 249.83) rotate(-45)"/><path class="e0134884-b0d3-44b0-9cb2-2c52390ff844" d="M332.39,51.74l3,3a1.41,1.41,0,0,1-.41,1l-3-3A1.39,1.39,0,0,0,332.39,51.74Z" transform="translate(0.43 -0.25)"/></g><path class="ad534c8c-035c-40f5-8e1f-8b3c1600014f" d="M323.18.25a1.38,1.38,0,0,1,1,.4L332,8.48a1.41,1.41,0,0,1,.41,1V19A1.39,1.39,0,0,1,331,20.41h-6.95A1.39,1.39,0,0,1,322.66,19v-6.1L319.72,10h-5.24l-2.94,2.94V48.28l3,2.95h5.23l3-2.95V42.19a1.39,1.39,0,0,1,1.39-1.39H331a1.39,1.39,0,0,1,1.39,1.39v9.55a1.39,1.39,0,0,1-.41,1l-7.83,7.83a1.39,1.39,0,0,1-1,.41H311a1.43,1.43,0,0,1-1-.41l-7.82-7.83a1.39,1.39,0,0,1-.41-1V9.47a1.4,1.4,0,0,1,.4-1L310.05.65a1.38,1.38,0,0,1,1-.4Z" transform="translate(0.43 -0.25)"/><polygon class="b355a42a-5d33-447a-830b-a7122b3c05d5" points="312.89 55.85 314.33 52.37 310.57 48.62 307.1 50.06 312.89 55.85"/><polygon class="a7f2ff35-f36c-4c30-a93a-4894b3098e91" points="327.95 50.06 324.48 48.62 320.72 52.37 322.16 55.85 327.95 50.06"/><polygon class="fb9a6690-346e-4a02-81ff-24a2d18513dd" points="307.1 10.66 310.57 12.1 314.33 8.34 312.89 4.87 307.1 10.66"/><polygon class="bedbc1bc-cc5b-4dea-ab06-38c4384486f2" points="322.16 55.85 320.72 52.37 314.33 52.37 312.89 55.85 322.16 55.85"/><polygon class="a71dcd24-0473-4448-a3c7-796762d09f50" points="307.1 50.06 310.57 48.62 310.57 12.1 307.1 10.66 307.1 50.06"/><polygon class="b75b477a-a5b6-45bf-8f74-e7147f58fdf2" points="324.48 18.77 331.43 18.77 327.95 16.45 324.48 18.77"/><polygon class="e6da05b2-1184-481a-ba68-e80ead6e6abc" points="327.95 10.66 324.48 12.1 324.48 18.77 327.95 16.45 327.95 10.66"/><polygon class="b75b477a-a5b6-45bf-8f74-e7147f58fdf2" points="312.89 4.87 314.33 8.34 320.72 8.34 322.16 4.87 312.89 4.87"/><polygon class="a2526fea-9dd1-4a2e-8a82-4b4d18887935" points="322.16 4.87 320.72 8.34 324.48 12.1 327.95 10.66 322.16 4.87"/><polygon class="a71dcd24-0473-4448-a3c7-796762d09f50" points="327.95 16.45 331.43 18.77 331.43 9.22 327.95 10.66 327.95 16.45"/><polygon class="a7f2ff35-f36c-4c30-a93a-4894b3098e91" points="312.89 4.87 311.45 1.39 303.62 9.22 307.1 10.66 312.89 4.87"/><polygon class="e6da05b2-1184-481a-ba68-e80ead6e6abc" points="307.1 10.66 303.62 9.22 303.62 51.5 307.1 50.06 307.1 10.66"/><polygon class="a2526fea-9dd1-4a2e-8a82-4b4d18887935" points="307.1 50.06 303.62 51.5 311.45 59.33 312.89 55.85 307.1 50.06"/><polygon class="bedbc1bc-cc5b-4dea-ab06-38c4384486f2" points="322.16 4.87 323.6 1.39 311.45 1.39 312.89 4.87 322.16 4.87"/><polygon class="b355a42a-5d33-447a-830b-a7122b3c05d5" points="322.16 4.87 327.95 10.66 331.43 9.22 323.6 1.39 322.16 4.87"/><polygon class="e6da05b2-1184-481a-ba68-e80ead6e6abc" points="327.95 44.26 324.48 41.94 324.48 48.62 327.95 50.06 327.95 44.26"/><polygon class="a71dcd24-0473-4448-a3c7-796762d09f50" points="327.95 50.06 331.43 51.5 331.43 41.94 327.95 44.26 327.95 50.06"/><polygon class="fb9a6690-346e-4a02-81ff-24a2d18513dd" points="322.16 55.85 323.6 59.33 331.43 51.5 327.95 50.06 322.16 55.85"/><polygon class="b75b477a-a5b6-45bf-8f74-e7147f58fdf2" points="312.89 55.85 311.45 59.33 323.6 59.33 322.16 55.85 312.89 55.85"/><polygon class="bedbc1bc-cc5b-4dea-ab06-38c4384486f2" points="331.43 41.94 324.48 41.94 327.95 44.26 331.43 41.94"/><polygon class="a71dcd24-0473-4448-a3c7-796762d09f50" points="312.7 4.4 306.63 10.47 306.63 50.25 312.7 56.31 322.35 56.31 328.42 50.25 328.42 43.8 327.49 43.8 327.49 49.86 321.97 55.39 313.08 55.39 307.56 49.86 307.56 10.85 313.08 5.33 321.97 5.33 327.49 10.85 327.49 16.92 328.42 16.92 328.42 10.47 322.35 4.4 312.7 4.4"/><path class="acb0da15-dda8-4c09-b07d-a116710ff102" d="M423.06,6a1.39,1.39,0,0,1,1.39,1.39V16.7a1.39,1.39,0,0,1-1.39,1.39H416.1a1.39,1.39,0,0,1-1.39-1.39v-.93H403.59V31.53h4.17V30.6a1.39,1.39,0,0,1,1.39-1.39h7a1.39,1.39,0,0,1,1.39,1.39V42.19a1.39,1.39,0,0,1-1.39,1.39h-7a1.39,1.39,0,0,1-1.39-1.39v-.93h-4.18V57h11.13v-.93a1.39,1.39,0,0,1,1.39-1.39h6.95a1.39,1.39,0,0,1,1.39,1.39v9.27a1.39,1.39,0,0,1-1.39,1.39H392.92a1.39,1.39,0,0,1-1.39-1.39v-7A1.39,1.39,0,0,1,392.92,57h.93V15.77h-.93a1.39,1.39,0,0,1-1.39-1.39v-7A1.39,1.39,0,0,1,392.93,6Z" transform="translate(0.43 -0.25)"/><g class="eca4c2f3-78f9-468f-aabc-b0fc2a0ee6b9"><path class="fc5e6560-0bfc-4129-83d2-7636992f390e" d="M389.19,12.61l-3-3a1.4,1.4,0,0,0,1,.41l3,3A1.37,1.37,0,0,1,389.19,12.61Z" transform="translate(0.43 -0.25)"/><polygon class="e9af34fc-2dc9-448d-ab4c-461aed333ca8" points="388.49 9.73 391.52 12.77 390.6 12.77 387.56 9.73 388.49 9.73"/><polygon class="e9af34fc-2dc9-448d-ab4c-461aed333ca8" points="409.34 9.73 412.38 12.77 401.25 12.77 398.22 9.73 409.34 9.73"/><path class="a0f075ef-63bb-4dd4-b0c6-62e3160c0d6a" d="M418.25.65l3,3a1.39,1.39,0,0,1,.41,1l-3-3A1.41,1.41,0,0,0,418.25.65Z" transform="translate(0.43 -0.25)"/><path class="be017e2a-8f9a-433a-855e-24440518fadf" d="M412.36,14.92l-3-3a1.37,1.37,0,0,0,1,.41l3,3A1.35,1.35,0,0,1,412.36,14.92Z" transform="translate(0.43 -0.25)"/><polygon class="b0cf6e02-7ebb-4b69-9d5c-70baba3b048b" points="398.22 9.73 401.25 12.77 401.25 28.52 398.22 25.49 398.22 9.73"/><polygon class="b0cf6e02-7ebb-4b69-9d5c-70baba3b048b" points="419.08 1.39 422.11 4.42 422.11 13.69 419.08 10.66 419.08 1.39"/><polygon class="e9af34fc-2dc9-448d-ab4c-461aed333ca8" points="417.69 12.05 420.72 15.08 413.77 15.08 410.73 12.05 417.69 12.05"/><path class="b6302f18-a0f5-49d8-95d4-260510aed302" d="M418.65,10.91l3,3a1.39,1.39,0,0,1-1.39,1.39l-3-3A1.39,1.39,0,0,0,418.65,10.91Z" transform="translate(0.43 -0.25)"/><path class="fd4cc8a8-911e-4a91-b95e-4cd8765a9993" d="M411.29,23.83l3,3a1.39,1.39,0,0,1,.41,1l-3-3A1.39,1.39,0,0,0,411.29,23.83Z" transform="translate(0.43 -0.25)"/><polygon class="e9af34fc-2dc9-448d-ab4c-461aed333ca8" points="402.39 35.22 405.42 38.26 401.25 38.26 398.22 35.22 402.39 35.22"/><path class="af360a49-2a4b-4bb1-8a72-845f02945bdb" d="M405.4,40.41l-3-3a1.39,1.39,0,0,0,1,.41l3,3A1.39,1.39,0,0,1,405.4,40.41Z" transform="translate(0.43 -0.25)"/><path class="a1d38f20-e0d8-445f-8d83-4dab8499df4f" d="M389.18,63.59l-3-3a1.4,1.4,0,0,0,1,.41l3,3A1.38,1.38,0,0,1,389.18,63.59Z" transform="translate(0.43 -0.25)"/><polygon class="e9af34fc-2dc9-448d-ab4c-461aed333ca8" points="410.73 37.54 413.76 40.57 406.81 40.57 403.78 37.54 410.73 37.54"/><polygon class="b0cf6e02-7ebb-4b69-9d5c-70baba3b048b" points="412.12 24.56 415.15 27.6 415.15 39.18 412.12 36.15 412.12 24.56"/><path class="b691a06f-bc81-4017-b95a-b4e85f24f560" d="M411.69,36.4l3,3a1.39,1.39,0,0,1-1.39,1.39l-3-3A1.39,1.39,0,0,0,411.69,36.4Z" transform="translate(0.43 -0.25)"/><polygon class="b0cf6e02-7ebb-4b69-9d5c-70baba3b048b" points="398.22 35.22 401.25 38.26 401.25 54.01 398.21 50.98 398.22 35.22"/><path class="e185e930-39b7-4cc9-b695-02e2e9f839cb" d="M418.24,49.32l3,3a1.39,1.39,0,0,1,.41,1l-3-3A1.38,1.38,0,0,0,418.24,49.32Z" transform="translate(0.43 -0.25)"/><polygon class="e9af34fc-2dc9-448d-ab4c-461aed333ca8" points="417.68 60.71 420.71 63.75 390.59 63.75 387.55 60.71 417.68 60.71"/><polygon class="b0cf6e02-7ebb-4b69-9d5c-70baba3b048b" points="419.07 50.05 422.1 53.09 422.1 62.36 419.07 59.32 419.07 50.05"/><path class="e5c00461-5603-4c9c-8051-cf0b4eefcab2" d="M418.64,59.57l3,3A1.39,1.39,0,0,1,420.29,64l-3-3A1.39,1.39,0,0,0,418.64,59.57Z" transform="translate(0.43 -0.25)"/></g><path class="ad534c8c-035c-40f5-8e1f-8b3c1600014f" d="M417.26.25a1.39,1.39,0,0,1,1.39,1.39v9.27a1.39,1.39,0,0,1-1.39,1.39h-6.95a1.39,1.39,0,0,1-1.39-1.39V10H397.8V25.74H402v-.93a1.39,1.39,0,0,1,1.39-1.39h7a1.39,1.39,0,0,1,1.39,1.39V36.4a1.39,1.39,0,0,1-1.39,1.39h-6.95A1.39,1.39,0,0,1,402,36.4v-.93h-4.17V51.23h11.12V50.3a1.39,1.39,0,0,1,1.39-1.39h6.95a1.39,1.39,0,0,1,1.39,1.39v9.27A1.39,1.39,0,0,1,417.25,61H387.13a1.39,1.39,0,0,1-1.39-1.39v-7a1.39,1.39,0,0,1,1.39-1.39h.93V10h-.92a1.38,1.38,0,0,1-1.39-1.39V1.64A1.39,1.39,0,0,1,387.14.25Z" transform="translate(0.43 -0.25)"/><path class="b75b477a-a5b6-45bf-8f74-e7147f58fdf2" d="M392.93,5.11l3.47,3.48h13.91l3.47-3.48Z" transform="translate(0.43 -0.25)"/><polygon class="b75b477a-a5b6-45bf-8f74-e7147f58fdf2" points="410.73 10.66 417.69 10.66 414.21 8.34 410.73 10.66"/><polygon class="e6da05b2-1184-481a-ba68-e80ead6e6abc" points="414.21 4.87 410.73 8.34 410.73 10.66 414.21 8.34 414.21 4.87"/><polygon class="a71dcd24-0473-4448-a3c7-796762d09f50" points="414.21 8.34 417.69 10.66 417.69 1.39 414.21 4.87 414.21 8.34"/><polygon class="a71dcd24-0473-4448-a3c7-796762d09f50" points="393.35 30.36 396.83 26.88 396.83 8.34 393.35 4.87 393.35 30.36"/><path class="bedbc1bc-cc5b-4dea-ab06-38c4384486f2" d="M389.45,5.11h24.33l3.48-3.47H387.13Z" transform="translate(0.43 -0.25)"/><polygon class="bedbc1bc-cc5b-4dea-ab06-38c4384486f2" points="407.26 30.36 403.78 26.88 396.83 26.88 393.35 30.36 407.26 30.36"/><path class="b75b477a-a5b6-45bf-8f74-e7147f58fdf2" d="M389.45,5.11l-2.32,3.48h2.32l3.48-3.48Z" transform="translate(0.43 -0.25)"/><polygon class="e6da05b2-1184-481a-ba68-e80ead6e6abc" points="393.35 30.36 393.35 4.87 389.88 8.34 389.88 52.37 393.35 55.85 393.35 30.36"/><polygon class="e6da05b2-1184-481a-ba68-e80ead6e6abc" points="387.56 1.39 387.56 8.34 389.88 4.87 387.56 1.39"/><polygon class="b75b477a-a5b6-45bf-8f74-e7147f58fdf2" points="393.35 55.85 389.88 55.85 387.56 59.33 417.69 59.33 414.21 55.85 393.35 55.85"/><polygon class="bedbc1bc-cc5b-4dea-ab06-38c4384486f2" points="417.69 50.06 410.73 50.06 414.21 52.37 417.69 50.06"/><polygon class="e6da05b2-1184-481a-ba68-e80ead6e6abc" points="414.21 52.37 410.73 50.06 410.73 52.37 414.21 55.85 414.21 52.37"/><polygon class="a71dcd24-0473-4448-a3c7-796762d09f50" points="414.21 55.85 417.69 59.33 417.69 50.06 414.21 52.37 414.21 55.85"/><polygon class="bedbc1bc-cc5b-4dea-ab06-38c4384486f2" points="414.21 55.85 410.73 52.37 396.83 52.37 393.35 55.85 414.21 55.85"/><polygon class="e6da05b2-1184-481a-ba68-e80ead6e6abc" points="387.56 52.37 387.56 59.33 389.88 55.85 387.56 52.37"/><polygon class="bedbc1bc-cc5b-4dea-ab06-38c4384486f2" points="393.35 55.85 389.88 52.37 387.56 52.37 389.88 55.85 393.35 55.85"/><polygon class="b75b477a-a5b6-45bf-8f74-e7147f58fdf2" points="403.78 36.15 410.73 36.15 407.26 33.83 403.78 36.15"/><polygon class="a71dcd24-0473-4448-a3c7-796762d09f50" points="393.35 55.85 396.83 52.37 396.83 33.83 393.35 30.36 393.35 55.85"/><polygon class="a71dcd24-0473-4448-a3c7-796762d09f50" points="407.26 30.36 407.26 33.83 410.73 36.15 410.73 24.56 407.26 26.88 407.26 30.36"/><polygon class="bedbc1bc-cc5b-4dea-ab06-38c4384486f2" points="410.73 24.56 403.78 24.56 407.26 26.88 410.73 24.56"/><polygon class="e6da05b2-1184-481a-ba68-e80ead6e6abc" points="407.26 26.88 403.78 24.56 403.78 26.88 407.26 30.36 407.26 26.88"/><polygon class="e6da05b2-1184-481a-ba68-e80ead6e6abc" points="407.26 30.36 403.78 33.83 403.78 36.15 407.26 33.83 407.26 30.36"/><polygon class="b75b477a-a5b6-45bf-8f74-e7147f58fdf2" points="393.35 30.36 396.83 33.83 403.78 33.83 407.26 30.36 393.35 30.36"/><polygon class="a71dcd24-0473-4448-a3c7-796762d09f50" points="389.41 5.33 392.89 5.33 392.89 29.89 392.89 29.89 392.89 30.82 392.89 30.82 392.89 55.39 389.41 55.39 389.41 56.31 392.89 56.31 393.81 56.31 414.67 56.31 414.67 51.91 413.75 51.91 413.75 55.39 393.81 55.39 393.81 30.82 406.79 30.82 406.79 34.3 407.72 34.3 407.72 30.82 407.72 29.89 407.72 26.42 406.79 26.42 406.79 29.89 393.81 29.89 393.81 5.33 413.75 5.33 413.75 8.8 414.67 8.8 414.67 4.4 389.41 4.4 389.41 5.33"/><path class="acb0da15-dda8-4c09-b07d-a116710ff102" d="M381.67,6a1.39,1.39,0,0,1,1.39,1.39v7a1.39,1.39,0,0,1-1.39,1.39h-.92V57h.93a1.39,1.39,0,0,1,1.39,1.39v7a1.39,1.39,0,0,1-1.39,1.39H370.07a1.39,1.39,0,0,1-1.39-1.39v-7A1.39,1.39,0,0,1,370.07,57H371V41.26H359.88V57h.93a1.39,1.39,0,0,1,1.39,1.39v7a1.39,1.39,0,0,1-1.39,1.39H349.21a1.39,1.39,0,0,1-1.39-1.39v-7a1.4,1.4,0,0,1,1.4-1.39h.92V15.77h-.93a1.39,1.39,0,0,1-1.39-1.39v-7A1.39,1.39,0,0,1,349.22,6h11.59a1.39,1.39,0,0,1,1.39,1.39v7a1.39,1.39,0,0,1-1.39,1.39h-.93V31.53H371V15.77h-.92a1.39,1.39,0,0,1-1.39-1.39v-7A1.39,1.39,0,0,1,370.08,6Z" transform="translate(0.43 -0.25)"/><g class="eca4c2f3-78f9-468f-aabc-b0fc2a0ee6b9"><path class="ea91e06b-4522-4ab1-b2ef-4a12d3543123" d="M345.48,12.61l-3-3a1.37,1.37,0,0,0,1,.41l3,3A1.38,1.38,0,0,1,345.48,12.61Z" transform="translate(0.43 -0.25)"/><polygon class="e9af34fc-2dc9-448d-ab4c-461aed333ca8" points="344.78 9.73 347.81 12.77 346.89 12.77 343.86 9.73 344.78 9.73"/><path class="b776163b-6693-4fe0-beba-ed734db097f2" d="M356,.65l3,3a1.39,1.39,0,0,1,.41,1l-3-3A1.42,1.42,0,0,0,356,.65Z" transform="translate(0.43 -0.25)"/><polygon class="e9af34fc-2dc9-448d-ab4c-461aed333ca8" points="355.44 9.73 358.47 12.77 357.55 12.77 354.51 9.73 355.44 9.73"/><polygon class="b0cf6e02-7ebb-4b69-9d5c-70baba3b048b" points="356.83 1.39 359.87 4.42 359.86 11.38 356.83 8.34 356.83 1.39"/><path class="e91ef7e7-3ff1-4e9f-9a6d-a32e301bbf11" d="M356.41,8.59l3,3A1.39,1.39,0,0,1,358.05,13l-3-3A1.39,1.39,0,0,0,356.41,8.59Z" transform="translate(0.43 -0.25)"/><path class="ede2e273-5b22-46cd-b997-89b6ce83ec37" d="M366.33,12.61l-3-3a1.39,1.39,0,0,0,1,.41l3,3A1.41,1.41,0,0,1,366.33,12.61Z" transform="translate(0.43 -0.25)"/><polygon class="e9af34fc-2dc9-448d-ab4c-461aed333ca8" points="365.64 9.73 368.67 12.77 367.74 12.77 364.71 9.73 365.64 9.73"/><path class="a755d6a4-54f0-4d99-9063-96f63015b91b" d="M376.86.65l3,3a1.39,1.39,0,0,1,.41,1l-3-3A1.41,1.41,0,0,0,376.86.65Z" transform="translate(0.43 -0.25)"/><polygon class="b0cf6e02-7ebb-4b69-9d5c-70baba3b048b" points="354.51 9.73 357.55 12.77 357.54 28.52 354.51 25.49 354.51 9.73"/><polygon class="e9af34fc-2dc9-448d-ab4c-461aed333ca8" points="376.3 9.73 379.33 12.77 378.4 12.77 375.37 9.73 376.3 9.73"/><polygon class="b0cf6e02-7ebb-4b69-9d5c-70baba3b048b" points="377.69 1.39 380.72 4.42 380.72 11.38 377.69 8.34 377.69 1.39"/><path class="a3155f8d-21bf-4c7e-a5bf-45873f74227e" d="M377.26,8.59l3,3A1.39,1.39,0,0,1,378.9,13l-3-3A1.39,1.39,0,0,0,377.26,8.59Z" transform="translate(0.43 -0.25)"/><polygon class="e9af34fc-2dc9-448d-ab4c-461aed333ca8" points="365.63 35.22 368.67 38.26 357.54 38.26 354.51 35.22 365.63 35.22"/><path class="fefd6105-d4ec-42d1-84f6-d99ac8bc8257" d="M345.47,63.59l-3-3a1.39,1.39,0,0,0,1,.41l3,3A1.38,1.38,0,0,1,345.47,63.59Z" transform="translate(0.43 -0.25)"/><polygon class="b0cf6e02-7ebb-4b69-9d5c-70baba3b048b" points="354.51 35.22 357.54 38.26 357.54 54.01 354.51 50.98 354.51 35.22"/><path class="be3fe16d-fb54-49d1-85df-d8b796cd6c87" d="M356,51.63l3,3a1.35,1.35,0,0,1,.41,1l-3-3A1.42,1.42,0,0,0,356,51.63Z" transform="translate(0.43 -0.25)"/><polygon class="e9af34fc-2dc9-448d-ab4c-461aed333ca8" points="355.43 60.71 358.46 63.75 346.88 63.75 343.85 60.71 355.43 60.71"/><polygon class="b0cf6e02-7ebb-4b69-9d5c-70baba3b048b" points="356.82 52.37 359.86 55.4 359.86 62.36 356.82 59.32 356.82 52.37"/><path class="b3dcc797-cd41-4a13-9ff0-d0aa7fb18159" d="M356.4,59.57l3,3A1.39,1.39,0,0,1,358,64l-3-3A1.39,1.39,0,0,0,356.4,59.57Z" transform="translate(0.43 -0.25)"/><path class="af5bcc7f-42c4-4205-ab72-aee4a3fcd7bb" d="M366.33,63.59l-3-3a1.4,1.4,0,0,0,1,.41l3,3A1.37,1.37,0,0,1,366.33,63.59Z" transform="translate(0.43 -0.25)"/><polygon class="b0cf6e02-7ebb-4b69-9d5c-70baba3b048b" points="375.37 9.73 378.4 12.77 378.4 54.01 375.36 50.98 375.37 9.73"/><path class="ae430597-8319-4bcc-800d-1036c0160db1" d="M376.85,51.63l3,3a1.39,1.39,0,0,1,.41,1l-3-3A1.41,1.41,0,0,0,376.85,51.63Z" transform="translate(0.43 -0.25)"/><polygon class="e9af34fc-2dc9-448d-ab4c-461aed333ca8" points="376.29 60.71 379.32 63.75 367.74 63.75 364.7 60.71 376.29 60.71"/><polygon class="b0cf6e02-7ebb-4b69-9d5c-70baba3b048b" points="377.68 52.37 380.71 55.4 380.71 62.36 377.68 59.32 377.68 52.37"/><path class="fd8cb200-775a-4e97-9342-639923a60e8f" d="M377.25,59.57l3,3A1.39,1.39,0,0,1,378.9,64l-3-3A1.39,1.39,0,0,0,377.25,59.57Z" transform="translate(0.43 -0.25)"/></g><path class="ad534c8c-035c-40f5-8e1f-8b3c1600014f" d="M375.87.25a1.39,1.39,0,0,1,1.39,1.39v7A1.39,1.39,0,0,1,375.87,10h-.93V51.23h.92a1.39,1.39,0,0,1,1.39,1.39v7A1.39,1.39,0,0,1,375.86,61H364.28a1.38,1.38,0,0,1-1.39-1.39v-7a1.39,1.39,0,0,1,1.39-1.39h.92V35.47H354.08V51.23H355a1.39,1.39,0,0,1,1.39,1.39v7A1.39,1.39,0,0,1,355,61H343.42A1.39,1.39,0,0,1,342,59.57v-7a1.39,1.39,0,0,1,1.39-1.39h.93V10h-.92A1.39,1.39,0,0,1,342,8.59V1.64A1.39,1.39,0,0,1,343.43.25H355a1.39,1.39,0,0,1,1.39,1.39v7A1.39,1.39,0,0,1,355,10h-.93V25.74h11.12V10h-.93a1.39,1.39,0,0,1-1.39-1.39V1.64a1.4,1.4,0,0,1,1.4-1.39Z" transform="translate(0.43 -0.25)"/><polygon class="a71dcd24-0473-4448-a3c7-796762d09f50" points="376.3 59.33 376.3 52.37 373.98 55.85 376.3 59.33"/><polygon class="b75b477a-a5b6-45bf-8f74-e7147f58fdf2" points="370.5 55.85 367.02 55.85 364.71 59.33 376.3 59.33 373.98 55.85 370.5 55.85"/><polygon class="bedbc1bc-cc5b-4dea-ab06-38c4384486f2" points="370.5 55.85 367.02 52.37 364.71 52.37 367.02 55.85 370.5 55.85"/><polygon class="e6da05b2-1184-481a-ba68-e80ead6e6abc" points="364.71 52.37 364.71 59.33 367.02 55.85 364.71 52.37"/><polygon class="bedbc1bc-cc5b-4dea-ab06-38c4384486f2" points="373.98 55.85 376.3 52.37 373.98 52.37 370.5 55.85 373.98 55.85"/><polygon class="a71dcd24-0473-4448-a3c7-796762d09f50" points="376.3 8.34 376.3 1.39 373.98 4.87 376.3 8.34"/><polygon class="e6da05b2-1184-481a-ba68-e80ead6e6abc" points="370.5 30.36 367.02 33.83 367.02 52.37 370.5 55.85 370.5 30.36"/><polygon class="a71dcd24-0473-4448-a3c7-796762d09f50" points="370.5 30.36 370.5 55.85 373.98 52.37 373.98 8.34 370.5 4.87 370.5 30.36"/><polygon class="bedbc1bc-cc5b-4dea-ab06-38c4384486f2" points="367.02 4.87 370.5 4.87 373.98 4.87 376.3 1.39 364.71 1.39 367.02 4.87"/><polygon class="b75b477a-a5b6-45bf-8f74-e7147f58fdf2" points="370.5 4.87 373.98 8.34 376.3 8.34 373.98 4.87 370.5 4.87"/><polygon class="a71dcd24-0473-4448-a3c7-796762d09f50" points="349.64 30.36 353.12 26.88 353.12 8.34 349.64 4.87 349.64 30.36"/><polygon class="b75b477a-a5b6-45bf-8f74-e7147f58fdf2" points="349.64 4.87 353.12 8.34 355.44 8.34 353.12 4.87 349.64 4.87"/><polygon class="bedbc1bc-cc5b-4dea-ab06-38c4384486f2" points="370.5 30.36 367.02 26.88 353.12 26.88 349.64 30.36 370.5 30.36"/><polygon class="a71dcd24-0473-4448-a3c7-796762d09f50" points="355.44 8.34 355.44 1.39 353.12 4.87 355.44 8.34"/><polygon class="e6da05b2-1184-481a-ba68-e80ead6e6abc" points="343.85 1.39 343.85 8.34 346.17 4.87 343.85 1.39"/><polygon class="bedbc1bc-cc5b-4dea-ab06-38c4384486f2" points="349.64 4.87 353.12 4.87 355.44 1.39 343.85 1.39 346.17 4.87 349.64 4.87"/><polygon class="e6da05b2-1184-481a-ba68-e80ead6e6abc" points="370.5 4.87 367.02 8.34 367.02 26.88 370.5 30.36 370.5 4.87"/><polygon class="e6da05b2-1184-481a-ba68-e80ead6e6abc" points="364.71 1.39 364.71 8.34 367.02 4.87 364.71 1.39"/><polygon class="b75b477a-a5b6-45bf-8f74-e7147f58fdf2" points="367.02 4.87 364.71 8.34 367.02 8.34 370.5 4.87 367.02 4.87"/><polygon class="e6da05b2-1184-481a-ba68-e80ead6e6abc" points="349.64 30.36 349.64 4.87 346.17 8.34 346.17 52.37 349.64 55.85 349.64 30.36"/><polygon class="b75b477a-a5b6-45bf-8f74-e7147f58fdf2" points="346.17 4.87 343.85 8.34 346.17 8.34 349.64 4.87 346.17 4.87"/><polygon class="a71dcd24-0473-4448-a3c7-796762d09f50" points="355.44 59.33 355.44 52.37 353.12 55.85 355.44 59.33"/><polygon class="a71dcd24-0473-4448-a3c7-796762d09f50" points="349.64 55.85 353.12 52.37 353.12 33.83 349.64 30.36 349.64 55.85"/><polygon class="b75b477a-a5b6-45bf-8f74-e7147f58fdf2" points="349.64 55.85 346.17 55.85 343.85 59.33 355.44 59.33 353.12 55.85 349.64 55.85"/><polygon class="bedbc1bc-cc5b-4dea-ab06-38c4384486f2" points="353.12 55.85 355.44 52.37 353.12 52.37 349.64 55.85 353.12 55.85"/><polygon class="b75b477a-a5b6-45bf-8f74-e7147f58fdf2" points="349.64 30.36 353.12 33.83 367.02 33.83 370.5 30.36 349.64 30.36"/><polygon class="bedbc1bc-cc5b-4dea-ab06-38c4384486f2" points="349.64 55.85 346.17 52.37 343.85 52.37 346.17 55.85 349.64 55.85"/><polygon class="e6da05b2-1184-481a-ba68-e80ead6e6abc" points="343.85 52.37 343.85 59.33 346.17 55.85 343.85 52.37"/><polygon class="a71dcd24-0473-4448-a3c7-796762d09f50" points="370.04 4.4 366.56 4.4 366.56 5.33 370.04 5.33 370.04 29.89 350.11 29.89 350.11 5.33 353.58 5.33 353.58 4.4 350.11 4.4 349.18 4.4 345.7 4.4 345.7 5.33 349.18 5.33 349.18 29.89 349.18 30.82 349.18 55.39 345.7 55.39 345.7 56.31 349.18 56.31 350.11 56.31 353.58 56.31 353.58 55.39 350.11 55.39 350.11 30.82 370.04 30.82 370.04 55.39 366.56 55.39 366.56 56.31 370.04 56.31 370.96 56.31 374.44 56.31 374.44 55.39 370.96 55.39 370.96 30.82 370.96 29.89 370.96 5.33 374.44 5.33 374.44 4.4 370.96 4.4 370.04 4.4"/><path class="acb0da15-dda8-4c09-b07d-a116710ff102" d="M141.58,6A1.39,1.39,0,0,1,143,7.43v7a1.39,1.39,0,0,1-1.39,1.39h-.93V57h.92A1.39,1.39,0,0,1,143,58.41v7a1.39,1.39,0,0,1-1.39,1.39H130a1.39,1.39,0,0,1-1.39-1.39v-7A1.39,1.39,0,0,1,130,57h.92V15.77H130a1.39,1.39,0,0,1-1.39-1.39v-7A1.39,1.39,0,0,1,130,6Z" transform="translate(0.43 -0.25)"/><g class="eca4c2f3-78f9-468f-aabc-b0fc2a0ee6b9"><path class="a7a41aae-ffc6-4b16-a482-622f868e5c25" d="M126.25,12.61l-3-3a1.39,1.39,0,0,0,1,.41l3,3A1.38,1.38,0,0,1,126.25,12.61Z" transform="translate(0.43 -0.25)"/><polygon class="e9af34fc-2dc9-448d-ab4c-461aed333ca8" points="125.55 9.73 128.59 12.77 127.66 12.77 124.63 9.73 125.55 9.73"/><path class="a115f278-49b8-47cf-849f-346af0f859c3" d="M136.77.65l3,3a1.38,1.38,0,0,1,.4,1l-3-3A1.42,1.42,0,0,0,136.77.65Z" transform="translate(0.43 -0.25)"/><polygon class="e9af34fc-2dc9-448d-ab4c-461aed333ca8" points="136.21 9.73 139.25 12.77 138.32 12.77 135.29 9.73 136.21 9.73"/><polygon class="b0cf6e02-7ebb-4b69-9d5c-70baba3b048b" points="137.6 1.39 140.64 4.42 140.64 11.38 137.6 8.34 137.6 1.39"/><path class="fe97b345-550f-4e02-9593-33a2a012549e" d="M137.18,8.59l3,3A1.39,1.39,0,0,1,138.82,13l-3-3A1.39,1.39,0,0,0,137.18,8.59Z" transform="translate(0.43 -0.25)"/><path class="af19a8cb-b133-4d37-bb8d-6103c6e32524" d="M126.24,63.59l-3-3a1.39,1.39,0,0,0,1,.41l3,3A1.39,1.39,0,0,1,126.24,63.59Z" transform="translate(0.43 -0.25)"/><polygon class="b0cf6e02-7ebb-4b69-9d5c-70baba3b048b" points="135.29 9.73 138.32 12.77 138.31 54.01 135.28 50.98 135.29 9.73"/><path class="b4a48fa6-b59d-475e-8e3a-bfd9ecf6739f" d="M136.76,51.63l3,3a1.38,1.38,0,0,1,.4,1l-3-3A1.42,1.42,0,0,0,136.76,51.63Z" transform="translate(0.43 -0.25)"/><polygon class="e9af34fc-2dc9-448d-ab4c-461aed333ca8" points="136.2 60.71 139.24 63.75 127.65 63.75 124.62 60.71 136.2 60.71"/><polygon class="b0cf6e02-7ebb-4b69-9d5c-70baba3b048b" points="137.6 52.37 140.63 55.4 140.63 62.36 137.59 59.32 137.6 52.37"/><path class="f14bb881-de39-47ca-b2be-1882a9a6d5f0" d="M137.17,59.57l3,3A1.39,1.39,0,0,1,138.81,64l-3-3A1.39,1.39,0,0,0,137.17,59.57Z" transform="translate(0.43 -0.25)"/></g><path class="ad534c8c-035c-40f5-8e1f-8b3c1600014f" d="M135.79.25a1.39,1.39,0,0,1,1.39,1.39v7A1.39,1.39,0,0,1,135.79,10h-.93V51.23h.93a1.39,1.39,0,0,1,1.39,1.39v7A1.39,1.39,0,0,1,135.78,61H124.19a1.39,1.39,0,0,1-1.39-1.39v-7a1.39,1.39,0,0,1,1.39-1.39h.93V10h-.93a1.39,1.39,0,0,1-1.39-1.39V1.64A1.39,1.39,0,0,1,124.2.25Z" transform="translate(0.43 -0.25)"/><polygon class="bedbc1bc-cc5b-4dea-ab06-38c4384486f2" points="133.89 55.85 136.21 52.37 133.89 52.37 130.42 55.85 133.89 55.85"/><polygon class="a71dcd24-0473-4448-a3c7-796762d09f50" points="136.21 59.33 136.21 52.37 133.89 55.85 136.21 59.33"/><polygon class="a71dcd24-0473-4448-a3c7-796762d09f50" points="130.42 55.85 133.89 52.37 133.89 8.34 130.42 4.87 130.42 55.85"/><polygon class="b75b477a-a5b6-45bf-8f74-e7147f58fdf2" points="130.42 55.85 126.94 55.85 124.62 59.33 136.21 59.33 133.89 55.85 130.42 55.85"/><polygon class="bedbc1bc-cc5b-4dea-ab06-38c4384486f2" points="126.94 4.87 130.42 4.87 133.89 4.87 136.21 1.39 124.62 1.39 126.94 4.87"/><polygon class="a71dcd24-0473-4448-a3c7-796762d09f50" points="136.21 8.34 136.21 1.39 133.89 4.87 136.21 8.34"/><polygon class="b75b477a-a5b6-45bf-8f74-e7147f58fdf2" points="130.42 4.87 133.89 8.34 136.21 8.34 133.89 4.87 130.42 4.87"/><polygon class="b75b477a-a5b6-45bf-8f74-e7147f58fdf2" points="126.94 4.87 124.62 8.34 126.94 8.34 130.42 4.87 126.94 4.87"/><polygon class="e6da05b2-1184-481a-ba68-e80ead6e6abc" points="124.62 52.37 124.62 59.33 126.94 55.85 124.62 52.37"/><polygon class="e6da05b2-1184-481a-ba68-e80ead6e6abc" points="124.62 1.39 124.62 8.34 126.94 4.87 124.62 1.39"/><polygon class="bedbc1bc-cc5b-4dea-ab06-38c4384486f2" points="130.42 55.85 126.94 52.37 124.62 52.37 126.94 55.85 130.42 55.85"/><polygon class="e6da05b2-1184-481a-ba68-e80ead6e6abc" points="130.42 4.87 126.94 8.34 126.94 52.37 130.42 55.85 130.42 4.87"/><polygon class="a71dcd24-0473-4448-a3c7-796762d09f50" points="129.95 4.4 126.48 4.4 126.48 5.33 129.95 5.33 129.95 55.39 126.48 55.39 126.48 56.31 129.95 56.31 130.88 56.31 134.36 56.31 134.36 55.39 130.88 55.39 130.88 5.33 134.36 5.33 134.36 4.4 130.88 4.4 129.95 4.4"/><path class="acb0da15-dda8-4c09-b07d-a116710ff102" d="M61.41,6A1.39,1.39,0,0,1,62.8,7.43v7a1.39,1.39,0,0,1-1.39,1.39h-.93V57H71.6v-.93A1.39,1.39,0,0,1,73,54.7h7a1.39,1.39,0,0,1,1.39,1.39v9.27a1.39,1.39,0,0,1-1.39,1.39H49.81a1.39,1.39,0,0,1-1.39-1.39v-7A1.39,1.39,0,0,1,49.81,57h.93V15.77h-.93a1.39,1.39,0,0,1-1.39-1.39v-7A1.39,1.39,0,0,1,49.82,6Z" transform="translate(0.43 -0.25)"/><g class="eca4c2f3-78f9-468f-aabc-b0fc2a0ee6b9"><path class="b383eeb7-ef22-4cd5-98d2-ade066c90c41" d="M46.08,12.61l-3-3A1.37,1.37,0,0,0,44,10l3,3A1.38,1.38,0,0,1,46.08,12.61Z" transform="translate(0.43 -0.25)"/><polygon class="e9af34fc-2dc9-448d-ab4c-461aed333ca8" points="45.38 9.73 48.41 12.77 47.49 12.77 44.45 9.73 45.38 9.73"/><path class="eb76870b-0554-498e-95ae-a66bd4f969ca" d="M56.6.65l3,3a1.39,1.39,0,0,1,.41,1l-3-3A1.42,1.42,0,0,0,56.6.65Z" transform="translate(0.43 -0.25)"/><polygon class="e9af34fc-2dc9-448d-ab4c-461aed333ca8" points="56.04 9.73 59.07 12.77 58.15 12.77 55.11 9.73 56.04 9.73"/><polygon class="b0cf6e02-7ebb-4b69-9d5c-70baba3b048b" points="57.43 1.39 60.47 4.42 60.46 11.38 57.43 8.34 57.43 1.39"/><path class="a9c01253-87ba-4f33-865b-a8a22a909302" d="M57,8.59l3,3A1.39,1.39,0,0,1,58.65,13l-3-3A1.4,1.4,0,0,0,57,8.59Z" transform="translate(0.43 -0.25)"/><path class="ab451b39-82bc-4f0a-852b-b1921a17cf3d" d="M46.07,63.59l-3-3A1.39,1.39,0,0,0,44,61l3,3A1.38,1.38,0,0,1,46.07,63.59Z" transform="translate(0.43 -0.25)"/><polygon class="b0cf6e02-7ebb-4b69-9d5c-70baba3b048b" points="55.11 9.73 58.15 12.77 58.14 54.01 55.11 50.98 55.11 9.73"/><path class="e5cff280-2bb9-403b-9aa1-04f821827fb1" d="M75.13,49.32l3,3a1.39,1.39,0,0,1,.41,1l-3-3A1.39,1.39,0,0,0,75.13,49.32Z" transform="translate(0.43 -0.25)"/><polygon class="e9af34fc-2dc9-448d-ab4c-461aed333ca8" points="74.57 60.71 77.6 63.75 47.48 63.75 44.45 60.71 74.57 60.71"/><polygon class="b0cf6e02-7ebb-4b69-9d5c-70baba3b048b" points="75.96 50.05 79 53.09 78.99 62.36 75.96 59.32 75.96 50.05"/><path class="a25b8523-1fe4-42e9-8bd2-387f5339fdba" d="M75.54,59.57l3,3A1.39,1.39,0,0,1,77.18,64l-3-3A1.4,1.4,0,0,0,75.54,59.57Z" transform="translate(0.43 -0.25)"/></g><path class="ad534c8c-035c-40f5-8e1f-8b3c1600014f" d="M55.62.25A1.39,1.39,0,0,1,57,1.64v7A1.4,1.4,0,0,1,55.61,10h-.92V51.23H65.8V50.3a1.4,1.4,0,0,1,1.4-1.39h7a1.39,1.39,0,0,1,1.39,1.39v9.27A1.4,1.4,0,0,1,74.14,61H44a1.39,1.39,0,0,1-1.39-1.39v-7A1.39,1.39,0,0,1,44,51.23H45V10H44a1.39,1.39,0,0,1-1.39-1.39V1.64A1.39,1.39,0,0,1,44,.25Z" transform="translate(0.43 -0.25)"/><polygon class="bedbc1bc-cc5b-4dea-ab06-38c4384486f2" points="50.24 55.85 46.77 52.37 44.45 52.37 46.77 55.85 50.24 55.85"/><polygon class="e6da05b2-1184-481a-ba68-e80ead6e6abc" points="50.24 4.87 46.77 8.34 46.77 52.37 50.24 55.85 50.24 4.87"/><polygon class="e6da05b2-1184-481a-ba68-e80ead6e6abc" points="44.45 52.37 44.45 59.33 46.77 55.85 44.45 52.37"/><polygon class="a71dcd24-0473-4448-a3c7-796762d09f50" points="71.1 55.85 74.58 59.33 74.58 50.06 71.1 52.37 71.1 55.85"/><polygon class="b75b477a-a5b6-45bf-8f74-e7147f58fdf2" points="50.24 55.85 46.77 55.85 44.45 59.33 74.58 59.33 71.1 55.85 50.24 55.85"/><polygon class="bedbc1bc-cc5b-4dea-ab06-38c4384486f2" points="71.1 52.37 74.58 50.06 67.63 50.06 71.1 52.37"/><polygon class="b75b477a-a5b6-45bf-8f74-e7147f58fdf2" points="46.77 4.87 44.45 8.34 46.77 8.34 50.24 4.87 46.77 4.87"/><polygon class="e6da05b2-1184-481a-ba68-e80ead6e6abc" points="71.1 52.37 67.63 50.06 67.63 52.37 71.1 55.85 71.1 52.37"/><polygon class="b75b477a-a5b6-45bf-8f74-e7147f58fdf2" points="50.24 4.87 53.72 8.34 56.04 8.34 53.72 4.87 50.24 4.87"/><polygon class="a71dcd24-0473-4448-a3c7-796762d09f50" points="50.24 55.85 53.72 52.37 53.72 8.34 50.24 4.87 50.24 55.85"/><polygon class="e6da05b2-1184-481a-ba68-e80ead6e6abc" points="44.45 1.39 44.45 8.34 46.77 4.87 44.45 1.39"/><polygon class="bedbc1bc-cc5b-4dea-ab06-38c4384486f2" points="71.1 55.85 67.63 52.37 53.72 52.37 50.24 55.85 71.1 55.85"/><polygon class="bedbc1bc-cc5b-4dea-ab06-38c4384486f2" points="50.24 4.87 53.72 4.87 56.04 1.39 44.45 1.39 46.77 4.87 50.24 4.87"/><polygon class="a71dcd24-0473-4448-a3c7-796762d09f50" points="56.04 8.34 56.04 1.39 53.72 4.87 56.04 8.34"/><polygon class="a71dcd24-0473-4448-a3c7-796762d09f50" points="70.64 55.39 50.71 55.39 50.71 5.33 54.18 5.33 54.18 4.4 46.3 4.4 46.3 5.33 49.78 5.33 49.78 55.39 46.3 55.39 46.3 56.31 49.78 56.31 50.71 56.31 71.56 56.31 71.56 51.91 70.64 51.91 70.64 55.39"/><path class="acb0da15-dda8-4c09-b07d-a116710ff102" d="M101.2,6a1.39,1.39,0,0,1,1.39,1.39v7a1.39,1.39,0,0,1-1.39,1.39h-.93V57h11.13v-.93a1.39,1.39,0,0,1,1.39-1.39h7a1.39,1.39,0,0,1,1.39,1.39v9.27a1.39,1.39,0,0,1-1.39,1.39H89.6a1.39,1.39,0,0,1-1.39-1.39v-7A1.39,1.39,0,0,1,89.6,57h.93V15.77h-.93a1.39,1.39,0,0,1-1.39-1.39v-7A1.39,1.39,0,0,1,89.61,6Z" transform="translate(0.43 -0.25)"/><g class="eca4c2f3-78f9-468f-aabc-b0fc2a0ee6b9"><path class="eec8ba18-3689-4b98-9bc5-46ab193fd88a" d="M85.87,12.61l-3-3a1.42,1.42,0,0,0,1,.41l3,3A1.38,1.38,0,0,1,85.87,12.61Z" transform="translate(0.43 -0.25)"/><polygon class="e9af34fc-2dc9-448d-ab4c-461aed333ca8" points="85.17 9.73 88.2 12.77 87.28 12.77 84.24 9.73 85.17 9.73"/><path class="a400fecc-1954-437f-9039-7c79acbfeb21" d="M96.39.65l3,3a1.39,1.39,0,0,1,.41,1l-3-3A1.42,1.42,0,0,0,96.39.65Z" transform="translate(0.43 -0.25)"/><polygon class="e9af34fc-2dc9-448d-ab4c-461aed333ca8" points="95.83 9.73 98.86 12.77 97.94 12.77 94.9 9.73 95.83 9.73"/><polygon class="b0cf6e02-7ebb-4b69-9d5c-70baba3b048b" points="97.22 1.39 100.25 4.42 100.25 11.38 97.22 8.34 97.22 1.39"/><path class="a5be6929-cea2-4890-b03b-4e30699d7433" d="M96.79,8.59l3,3A1.39,1.39,0,0,1,98.44,13l-3-3A1.39,1.39,0,0,0,96.79,8.59Z" transform="translate(0.43 -0.25)"/><path class="bfac4e58-1ad4-4257-b0de-afc05f1c32e5" d="M85.86,63.59l-3-3a1.37,1.37,0,0,0,1,.41l3,3A1.38,1.38,0,0,1,85.86,63.59Z" transform="translate(0.43 -0.25)"/><polygon class="b0cf6e02-7ebb-4b69-9d5c-70baba3b048b" points="94.9 9.73 97.94 12.77 97.93 54.01 94.89 50.98 94.9 9.73"/><path class="a7527a9b-961c-4000-972c-b960f9175547" d="M114.92,49.32l3,3a1.39,1.39,0,0,1,.41,1l-3-3A1.39,1.39,0,0,0,114.92,49.32Z" transform="translate(0.43 -0.25)"/><polygon class="e9af34fc-2dc9-448d-ab4c-461aed333ca8" points="114.36 60.71 117.39 63.75 87.27 63.75 84.23 60.71 114.36 60.71"/><polygon class="b0cf6e02-7ebb-4b69-9d5c-70baba3b048b" points="115.75 50.05 118.78 53.09 118.78 62.36 115.75 59.32 115.75 50.05"/><path class="a91932ff-6f25-4d4b-a59e-63d22c7de9e7" d="M115.32,59.57l3,3A1.39,1.39,0,0,1,117,64l-3-3A1.39,1.39,0,0,0,115.32,59.57Z" transform="translate(0.43 -0.25)"/></g><path class="ad534c8c-035c-40f5-8e1f-8b3c1600014f" d="M95.4.25a1.4,1.4,0,0,1,1.4,1.39v7A1.39,1.39,0,0,1,95.4,10h-.92V51.23h11.12V50.3A1.39,1.39,0,0,1,107,48.91h7a1.4,1.4,0,0,1,1.4,1.39v9.27A1.39,1.39,0,0,1,113.93,61H83.81a1.39,1.39,0,0,1-1.39-1.39v-7a1.39,1.39,0,0,1,1.39-1.39h.93V10h-.92a1.39,1.39,0,0,1-1.39-1.39V1.64A1.39,1.39,0,0,1,83.82.25Z" transform="translate(0.43 -0.25)"/><polygon class="bedbc1bc-cc5b-4dea-ab06-38c4384486f2" points="90.03 55.85 86.56 52.37 84.24 52.37 86.56 55.85 90.03 55.85"/><polygon class="e6da05b2-1184-481a-ba68-e80ead6e6abc" points="90.03 4.87 86.56 8.34 86.56 52.37 90.03 55.85 90.03 4.87"/><polygon class="e6da05b2-1184-481a-ba68-e80ead6e6abc" points="84.24 52.37 84.24 59.33 86.56 55.85 84.24 52.37"/><polygon class="a71dcd24-0473-4448-a3c7-796762d09f50" points="110.89 55.85 114.37 59.33 114.37 50.06 110.89 52.37 110.89 55.85"/><polygon class="b75b477a-a5b6-45bf-8f74-e7147f58fdf2" points="90.03 55.85 86.56 55.85 84.24 59.33 114.37 59.33 110.89 55.85 90.03 55.85"/><polygon class="bedbc1bc-cc5b-4dea-ab06-38c4384486f2" points="110.89 52.37 114.37 50.06 107.41 50.06 110.89 52.37"/><polygon class="b75b477a-a5b6-45bf-8f74-e7147f58fdf2" points="86.56 4.87 84.24 8.34 86.56 8.34 90.03 4.87 86.56 4.87"/><polygon class="e6da05b2-1184-481a-ba68-e80ead6e6abc" points="110.89 52.37 107.41 50.06 107.41 52.37 110.89 55.85 110.89 52.37"/><polygon class="b75b477a-a5b6-45bf-8f74-e7147f58fdf2" points="90.03 4.87 93.51 8.34 95.83 8.34 93.51 4.87 90.03 4.87"/><polygon class="a71dcd24-0473-4448-a3c7-796762d09f50" points="90.03 55.85 93.51 52.37 93.51 8.34 90.03 4.87 90.03 55.85"/><polygon class="e6da05b2-1184-481a-ba68-e80ead6e6abc" points="84.24 1.39 84.24 8.34 86.56 4.87 84.24 1.39"/><polygon class="bedbc1bc-cc5b-4dea-ab06-38c4384486f2" points="110.89 55.85 107.41 52.37 93.51 52.37 90.03 55.85 110.89 55.85"/><polygon class="bedbc1bc-cc5b-4dea-ab06-38c4384486f2" points="90.03 4.87 93.51 4.87 95.83 1.39 84.24 1.39 86.56 4.87 90.03 4.87"/><polygon class="a71dcd24-0473-4448-a3c7-796762d09f50" points="95.83 8.34 95.83 1.39 93.51 4.87 95.83 8.34"/><polygon class="a71dcd24-0473-4448-a3c7-796762d09f50" points="110.43 55.39 90.5 55.39 90.5 5.33 93.97 5.33 93.97 4.4 86.09 4.4 86.09 5.33 89.57 5.33 89.57 55.39 86.09 55.39 86.09 56.31 89.57 56.31 90.5 56.31 111.35 56.31 111.35 51.91 110.43 51.91 110.43 55.39"/><path class="acb0da15-dda8-4c09-b07d-a116710ff102" d="M265.51,6a1.39,1.39,0,0,1,1.39,1.39v7a1.39,1.39,0,0,1-1.39,1.39h-.93V57h.92a1.39,1.39,0,0,1,1.39,1.39v7a1.39,1.39,0,0,1-1.39,1.39h-9.44a1.39,1.39,0,0,1-1.31-.94l-11-32.34V57h.93A1.39,1.39,0,0,1,246,58.41v7a1.39,1.39,0,0,1-1.39,1.39H233.06a1.39,1.39,0,0,1-1.39-1.39v-7A1.39,1.39,0,0,1,233.06,57H234V15.77h-.92a1.39,1.39,0,0,1-1.39-1.39v-7A1.39,1.39,0,0,1,233.07,6h10.6A1.39,1.39,0,0,1,245,7l9.87,29V15.77h-.93a1.39,1.39,0,0,1-1.39-1.39v-7A1.4,1.4,0,0,1,253.93,6Z" transform="translate(0.43 -0.25)"/><g class="eca4c2f3-78f9-468f-aabc-b0fc2a0ee6b9"><path class="b8f376bd-86c5-4dd3-ad97-5665dbbc7116" d="M229.32,12.61l-3-3a1.39,1.39,0,0,0,1,.41l3,3A1.41,1.41,0,0,1,229.32,12.61Z" transform="translate(0.43 -0.25)"/><polygon class="e9af34fc-2dc9-448d-ab4c-461aed333ca8" points="228.63 9.73 231.66 12.77 230.73 12.77 227.7 9.73 228.63 9.73"/><path class="ae0b4a42-5af6-48ab-bec3-dc76374cd7a5" d="M238.86.65l3,3a1.39,1.39,0,0,1,.33.53l-3-3A1.48,1.48,0,0,0,238.86.65Z" transform="translate(0.43 -0.25)"/><path class="b5da4864-58b3-4a6b-837d-1d52e4e430d7" d="M250.18,12.61l-3-3a1.39,1.39,0,0,0,1,.41l3,3A1.38,1.38,0,0,1,250.18,12.61Z" transform="translate(0.43 -0.25)"/><polygon class="e9af34fc-2dc9-448d-ab4c-461aed333ca8" points="249.48 9.73 252.51 12.77 251.59 12.77 248.56 9.73 249.48 9.73"/><path class="a24c69e5-0909-4f71-8154-c2ee3d4e612d" d="M260.7.65l3,3a1.35,1.35,0,0,1,.41,1l-3-3A1.42,1.42,0,0,0,260.7.65Z" transform="translate(0.43 -0.25)"/><polygon class="e9af34fc-2dc9-448d-ab4c-461aed333ca8" points="260.14 9.73 263.18 12.77 262.25 12.77 259.21 9.73 260.14 9.73"/><polygon class="b0cf6e02-7ebb-4b69-9d5c-70baba3b048b" points="261.53 1.39 264.57 4.42 264.57 11.38 261.53 8.34 261.53 1.39"/><path class="b89d13cd-d1cd-4993-a44a-85b32cafbfb7" d="M261.11,8.59l3,3A1.39,1.39,0,0,1,262.75,13l-3-3A1.39,1.39,0,0,0,261.11,8.59Z" transform="translate(0.43 -0.25)"/><polygon class="b0cf6e02-7ebb-4b69-9d5c-70baba3b048b" points="239.62 0.94 242.65 3.98 252.51 32.92 249.48 29.89 239.62 0.94"/><path class="e43cb1dc-f41a-4301-abe6-d13004f557a1" d="M229.32,63.59l-3-3a1.4,1.4,0,0,0,1,.41l3,3A1.37,1.37,0,0,1,229.32,63.59Z" transform="translate(0.43 -0.25)"/><polygon class="b0cf6e02-7ebb-4b69-9d5c-70baba3b048b" points="238.36 27.43 241.39 30.46 241.39 54.01 238.35 50.98 238.36 27.43"/><path class="add899e7-c768-498b-883a-c543b09b47c7" d="M239.84,51.63l3,3a1.39,1.39,0,0,1,.41,1l-3-3A1.41,1.41,0,0,0,239.84,51.63Z" transform="translate(0.43 -0.25)"/><polygon class="e9af34fc-2dc9-448d-ab4c-461aed333ca8" points="239.28 60.71 242.31 63.75 230.72 63.75 227.69 60.71 239.28 60.71"/><polygon class="b0cf6e02-7ebb-4b69-9d5c-70baba3b048b" points="240.67 52.37 243.7 55.4 243.7 62.36 240.67 59.32 240.67 52.37"/><path class="f340d429-eced-4363-9489-8b00795798b0" d="M240.24,59.57l3,3A1.39,1.39,0,0,1,241.89,64l-3-3A1.39,1.39,0,0,0,240.24,59.57Z" transform="translate(0.43 -0.25)"/><polygon class="b0cf6e02-7ebb-4b69-9d5c-70baba3b048b" points="259.21 9.73 262.25 12.77 262.24 54.01 259.21 50.98 259.21 9.73"/><path class="accafc62-7ac4-428e-a64e-e9766db7f38c" d="M252.32,63.59l-3-3a1.35,1.35,0,0,0,1,.41l3,3A1.38,1.38,0,0,1,252.32,63.59Z" transform="translate(0.43 -0.25)"/><path class="a2d501ae-fca3-4e7c-b920-3294c56b1546" d="M260.69,51.63l3,3a1.38,1.38,0,0,1,.4,1l-3-3A1.42,1.42,0,0,0,260.69,51.63Z" transform="translate(0.43 -0.25)"/><polygon class="e9af34fc-2dc9-448d-ab4c-461aed333ca8" points="260.13 60.71 263.17 63.75 253.73 63.75 250.69 60.71 260.13 60.71"/><polygon class="b0cf6e02-7ebb-4b69-9d5c-70baba3b048b" points="261.52 52.37 264.56 55.4 264.56 62.36 261.52 59.32 261.52 52.37"/><path class="f16c5262-58de-4d88-aed8-f6d48e1947d4" d="M261.1,59.57l3,3A1.39,1.39,0,0,1,262.74,64l-3-3A1.39,1.39,0,0,0,261.1,59.57Z" transform="translate(0.43 -0.25)"/></g><path class="ad534c8c-035c-40f5-8e1f-8b3c1600014f" d="M259.72.25a1.39,1.39,0,0,1,1.39,1.39v7A1.39,1.39,0,0,1,259.72,10h-.93V51.23h.93a1.39,1.39,0,0,1,1.39,1.39v7A1.39,1.39,0,0,1,259.71,61h-9.44A1.39,1.39,0,0,1,249,60l-11-32.35V51.23h.92a1.39,1.39,0,0,1,1.39,1.39v7A1.39,1.39,0,0,1,238.85,61H227.27a1.39,1.39,0,0,1-1.39-1.39v-7a1.39,1.39,0,0,1,1.39-1.39h.92V10h-.93a1.39,1.39,0,0,1-1.39-1.39V1.64A1.39,1.39,0,0,1,227.28.25h10.59a1.39,1.39,0,0,1,1.32.94l9.86,29V10h-.93a1.39,1.39,0,0,1-1.39-1.39V1.64A1.39,1.39,0,0,1,248.13.25Z" transform="translate(0.43 -0.25)"/><polygon class="a71dcd24-0473-4448-a3c7-796762d09f50" points="233.49 4.87 233.49 55.85 236.97 52.37 236.97 19.04 234.71 4.87 233.49 4.87"/><polygon class="a2526fea-9dd1-4a2e-8a82-4b4d18887935" points="235.81 4.87 234.71 4.87 236.97 19.04 250.7 59.33 253.19 55.85 235.81 4.87"/><polygon class="a71dcd24-0473-4448-a3c7-796762d09f50" points="260.14 59.33 260.14 52.37 257.82 55.85 260.14 59.33"/><polygon class="b75b477a-a5b6-45bf-8f74-e7147f58fdf2" points="254.35 55.85 253.19 55.85 250.7 59.33 260.14 59.33 257.82 55.85 254.35 55.85"/><polygon class="bedbc1bc-cc5b-4dea-ab06-38c4384486f2" points="236.97 55.85 239.28 52.37 236.97 52.37 233.49 55.85 236.97 55.85"/><polygon class="a71dcd24-0473-4448-a3c7-796762d09f50" points="239.28 59.33 239.28 52.37 236.97 55.85 239.28 59.33"/><polygon class="b75b477a-a5b6-45bf-8f74-e7147f58fdf2" points="254.35 4.87 257.82 8.34 260.14 8.34 257.82 4.87 254.35 4.87"/><polygon class="bedbc1bc-cc5b-4dea-ab06-38c4384486f2" points="250.87 4.87 254.35 4.87 257.82 4.87 260.14 1.39 248.55 1.39 250.87 4.87"/><polygon class="bedbc1bc-cc5b-4dea-ab06-38c4384486f2" points="257.82 55.85 260.14 52.37 257.82 52.37 254.35 55.85 257.82 55.85"/><polygon class="a71dcd24-0473-4448-a3c7-796762d09f50" points="260.14 8.34 260.14 1.39 257.82 4.87 260.14 8.34"/><polygon class="b75b477a-a5b6-45bf-8f74-e7147f58fdf2" points="233.49 55.85 230.01 55.85 227.7 59.33 239.28 59.33 236.97 55.85 233.49 55.85"/><polygon class="a71dcd24-0473-4448-a3c7-796762d09f50" points="254.35 55.85 257.82 52.37 257.82 8.34 254.35 4.87 254.35 55.85"/><polygon class="e6da05b2-1184-481a-ba68-e80ead6e6abc" points="227.7 52.37 227.7 59.33 230.01 55.85 227.7 52.37"/><polygon class="bedbc1bc-cc5b-4dea-ab06-38c4384486f2" points="233.49 55.85 230.01 52.37 227.7 52.37 230.01 55.85 233.49 55.85"/><polygon class="e6da05b2-1184-481a-ba68-e80ead6e6abc" points="248.55 1.39 248.55 8.34 250.87 4.87 248.55 1.39"/><polygon class="e6da05b2-1184-481a-ba68-e80ead6e6abc" points="233.49 4.87 230.01 8.34 230.01 52.37 233.49 55.85 233.49 4.87"/><polygon class="e6da05b2-1184-481a-ba68-e80ead6e6abc" points="227.7 1.39 227.7 8.34 230.01 4.87 227.7 1.39"/><polygon class="b75b477a-a5b6-45bf-8f74-e7147f58fdf2" points="230.01 4.87 227.7 8.34 230.01 8.34 233.49 4.87 230.01 4.87"/><polygon class="bedbc1bc-cc5b-4dea-ab06-38c4384486f2" points="233.49 4.87 235.81 4.87 238.29 1.39 227.7 1.39 230.01 4.87 233.49 4.87"/><polygon class="b75b477a-a5b6-45bf-8f74-e7147f58fdf2" points="250.87 4.87 248.55 8.34 250.87 8.34 254.35 4.87 250.87 4.87"/><polygon class="e6da05b2-1184-481a-ba68-e80ead6e6abc" points="254.35 55.85 254.35 4.87 250.87 8.34 250.87 38.28 253.19 55.85 254.35 55.85"/><polygon class="b355a42a-5d33-447a-830b-a7122b3c05d5" points="250.87 38.28 238.29 1.39 235.81 4.87 253.19 55.85 253.78 55.85 250.87 38.28"/><polygon class="a71dcd24-0473-4448-a3c7-796762d09f50" points="253.88 4.4 250.41 4.4 250.41 5.33 253.88 5.33 253.88 55.39 253.52 55.39 236.14 4.4 233.95 4.4 233.03 4.4 229.55 4.4 229.55 5.33 233.03 5.33 233.03 55.39 229.55 55.39 229.55 56.31 233.03 56.31 233.95 56.31 237.43 56.31 237.43 55.39 233.95 55.39 233.95 5.33 235.47 5.33 252.86 56.31 253.88 56.31 254.81 56.31 258.29 56.31 258.29 55.39 254.81 55.39 254.81 5.33 258.29 5.33 258.29 4.4 254.81 4.4 253.88 4.4"/><path class="acb0da15-dda8-4c09-b07d-a116710ff102" d="M466.76,6a1.39,1.39,0,0,1,1.39,1.39v7a1.39,1.39,0,0,1-1.39,1.39h-.93V57h.92a1.39,1.39,0,0,1,1.39,1.39v7a1.39,1.39,0,0,1-1.39,1.39h-9.44a1.39,1.39,0,0,1-1.31-.94L445,33.47V57h.93a1.39,1.39,0,0,1,1.39,1.39v7a1.39,1.39,0,0,1-1.39,1.39H434.31a1.39,1.39,0,0,1-1.39-1.39v-7A1.39,1.39,0,0,1,434.31,57h.93V15.77h-.93a1.39,1.39,0,0,1-1.39-1.39v-7A1.39,1.39,0,0,1,434.32,6h10.6a1.39,1.39,0,0,1,1.31.94l9.87,29V15.77h-.92a1.4,1.4,0,0,1-1.4-1.39v-7A1.39,1.39,0,0,1,455.18,6Z" transform="translate(0.43 -0.25)"/><g class="eca4c2f3-78f9-468f-aabc-b0fc2a0ee6b9"><path class="f49c2a2a-e05d-4b26-b83e-51075b64cb09" d="M430.58,12.61l-3-3a1.4,1.4,0,0,0,1,.41l3,3A1.37,1.37,0,0,1,430.58,12.61Z" transform="translate(0.43 -0.25)"/><polygon class="e9af34fc-2dc9-448d-ab4c-461aed333ca8" points="429.88 9.73 432.91 12.77 431.99 12.77 428.95 9.73 429.88 9.73"/><path class="ad7a030e-8bc2-48f9-bcd8-bb3babdff8a2" d="M440.11.65l3,3a1.39,1.39,0,0,1,.33.53l-3-3A1.36,1.36,0,0,0,440.11.65Z" transform="translate(0.43 -0.25)"/><path class="a52847c3-0e96-4208-a783-bf283a75c3a1" d="M451.43,12.61l-3-3a1.39,1.39,0,0,0,1,.41l3,3A1.38,1.38,0,0,1,451.43,12.61Z" transform="translate(0.43 -0.25)"/><polygon class="e9af34fc-2dc9-448d-ab4c-461aed333ca8" points="450.73 9.73 453.77 12.77 452.84 12.77 449.81 9.73 450.73 9.73"/><path class="e0a82f69-9567-4d01-b5fb-5c6e1efd6529" d="M462,.65l3,3a1.38,1.38,0,0,1,.4,1l-3-3A1.42,1.42,0,0,0,462,.65Z" transform="translate(0.43 -0.25)"/><polygon class="e9af34fc-2dc9-448d-ab4c-461aed333ca8" points="461.39 9.73 464.43 12.77 463.5 12.77 460.47 9.73 461.39 9.73"/><polygon class="b0cf6e02-7ebb-4b69-9d5c-70baba3b048b" points="462.79 1.39 465.82 4.42 465.82 11.38 462.78 8.34 462.79 1.39"/><path class="ed42c0f6-ffa2-406f-b8ac-4323a64488f1" d="M462.36,8.59l3,3A1.39,1.39,0,0,1,464,13l-3-3A1.39,1.39,0,0,0,462.36,8.59Z" transform="translate(0.43 -0.25)"/><polygon class="b0cf6e02-7ebb-4b69-9d5c-70baba3b048b" points="440.87 0.94 443.9 3.98 453.76 32.92 450.73 29.89 440.87 0.94"/><path class="bed9cc7d-f863-4cfa-9fbc-11e77bd1251b" d="M430.57,63.59l-3-3a1.4,1.4,0,0,0,1,.41l3,3A1.38,1.38,0,0,1,430.57,63.59Z" transform="translate(0.43 -0.25)"/><polygon class="b0cf6e02-7ebb-4b69-9d5c-70baba3b048b" points="439.61 27.43 442.64 30.46 442.64 54.01 439.6 50.98 439.61 27.43"/><path class="a7d1c293-da8f-4ae9-a2ee-3e6f320731a4" d="M441.09,51.63l3,3a1.39,1.39,0,0,1,.41,1l-3-3A1.41,1.41,0,0,0,441.09,51.63Z" transform="translate(0.43 -0.25)"/><polygon class="e9af34fc-2dc9-448d-ab4c-461aed333ca8" points="440.53 60.71 443.56 63.75 431.98 63.75 428.94 60.71 440.53 60.71"/><polygon class="b0cf6e02-7ebb-4b69-9d5c-70baba3b048b" points="441.92 52.37 444.95 55.4 444.95 62.36 441.92 59.32 441.92 52.37"/><path class="b5c64700-4008-4b78-9c56-0ce3c43da4dd" d="M441.49,59.57l3,3A1.39,1.39,0,0,1,443.14,64l-3-3A1.39,1.39,0,0,0,441.49,59.57Z" transform="translate(0.43 -0.25)"/><polygon class="b0cf6e02-7ebb-4b69-9d5c-70baba3b048b" points="460.47 9.73 463.5 12.77 463.49 54.01 460.46 50.98 460.47 9.73"/><path class="a5b6bee6-e281-4863-8e1d-66a8c1849c8b" d="M453.57,63.59l-3-3a1.35,1.35,0,0,0,1,.41l3,3A1.4,1.4,0,0,1,453.57,63.59Z" transform="translate(0.43 -0.25)"/><path class="e879870e-7e1c-45d8-afdb-6d53c8271419" d="M461.94,51.63l3,3a1.38,1.38,0,0,1,.4,1l-3-3A1.42,1.42,0,0,0,461.94,51.63Z" transform="translate(0.43 -0.25)"/><polygon class="e9af34fc-2dc9-448d-ab4c-461aed333ca8" points="461.38 60.71 464.42 63.75 454.98 63.75 451.94 60.71 461.38 60.71"/><polygon class="b0cf6e02-7ebb-4b69-9d5c-70baba3b048b" points="462.78 52.37 465.81 55.4 465.81 62.36 462.77 59.32 462.78 52.37"/><path class="b7551031-99b0-4465-8657-258a8a6ae522" d="M462.35,59.57l3,3A1.39,1.39,0,0,1,464,64l-3-3A1.39,1.39,0,0,0,462.35,59.57Z" transform="translate(0.43 -0.25)"/></g><path class="ad534c8c-035c-40f5-8e1f-8b3c1600014f" d="M461,.25a1.39,1.39,0,0,1,1.39,1.39v7A1.39,1.39,0,0,1,461,10H460V51.23H461a1.39,1.39,0,0,1,1.39,1.39v7A1.39,1.39,0,0,1,461,61h-9.44A1.4,1.4,0,0,1,450.2,60l-11-32.35V51.23h.93a1.38,1.38,0,0,1,1.38,1.39v7A1.39,1.39,0,0,1,440.1,61H428.52a1.39,1.39,0,0,1-1.39-1.39v-7a1.39,1.39,0,0,1,1.39-1.39h.92V10h-.92a1.38,1.38,0,0,1-1.39-1.39V1.64A1.39,1.39,0,0,1,428.53.25h10.6a1.39,1.39,0,0,1,1.31.94l9.86,29V10h-.93A1.39,1.39,0,0,1,448,8.59V1.64A1.39,1.39,0,0,1,449.38.25Z" transform="translate(0.43 -0.25)"/><polygon class="a71dcd24-0473-4448-a3c7-796762d09f50" points="434.74 4.87 434.74 55.85 438.22 52.37 438.22 19.04 435.96 4.87 434.74 4.87"/><polygon class="a2526fea-9dd1-4a2e-8a82-4b4d18887935" points="437.06 4.87 435.96 4.87 438.22 19.04 451.95 59.33 454.44 55.85 437.06 4.87"/><polygon class="a71dcd24-0473-4448-a3c7-796762d09f50" points="461.39 59.33 461.39 52.37 459.07 55.85 461.39 59.33"/><polygon class="b75b477a-a5b6-45bf-8f74-e7147f58fdf2" points="455.6 55.85 454.44 55.85 451.95 59.33 461.39 59.33 459.07 55.85 455.6 55.85"/><polygon class="bedbc1bc-cc5b-4dea-ab06-38c4384486f2" points="438.22 55.85 440.53 52.37 438.22 52.37 434.74 55.85 438.22 55.85"/><polygon class="a71dcd24-0473-4448-a3c7-796762d09f50" points="440.53 59.33 440.53 52.37 438.22 55.85 440.53 59.33"/><polygon class="b75b477a-a5b6-45bf-8f74-e7147f58fdf2" points="455.6 4.87 459.07 8.34 461.39 8.34 459.07 4.87 455.6 4.87"/><polygon class="bedbc1bc-cc5b-4dea-ab06-38c4384486f2" points="452.12 4.87 455.6 4.87 459.07 4.87 461.39 1.39 449.8 1.39 452.12 4.87"/><polygon class="bedbc1bc-cc5b-4dea-ab06-38c4384486f2" points="459.07 55.85 461.39 52.37 459.07 52.37 455.6 55.85 459.07 55.85"/><polygon class="a71dcd24-0473-4448-a3c7-796762d09f50" points="461.39 8.34 461.39 1.39 459.07 4.87 461.39 8.34"/><polygon class="b75b477a-a5b6-45bf-8f74-e7147f58fdf2" points="434.74 55.85 431.26 55.85 428.95 59.33 440.53 59.33 438.22 55.85 434.74 55.85"/><polygon class="a71dcd24-0473-4448-a3c7-796762d09f50" points="455.6 55.85 459.07 52.37 459.07 8.34 455.6 4.87 455.6 55.85"/><polygon class="e6da05b2-1184-481a-ba68-e80ead6e6abc" points="428.95 52.37 428.95 59.33 431.26 55.85 428.95 52.37"/><polygon class="bedbc1bc-cc5b-4dea-ab06-38c4384486f2" points="434.74 55.85 431.26 52.37 428.95 52.37 431.26 55.85 434.74 55.85"/><polygon class="e6da05b2-1184-481a-ba68-e80ead6e6abc" points="449.8 1.39 449.8 8.34 452.12 4.87 449.8 1.39"/><polygon class="e6da05b2-1184-481a-ba68-e80ead6e6abc" points="434.74 4.87 431.26 8.34 431.26 52.37 434.74 55.85 434.74 4.87"/><polygon class="e6da05b2-1184-481a-ba68-e80ead6e6abc" points="428.95 1.39 428.95 8.34 431.26 4.87 428.95 1.39"/><polygon class="b75b477a-a5b6-45bf-8f74-e7147f58fdf2" points="431.26 4.87 428.95 8.34 431.26 8.34 434.74 4.87 431.26 4.87"/><polygon class="bedbc1bc-cc5b-4dea-ab06-38c4384486f2" points="434.74 4.87 437.06 4.87 439.55 1.39 428.95 1.39 431.26 4.87 434.74 4.87"/><polygon class="b75b477a-a5b6-45bf-8f74-e7147f58fdf2" points="452.12 4.87 449.8 8.34 452.12 8.34 455.6 4.87 452.12 4.87"/><polygon class="e6da05b2-1184-481a-ba68-e80ead6e6abc" points="455.6 55.85 455.6 4.87 452.12 8.34 452.12 38.28 454.44 55.85 455.6 55.85"/><polygon class="b355a42a-5d33-447a-830b-a7122b3c05d5" points="452.12 38.28 439.55 1.39 437.06 4.87 454.44 55.85 455.03 55.85 452.12 38.28"/><polygon class="a71dcd24-0473-4448-a3c7-796762d09f50" points="455.13 4.4 451.66 4.4 451.66 5.33 455.13 5.33 455.13 55.39 454.77 55.39 437.39 4.4 435.2 4.4 434.28 4.4 430.8 4.4 430.8 5.33 434.28 5.33 434.28 55.39 430.8 55.39 430.8 56.31 434.28 56.31 435.2 56.31 438.68 56.31 438.68 55.39 435.2 55.39 435.2 5.33 436.73 5.33 454.11 56.31 455.13 56.31 456.06 56.31 459.54 56.31 459.54 55.39 456.06 55.39 456.06 5.33 459.54 5.33 459.54 4.4 456.06 4.4 455.13 4.4"/><path class="acb0da15-dda8-4c09-b07d-a116710ff102" d="M222.13,14.28a1.39,1.39,0,0,1,.41,1V57.53a1.4,1.4,0,0,1-.4,1l-7.83,7.83a1.4,1.4,0,0,1-1,.4H201.16a1.39,1.39,0,0,1-1-.4l-7.83-7.83a1.4,1.4,0,0,1-.4-1V15.26a1.39,1.39,0,0,1,.41-1l7.83-7.83a1.4,1.4,0,0,1,1-.41h12.15a1.41,1.41,0,0,1,1,.41Zm-9.33,39.8V18.72l-2.94-2.95h-5.24l-2.95,2.95V54.08L204.62,57h5.24l2.94-2.94" transform="translate(0.43 -0.25)"/><g class="eca4c2f3-78f9-468f-aabc-b0fc2a0ee6b9"><rect class="a21ec4bd-9e9b-4a53-a1fa-a36cac280f14" x="196.8" y="10.82" width="4.16" height="4.29" transform="translate(49.5 144.17) rotate(-45)"/><polygon class="e9af34fc-2dc9-448d-ab4c-461aed333ca8" points="204.5 9.73 207.53 12.77 202.29 12.77 199.26 9.73 204.5 9.73"/><path class="fcd86e70-8545-4bb5-995d-242930eb3cd1" d="M216.34,8.48l3,3a1.39,1.39,0,0,1,.41,1l-3-3A1.41,1.41,0,0,0,216.34,8.48Z" transform="translate(0.43 -0.25)"/><polygon class="b0cf6e02-7ebb-4b69-9d5c-70baba3b048b" points="196.32 12.68 199.35 15.71 199.34 51.07 196.31 48.04 196.32 12.68"/><path class="b1940dd1-c30e-4323-827a-6b40b2846830" d="M195.37,61l3,3a1.38,1.38,0,0,1-1-.4l-3-3A1.39,1.39,0,0,0,195.37,61Z" transform="translate(0.43 -0.25)"/><polygon class="e9af34fc-2dc9-448d-ab4c-461aed333ca8" points="207.94 60.71 210.98 63.75 198.83 63.75 195.8 60.71 207.94 60.71"/><polygon class="b0cf6e02-7ebb-4b69-9d5c-70baba3b048b" points="217.17 9.22 220.21 12.25 220.2 54.53 217.16 51.49 217.17 9.22"/><path class="aa8b39a5-cd68-4c29-a876-fcbca05e691f" d="M208.5,60.55l3,3a1.42,1.42,0,0,1-1,.4l-3-3A1.39,1.39,0,0,0,208.5,60.55Z" transform="translate(0.43 -0.25)"/><path class="abaf50d9-bf08-4dfe-b0d4-19aef361f760" d="M216.74,51.74l3,3a1.4,1.4,0,0,1-.4,1l-3-3A1.39,1.39,0,0,0,216.74,51.74Z" transform="translate(0.43 -0.25)"/><rect class="a21ec4bd-9e9b-4a53-a1fa-a36cac280f14" x="208.4" y="56.01" width="11.07" height="4.29" transform="translate(21.96 168.05) rotate(-45)"/></g><path class="ad534c8c-035c-40f5-8e1f-8b3c1600014f" d="M216.34,8.48a1.41,1.41,0,0,1,.41,1V51.74a1.39,1.39,0,0,1-.41,1l-7.83,7.83a1.39,1.39,0,0,1-1,.41H195.37a1.39,1.39,0,0,1-1-.41l-7.83-7.83a1.39,1.39,0,0,1-.41-1V9.47a1.41,1.41,0,0,1,.41-1L194.4.65a1.38,1.38,0,0,1,1-.4h12.15a1.38,1.38,0,0,1,1,.4ZM207,48.28V12.92L204.07,10h-5.24l-2.94,2.94V48.28l3,2.95h5.23L207,48.28" transform="translate(0.43 -0.25)"/><polygon class="a2526fea-9dd1-4a2e-8a82-4b4d18887935" points="191.45 50.06 187.97 51.5 195.8 59.33 197.24 55.85 191.45 50.06"/><polygon class="b355a42a-5d33-447a-830b-a7122b3c05d5" points="206.51 4.87 212.31 10.66 215.78 9.22 207.95 1.39 206.51 4.87"/><polygon class="e6da05b2-1184-481a-ba68-e80ead6e6abc" points="191.45 10.66 187.97 9.22 187.97 51.5 191.45 50.06 191.45 10.66"/><polygon class="fb9a6690-346e-4a02-81ff-24a2d18513dd" points="206.51 55.85 207.95 59.33 215.78 51.5 212.31 50.06 206.51 55.85"/><polygon class="b75b477a-a5b6-45bf-8f74-e7147f58fdf2" points="197.24 55.85 195.8 59.33 207.95 59.33 206.51 55.85 197.24 55.85"/><polygon class="a71dcd24-0473-4448-a3c7-796762d09f50" points="212.31 50.06 215.78 51.5 215.78 9.22 212.31 10.66 212.31 50.06"/><polygon class="a7f2ff35-f36c-4c30-a93a-4894b3098e91" points="197.24 4.87 195.8 1.39 187.97 9.22 191.45 10.66 197.24 4.87"/><polygon class="bedbc1bc-cc5b-4dea-ab06-38c4384486f2" points="206.51 4.87 207.95 1.39 195.8 1.39 197.24 4.87 206.51 4.87"/><polygon class="b355a42a-5d33-447a-830b-a7122b3c05d5" points="194.92 48.62 191.45 50.06 197.24 55.85 198.68 52.37 194.92 48.62"/><polygon class="bedbc1bc-cc5b-4dea-ab06-38c4384486f2" points="198.68 52.37 197.24 55.85 206.51 55.85 205.07 52.37 198.68 52.37"/><polygon class="a71dcd24-0473-4448-a3c7-796762d09f50" points="194.92 12.1 191.45 10.66 191.45 50.06 194.92 48.62 194.92 12.1"/><polygon class="fb9a6690-346e-4a02-81ff-24a2d18513dd" points="198.68 8.34 197.24 4.87 191.45 10.66 194.92 12.1 198.68 8.34"/><polygon class="a2526fea-9dd1-4a2e-8a82-4b4d18887935" points="208.83 12.1 212.31 10.66 206.51 4.87 205.07 8.34 208.83 12.1"/><polygon class="a7f2ff35-f36c-4c30-a93a-4894b3098e91" points="205.07 52.37 206.51 55.85 212.31 50.06 208.83 48.62 205.07 52.37"/><polygon class="b75b477a-a5b6-45bf-8f74-e7147f58fdf2" points="198.68 8.34 205.07 8.34 206.51 4.87 197.24 4.87 198.68 8.34"/><polygon class="e6da05b2-1184-481a-ba68-e80ead6e6abc" points="208.83 48.62 212.31 50.06 212.31 10.66 208.83 12.1 208.83 48.62"/><path class="a71dcd24-0473-4448-a3c7-796762d09f50" d="M196.62,4.65l-6.06,6.06V50.49l6.06,6.07h9.66l6.06-6.07V10.71l-6.06-6.06Zm14.8,45.46-5.53,5.52H197l-5.52-5.52v-39L197,5.57h8.88l5.53,5.53Z" transform="translate(0.43 -0.25)"/><path class="acb0da15-dda8-4c09-b07d-a116710ff102" d="M173.6,6a1.39,1.39,0,0,1,1,.41l7.83,7.83a1.39,1.39,0,0,1,.41,1v9.55a1.4,1.4,0,0,1-1.4,1.39h-6.95a1.39,1.39,0,0,1-1.39-1.39V18.72l-2.94-2.95H164.9L162,18.72v6.22l20.39,18.13a1.4,1.4,0,0,1,.46,1V57.53a1.41,1.41,0,0,1-.41,1l-7.83,7.83a1.38,1.38,0,0,1-1,.4H161.44a1.38,1.38,0,0,1-1-.4l-7.83-7.83a1.41,1.41,0,0,1-.41-1V48a1.4,1.4,0,0,1,1.39-1.39h7A1.4,1.4,0,0,1,162,48v6.1L164.9,57h5.23l3-2.94V47.85L152.69,29.73a1.42,1.42,0,0,1-.46-1V15.26a1.39,1.39,0,0,1,.41-1l7.83-7.83a1.39,1.39,0,0,1,1-.41Z" transform="translate(0.43 -0.25)"/><g class="eca4c2f3-78f9-468f-aabc-b0fc2a0ee6b9"><rect class="a21ec4bd-9e9b-4a53-a1fa-a36cac280f14" x="157.08" y="10.82" width="4.16" height="4.29" transform="translate(37.87 116.09) rotate(-45)"/><polygon class="e9af34fc-2dc9-448d-ab4c-461aed333ca8" points="164.77 9.73 167.81 12.77 162.57 12.77 159.54 9.73 164.77 9.73"/><polygon class="b0cf6e02-7ebb-4b69-9d5c-70baba3b048b" points="156.59 12.68 159.63 15.71 159.63 21.94 156.59 18.9 156.59 12.68"/><path class="fd3c7c2d-39e4-43e9-8397-c7d466b276ae" d="M176.62,8.48l3,3a1.39,1.39,0,0,1,.41,1l-3-3A1.4,1.4,0,0,0,176.62,8.48Z" transform="translate(0.43 -0.25)"/><path class="e5e64133-2214-4112-8d8c-df26058d648b" d="M170.73,23l-3-3a1.39,1.39,0,0,0,1,.41l3,3A1.39,1.39,0,0,1,170.73,23Z" transform="translate(0.43 -0.25)"/><polygon class="e9af34fc-2dc9-448d-ab4c-461aed333ca8" points="176.06 20.16 179.09 23.19 172.14 23.19 169.1 20.16 176.06 20.16"/><polygon class="b0cf6e02-7ebb-4b69-9d5c-70baba3b048b" points="177.45 9.22 180.48 12.25 180.48 21.8 177.45 18.77 177.45 9.22"/><path class="fc5777e8-e3dd-4cd0-bfb7-6c0324b0aa31" d="M177,19l3,3a1.4,1.4,0,0,1-1.4,1.39l-3-3A1.39,1.39,0,0,0,177,19Z" transform="translate(0.43 -0.25)"/><path class="e7733997-a2f9-4e86-b57d-ba0282496579" d="M155.76,41.21l3,3a1.39,1.39,0,0,1,.41,1l-3-3A1.38,1.38,0,0,0,155.76,41.21Z" transform="translate(0.43 -0.25)"/><polygon class="b0cf6e02-7ebb-4b69-9d5c-70baba3b048b" points="156.59 41.94 159.62 44.98 159.62 51.07 156.59 48.04 156.59 41.94"/><polygon class="b0cf6e02-7ebb-4b69-9d5c-70baba3b048b" points="167.71 41.81 170.74 44.84 150.36 26.72 147.32 23.69 167.71 41.81"/><path class="f98bc251-d0b9-40e7-909e-a4709975fcfd" d="M176.61,37.33l3,3a1.39,1.39,0,0,1,.4,1l-3-3A1.39,1.39,0,0,0,176.61,37.33Z" transform="translate(0.43 -0.25)"/><path class="ba334b78-81d3-40b9-bde2-edb85c2b16d4" d="M155.65,61l3,3a1.38,1.38,0,0,1-1-.4l-3-3A1.41,1.41,0,0,0,155.65,61Z" transform="translate(0.43 -0.25)"/><polygon class="e9af34fc-2dc9-448d-ab4c-461aed333ca8" points="168.22 60.71 171.25 63.75 159.1 63.75 156.07 60.71 168.22 60.71"/><polygon class="b0cf6e02-7ebb-4b69-9d5c-70baba3b048b" points="177.44 38.06 180.48 41.1 180.48 54.53 177.44 51.49 177.44 38.06"/><path class="fab45b7e-aa90-4795-9fe1-b2a0fe04be85" d="M168.78,60.55l3,3a1.38,1.38,0,0,1-1,.4l-3-3A1.41,1.41,0,0,0,168.78,60.55Z" transform="translate(0.43 -0.25)"/><path class="f513d96f-b16f-4e4d-85e5-adab4f08bab0" d="M177,51.74l3,3a1.41,1.41,0,0,1-.41,1l-3-3A1.39,1.39,0,0,0,177,51.74Z" transform="translate(0.43 -0.25)"/><rect class="a21ec4bd-9e9b-4a53-a1fa-a36cac280f14" x="168.67" y="56.01" width="11.07" height="4.29" transform="translate(10.33 139.97) rotate(-45)"/></g><path class="ad534c8c-035c-40f5-8e1f-8b3c1600014f" d="M167.81.25a1.39,1.39,0,0,1,1,.4l7.83,7.83a1.4,1.4,0,0,1,.4,1V19a1.39,1.39,0,0,1-1.39,1.39h-6.95A1.39,1.39,0,0,1,167.29,19v-6.1L164.35,10h-5.24l-2.94,2.94v6.23l20.38,18.12a1.39,1.39,0,0,1,.47,1V51.74a1.39,1.39,0,0,1-.41,1l-7.83,7.83a1.41,1.41,0,0,1-1,.41H155.65a1.41,1.41,0,0,1-1-.41l-7.82-7.83a1.34,1.34,0,0,1-.41-1V42.19a1.39,1.39,0,0,1,1.39-1.39h7a1.39,1.39,0,0,1,1.39,1.39v6.09l2.94,2.95h5.24l2.94-2.95V42.06L146.9,23.93a1.37,1.37,0,0,1-.47-1V9.47a1.4,1.4,0,0,1,.4-1L154.67.65a1.4,1.4,0,0,1,1-.4Z" transform="translate(0.43 -0.25)"/><polygon class="b355a42a-5d33-447a-830b-a7122b3c05d5" points="172.58 39.63 176.06 38.07 155.2 19.53 151.72 21.09 172.58 39.63"/><polygon class="a71dcd24-0473-4448-a3c7-796762d09f50" points="172.58 50.06 176.06 51.5 176.06 38.07 172.58 39.63 172.58 50.06"/><polygon class="a71dcd24-0473-4448-a3c7-796762d09f50" points="151.72 21.09 155.2 19.53 155.2 12.1 151.72 10.66 151.72 21.09"/><polygon class="fb9a6690-346e-4a02-81ff-24a2d18513dd" points="151.72 10.66 155.2 12.1 158.96 8.34 157.52 4.87 151.72 10.66"/><polygon class="fb9a6690-346e-4a02-81ff-24a2d18513dd" points="166.79 55.85 168.23 59.33 176.06 51.5 172.58 50.06 166.79 55.85"/><polygon class="a2526fea-9dd1-4a2e-8a82-4b4d18887935" points="151.72 50.06 148.25 51.5 156.08 59.33 157.52 55.85 151.72 50.06"/><polygon class="b75b477a-a5b6-45bf-8f74-e7147f58fdf2" points="157.52 55.85 156.08 59.33 168.23 59.33 166.79 55.85 157.52 55.85"/><polygon class="b75b477a-a5b6-45bf-8f74-e7147f58fdf2" points="169.1 18.77 176.06 18.77 172.58 16.45 169.1 18.77"/><polygon class="a71dcd24-0473-4448-a3c7-796762d09f50" points="172.58 16.45 176.06 18.77 176.06 9.22 172.58 10.66 172.58 16.45"/><polygon class="b355a42a-5d33-447a-830b-a7122b3c05d5" points="166.79 4.87 172.58 10.66 176.06 9.22 168.23 1.39 166.79 4.87"/><polygon class="b75b477a-a5b6-45bf-8f74-e7147f58fdf2" points="157.52 4.87 158.96 8.34 165.35 8.34 166.79 4.87 157.52 4.87"/><polygon class="a2526fea-9dd1-4a2e-8a82-4b4d18887935" points="166.79 4.87 165.35 8.34 169.1 12.1 172.58 10.66 166.79 4.87"/><polygon class="e6da05b2-1184-481a-ba68-e80ead6e6abc" points="172.58 10.66 169.1 12.1 169.1 18.77 172.58 16.45 172.58 10.66"/><polygon class="bedbc1bc-cc5b-4dea-ab06-38c4384486f2" points="151.72 44.05 151.72 44.26 155.2 41.94 148.25 41.94 151.72 44.26 151.72 44.05"/><polygon class="a2526fea-9dd1-4a2e-8a82-4b4d18887935" points="151.72 21.09 148.25 22.65 169.1 41.19 172.58 39.63 151.72 21.09"/><polygon class="e6da05b2-1184-481a-ba68-e80ead6e6abc" points="151.72 10.66 148.25 9.22 148.25 22.65 151.72 21.09 151.72 10.66"/><polygon class="e6da05b2-1184-481a-ba68-e80ead6e6abc" points="172.58 39.63 169.1 41.19 169.1 48.62 172.58 50.06 172.58 39.63"/><polygon class="bedbc1bc-cc5b-4dea-ab06-38c4384486f2" points="166.79 4.87 168.23 1.39 156.08 1.39 157.52 4.87 166.79 4.87"/><polygon class="a7f2ff35-f36c-4c30-a93a-4894b3098e91" points="157.52 4.87 156.08 1.39 148.25 9.22 151.72 10.66 157.52 4.87"/><polygon class="a71dcd24-0473-4448-a3c7-796762d09f50" points="151.72 50.06 155.2 48.62 155.2 41.94 151.72 44.26 151.72 50.06"/><polygon class="b355a42a-5d33-447a-830b-a7122b3c05d5" points="157.52 55.85 158.96 52.37 155.2 48.62 151.72 50.06 157.52 55.85"/><polygon class="e6da05b2-1184-481a-ba68-e80ead6e6abc" points="151.72 44.26 148.25 41.94 148.25 51.5 151.72 50.06 151.72 44.26"/><polygon class="bedbc1bc-cc5b-4dea-ab06-38c4384486f2" points="166.79 55.85 165.35 52.37 158.96 52.37 157.52 55.85 166.79 55.85"/><polygon class="a7f2ff35-f36c-4c30-a93a-4894b3098e91" points="172.58 50.06 169.1 48.62 165.35 52.37 166.79 55.85 172.58 50.06"/><polygon class="a71dcd24-0473-4448-a3c7-796762d09f50" points="157.32 4.4 151.26 10.47 151.26 21.3 172.12 39.84 172.12 49.86 166.59 55.39 157.71 55.39 152.19 49.86 152.19 43.8 151.26 43.8 151.26 50.25 157.32 56.31 166.98 56.31 173.04 50.25 173.04 39.42 152.19 20.88 152.19 10.85 157.71 5.33 166.59 5.33 172.12 10.85 172.12 16.91 173.04 16.91 173.04 10.47 166.98 4.4 157.32 4.4"/></svg>